<!-- Generated by IcoMoon.io -->
<svg version="1.1" xmlns="http://www.w3.org/2000/svg" width="26" height="20" viewBox="0 0 26 20">
<title>map</title>
<path fill="#fff" d="M5.774 19.954c0.006 0.004 0.013 0.002 0.019 0.006 0.046 0.023 0.093 0.040 0.144 0.040 0.027 0 0.055-0.004 0.082-0.011l6.793-1.854 6.793 1.854c0.027 0.008 0.055 0.011 0.083 0.011 0.051 0 0.099-0.017 0.144-0.041 0.006-0.003 0.013-0.002 0.019-0.006l5.625-3.438c0.119-0.073 0.176-0.218 0.138-0.352l-3.115-10.938c-0.026-0.092-0.093-0.167-0.181-0.204-0.089-0.036-0.188-0.030-0.273 0.016l-3.101 1.74c-0.15 0.084-0.204 0.275-0.119 0.426s0.274 0.204 0.426 0.119l2.756-1.547 2.942 10.329-5.009 3.062-1.19-9.519c-0.021-0.172-0.183-0.291-0.349-0.271-0.171 0.021-0.293 0.178-0.271 0.349l1.192 9.537-6.194-1.691v-1.706c0-0.172-0.14-0.313-0.313-0.313s-0.313 0.14-0.313 0.313v1.706l-6.194 1.691 1.192-9.537c0.021-0.171-0.1-0.328-0.271-0.349-0.17-0.020-0.328 0.099-0.349 0.271l-1.189 9.519-5.009-3.061 2.942-10.328 2.756 1.547c0.151 0.084 0.341 0.031 0.426-0.119s0.031-0.341-0.119-0.426l-3.102-1.741c-0.083-0.047-0.182-0.053-0.272-0.016s-0.156 0.111-0.181 0.204l-3.115 10.938c-0.039 0.135 0.017 0.279 0.138 0.352l5.624 3.438zM12.601 14.605c0.060 0.055 0.136 0.083 0.212 0.083 0.075 0 0.15-0.027 0.21-0.081 0.208-0.189 5.103-4.681 5.103-9.294 0-2.979-2.333-5.313-5.313-5.313s-5.313 2.333-5.313 5.313c0 4.534 4.893 9.1 5.101 9.293zM12.813 0.625c2.672 0 4.688 2.015 4.688 4.688 0 3.811-3.746 7.711-4.686 8.629-0.938-0.929-4.689-4.881-4.689-8.629 0-2.672 2.016-4.688 4.688-4.688zM15.625 5.313c0-1.551-1.262-2.813-2.813-2.813s-2.813 1.262-2.813 2.813 1.262 2.813 2.813 2.813 2.813-1.262 2.813-2.813zM12.813 7.5c-1.206 0-2.188-0.981-2.188-2.188s0.981-2.188 2.188-2.188 2.188 0.981 2.188 2.188-0.981 2.188-2.188 2.188z"></path>
</svg>
