<!-- Generated by IcoMoon.io -->
<svg version="1.1" xmlns="http://www.w3.org/2000/svg" width="20" height="20" viewBox="0 0 20 20">
<title>printer</title>
<path fill="#fff" d="M16.25 14.375h-1.25v-1.25h0.625v-1.25h-11.875v1.25h0.625v1.25h-1.25c-0.345 0-0.625-0.28-0.625-0.625v-6.25c0-0.604 2.5-1.25 6.875-1.25 0.232 0 0.437 0 0.625 0 4.336 0 6.875 0.631 6.875 1.25v6.25c0 0.345-0.279 0.625-0.625 0.625zM14.688 8.125c-0.518 0-0.938 0.42-0.938 0.938s0.42 0.938 0.938 0.938 0.938-0.42 0.938-0.938-0.42-0.938-0.938-0.938zM5 2.5c0-0.346 0.28-0.625 0.625-0.625h8.125c0.346 0 0.625 0.279 0.625 0.625v3.125h-9.375v-3.125zM14.375 18.125c0 0.345-0.279 0.625-0.625 0.625h-8.125c-0.345 0-0.625-0.28-0.625-0.625v-5.625h9.375v5.625zM13.125 13.125h-6.875v0.625h6.875v-0.625zM13.125 14.375h-6.875v0.625h6.875v-0.625zM13.125 15.625h-6.875v0.625h6.875v-0.625zM13.125 16.875h-6.875v0.625h6.875v-0.625z"></path>
</svg>
