<?xml version="1.0" encoding="utf-8"?>
<!-- Generator: Adobe Illustrator 16.0.4, SVG Export Plug-In . SVG Version: 6.00 Build 0)  -->
<!DOCTYPE svg PUBLIC "-//W3C//DTD SVG 1.1//EN" "http://www.w3.org/Graphics/SVG/1.1/DTD/svg11.dtd">
<svg  class="control-icon" version="1.1" id="Layer_1" xmlns="http://www.w3.org/2000/svg" xmlns:xlink="http://www.w3.org/1999/xlink" x="0px" y="0px"
	 width="20px" height="20px" viewBox="0 0 76 76" enable-background="new 0 0 96 96" xml:space="preserve">
<g id="Shape_19_2_">
	<g>
<path fill="#fff" d="M0 4.875v68.25h78v-68.25h-78zM29.25 48.75v-14.625h19.5v14.625h-19.5zM48.75 53.625v14.625h-19.5v-14.625h19.5zM48.75 14.625v14.625h-19.5v-14.625h19.5zM24.375 14.625v14.625h-19.5v-14.625h19.5zM4.875 34.125h19.5v14.625h-19.5v-14.625zM53.625 34.125h19.5v14.625h-19.5v-14.625zM53.625 29.25v-14.625h19.5v14.625h-19.5zM4.875 53.625h19.5v14.625h-19.5v-14.625zM53.625 68.25v-14.625h19.5v14.625h-19.5z"></path>
	</g>
</g>
</svg>
