<?xml version="1.0" encoding="utf-8"?>
<!-- Generator: Adobe Illustrator 16.0.4, SVG Export Plug-In . SVG Version: 6.00 Build 0)  -->
<!DOCTYPE svg PUBLIC "-//W3C//DTD SVG 1.1//EN" "http://www.w3.org/Graphics/SVG/1.1/DTD/svg11.dtd">
<svg  class="control-icon" version="1.1" id="Layer_1" xmlns="http://www.w3.org/2000/svg" xmlns:xlink="http://www.w3.org/1999/xlink" x="0px" y="0px"
	 width="20px" height="20px" viewBox="0 0 76 76" enable-background="new 0 0 96 96" xml:space="preserve">
<g id="Shape_19_2_">
	<g>
<path fill="#fff" d="M29.25 14.625h9.75v4.875h-9.75zM43.875 14.625h9.75v4.875h-9.75zM68.25 14.625v19.5h-14.625v-4.875h9.75v-9.75h-4.875v-4.875zM24.375 29.25h9.75v4.875h-9.75zM39 29.25h9.75v4.875h-9.75zM14.625 19.5v9.75h4.875v4.875h-9.75v-19.5h14.625v4.875zM29.25 43.875h9.75v4.875h-9.75zM43.875 43.875h9.75v4.875h-9.75zM68.25 43.875v19.5h-14.625v-4.875h9.75v-9.75h-4.875v-4.875zM24.375 58.5h9.75v4.875h-9.75zM39 58.5h9.75v4.875h-9.75zM14.625 48.75v9.75h4.875v4.875h-9.75v-19.5h14.625v4.875zM73.125 4.875h-68.25v68.25h68.25v-68.25zM78 0v0 78h-78v-78h78z"></path>
	</g>
</g>
</svg>
