<?xml version="1.0" encoding="utf-8"?>
<!-- Generator: Adobe Illustrator 16.0.4, SVG Export Plug-In . SVG Version: 6.00 Build 0)  -->
<!DOCTYPE svg PUBLIC "-//W3C//DTD SVG 1.1//EN" "http://www.w3.org/Graphics/SVG/1.1/DTD/svg11.dtd">
<svg  class="control-icon" version="1.1" id="Layer_1" xmlns="http://www.w3.org/2000/svg" xmlns:xlink="http://www.w3.org/1999/xlink" x="0px" y="0px"
	 width="20px" height="20px" viewBox="0 0 76 76" enable-background="new 0 0 96 96" xml:space="preserve">
<g id="Shape_19_2_">
	<g>
<path fill="#fff" d="M34.125 23.156c0-2.011 1.645-3.656 3.656-3.656h2.438c2.011 0 3.656 1.645 3.656 3.656v2.438c0 2.011-1.645 3.656-3.656 3.656h-2.438c-2.011 0-3.656-1.645-3.656-3.656v-2.438z"></path>
<path fill="#fff" d="M48.75 58.5h-19.5v-4.875h4.875v-14.625h-4.875v-4.875h14.625v19.5h4.875z"></path>
<path fill="#fff" d="M39 0c-21.539 0-39 17.461-39 39s17.461 39 39 39 39-17.461 39-39-17.461-39-39-39zM39 70.688c-17.5 0-31.688-14.187-31.688-31.688s14.187-31.688 31.688-31.688 31.688 14.187 31.688 31.688-14.187 31.688-31.688 31.688z"></path>
	</g>
</g>
</svg>
