<?xml version="1.0" encoding="utf-8"?>
<!-- Generator: Adobe Illustrator 16.0.4, SVG Export Plug-In . SVG Version: 6.00 Build 0)  -->
<!DOCTYPE svg PUBLIC "-//W3C//DTD SVG 1.1//EN" "http://www.w3.org/Graphics/SVG/1.1/DTD/svg11.dtd">
<svg  class="control-icon" version="1.1" id="Layer_1" xmlns="http://www.w3.org/2000/svg" xmlns:xlink="http://www.w3.org/1999/xlink" x="0px" y="0px"
	 width="20px" height="20px" viewBox="0 0 76 76" enable-background="new 0 0 96 96" xml:space="preserve">
<g id="Shape_19_2_">
	<g>
<path fill="#fff" d="M78 21.519l-6.894-6.894-13.615 13.616-7.731-7.732 13.616-13.616-6.894-6.894-13.616 13.616-8.741-8.741-6.598 6.598 39 39 6.598-6.598-8.741-8.741 13.616-13.616z"></path>
<path fill="#fff" d="M60.484 51.324l-33.807-33.807c-7.299 8.752-15.579 22.277-9.856 33.913l-10.074 10.074c-2.37 2.37-2.37 6.248 0 8.618l1.132 1.132c2.37 2.37 6.248 2.37 8.618 0l10.073-10.073c11.636 5.723 25.161-2.557 33.914-9.856z"></path>
	</g>
</g>
</svg>
