<?xml version="1.0" encoding="utf-8"?>
<!-- Generator: Adobe Illustrator 16.0.4, SVG Export Plug-In . SVG Version: 6.00 Build 0)  -->
<!DOCTYPE svg PUBLIC "-//W3C//DTD SVG 1.1//EN" "http://www.w3.org/Graphics/SVG/1.1/DTD/svg11.dtd">
<svg  class="control-icon" version="1.1" id="Layer_1" xmlns="http://www.w3.org/2000/svg" xmlns:xlink="http://www.w3.org/1999/xlink" x="0px" y="0px"
	 width="20px" height="20px" viewBox="0 0 76 76" enable-background="new 0 0 96 96" xml:space="preserve">
<g id="Shape_19_2_">
	<g>
<path fill="#fff" d="M74.344 58.5h-1.219v-15.844c0-4.704-3.827-8.531-8.531-8.531h-20.719v-9.75h1.219c2.011 0 3.656-1.645 3.656-3.656v-12.188c0-2.011-1.645-3.656-3.656-3.656h-12.188c-2.011 0-3.656 1.645-3.656 3.656v12.188c0 2.011 1.645 3.656 3.656 3.656h1.219v9.75h-20.719c-4.704 0-8.531 3.827-8.531 8.531v15.844h-1.219c-2.011 0-3.656 1.645-3.656 3.656v12.188c0 2.011 1.645 3.656 3.656 3.656h12.188c2.011 0 3.656-1.645 3.656-3.656v-12.188c0-2.011-1.645-3.656-3.656-3.656h-1.219v-14.625h19.5v14.625h-1.219c-2.011 0-3.656 1.645-3.656 3.656v12.188c0 2.011 1.645 3.656 3.656 3.656h12.188c2.011 0 3.656-1.645 3.656-3.656v-12.188c0-2.011-1.645-3.656-3.656-3.656h-1.219v-14.625h19.5v14.625h-1.219c-2.011 0-3.656 1.645-3.656 3.656v12.188c0 2.011 1.645 3.656 3.656 3.656h12.188c2.011 0 3.656-1.645 3.656-3.656v-12.188c0-2.011-1.645-3.656-3.656-3.656zM14.625 73.125h-9.75v-9.75h9.75v9.75zM43.875 73.125h-9.75v-9.75h9.75v9.75zM34.125 19.5v-9.75h9.75v9.75h-9.75zM73.125 73.125h-9.75v-9.75h9.75v9.75z"></path>
	</g>
</g>
</svg>
