<?xml version="1.0" encoding="utf-8"?>
<!-- Generator: Adobe Illustrator 16.0.4, SVG Export Plug-In . SVG Version: 6.00 Build 0)  -->
<!DOCTYPE svg PUBLIC "-//W3C//DTD SVG 1.1//EN" "http://www.w3.org/Graphics/SVG/1.1/DTD/svg11.dtd">
<svg  class="control-icon" version="1.1" id="Layer_1" xmlns="http://www.w3.org/2000/svg" xmlns:xlink="http://www.w3.org/1999/xlink" x="0px" y="0px"
	 width="20px" height="20px" viewBox="0 0 76 76" enable-background="new 0 0 96 96" xml:space="preserve">
<g id="Shape_19_2_">
	<g>
<path fill="#fff" d="M29.25 39c0-5.385 4.365-9.75 9.75-9.75s9.75 4.365 9.75 9.75c0 5.385-4.365 9.75-9.75 9.75s-9.75-4.365-9.75-9.75zM50.605 17.56c7.606 4.125 12.77 12.18 12.77 21.44s-5.164 17.315-12.77 21.44c3.357-5.342 5.458-12.97 5.458-21.44s-2.101-16.099-5.458-21.44zM21.938 39c0 8.471 2.101 16.099 5.458 21.44-7.606-4.125-12.77-12.18-12.77-21.44s5.164-17.315 12.77-21.44c-3.357 5.342-5.458 12.97-5.458 21.44zM7.313 39c0 13.094 4.144 24.846 10.714 32.885-10.839-6.928-18.026-19.067-18.026-32.885s7.187-25.957 18.026-32.885c-6.57 8.039-10.714 19.791-10.714 32.885zM59.974 6.115c10.839 6.928 18.026 19.067 18.026 32.885s-7.187 25.957-18.026 32.885c6.569-8.039 10.713-19.791 10.713-32.885s-4.144-24.846-10.713-32.885z"></path>
	</g>
</g>
</svg>
