<?xml version="1.0" encoding="utf-8"?>
<!-- Generator: Adobe Illustrator 16.0.4, SVG Export Plug-In . SVG Version: 6.00 Build 0)  -->
<!DOCTYPE svg PUBLIC "-//W3C//DTD SVG 1.1//EN" "http://www.w3.org/Graphics/SVG/1.1/DTD/svg11.dtd">
<svg  class="control-icon" version="1.1" id="Layer_1" xmlns="http://www.w3.org/2000/svg" xmlns:xlink="http://www.w3.org/1999/xlink" x="0px" y="0px"
	 width="20px" height="20px" viewBox="0 0 32 64" enable-background="new 0 0 96 96" xml:space="preserve">
<g id="Shape_19_2_">
	<g>
<path fill="#fff" d="M39.087 20.458v4.44c0 0.784-0.609 1.393-1.393 1.393h-7.313c-1.349 8.357-7.748 13.798-17.628 14.973 6.486 6.921 13.406 15.278 19.979 23.33 0.348 0.392 0.435 1.001 0.174 1.48-0.218 0.479-0.696 0.784-1.262 0.784h-8.488c-0.435 0-0.827-0.174-1.088-0.522-7.008-8.401-13.45-16.105-21.676-24.854-0.261-0.261-0.392-0.609-0.392-0.958v-5.528c0-0.74 0.609-1.393 1.393-1.393h4.875c7.661 0 12.449-2.568 13.711-7.313h-18.586c-0.784 0-1.393-0.609-1.393-1.393v-4.44c0-0.784 0.609-1.393 1.393-1.393h17.977c-1.654-3.264-5.571-4.918-11.665-4.918h-6.311c-0.784 0-1.393-0.653-1.393-1.393v-5.789c0-0.784 0.609-1.393 1.393-1.393h36.214c0.784 0 1.393 0.609 1.393 1.393v4.44c0 0.784-0.609 1.393-1.393 1.393h-10.142c1.393 1.785 2.307 3.874 2.786 6.268h7.443c0.784 0 1.393 0.609 1.393 1.393z"></path>
	</g>
</g>
</svg>
