<?xml version="1.0" encoding="utf-8"?>
<!-- Generator: Adobe Illustrator 16.0.4, SVG Export Plug-In . SVG Version: 6.00 Build 0)  -->
<!DOCTYPE svg PUBLIC "-//W3C//DTD SVG 1.1//EN" "http://www.w3.org/Graphics/SVG/1.1/DTD/svg11.dtd">
<svg  class="control-icon" version="1.1" id="Layer_1" xmlns="http://www.w3.org/2000/svg" xmlns:xlink="http://www.w3.org/1999/xlink" x="0px" y="0px"
	 width="20px" height="20px" viewBox="0 0 76 76" enable-background="new 0 0 96 96" xml:space="preserve">
<g id="Shape_19_2_">
	<g>
<path fill="#fff" d="M65.813 0h-58.5c-4.022 0-7.313 3.291-7.313 7.313v63.375c0 4.022 3.291 7.313 7.313 7.313h58.5c4.022 0 7.313-3.291 7.313-7.313v-63.375c0-4.022-3.291-7.313-7.313-7.313zM63.375 68.25h-53.625v-58.5h53.625v58.5zM19.5 43.875h34.125v4.875h-34.125zM19.5 53.625h34.125v4.875h-34.125zM24.375 21.938c0-4.039 3.274-7.313 7.313-7.313s7.313 3.274 7.313 7.313c0 4.039-3.274 7.313-7.313 7.313s-7.313-3.274-7.313-7.313zM36.563 29.25h-9.75c-4.022 0-7.313 2.194-7.313 4.875v4.875h24.375v-4.875c0-2.681-3.291-4.875-7.313-4.875z"></path>
	</g>
</g>
</svg>
