<?xml version="1.0" encoding="utf-8"?>
<!-- Generator: Adobe Illustrator 16.0.4, SVG Export Plug-In . SVG Version: 6.00 Build 0)  -->
<!DOCTYPE svg PUBLIC "-//W3C//DTD SVG 1.1//EN" "http://www.w3.org/Graphics/SVG/1.1/DTD/svg11.dtd">
<svg  class="control-icon" version="1.1" id="Layer_1" xmlns="http://www.w3.org/2000/svg" xmlns:xlink="http://www.w3.org/1999/xlink" x="0px" y="0px"
	 width="96px" height="96px" viewBox="0 0 78 78" enable-background="new 0 0 96 96" xml:space="preserve">
<g id="Shape_19_2_">
	<g>
<path d="M24.375 9.75h-9.75c-2.681 0-4.875 2.194-4.875 4.875v9.75c0 2.681 2.194 4.875 4.875 4.875h9.75c2.681 0 4.875-2.194 4.875-4.875v-9.75c0-2.681-2.194-4.875-4.875-4.875z"></path>
<path d="M53.625 29.25h9.75c2.681 0 4.875-2.194 4.875-4.875v-9.75c0-2.681-2.194-4.875-4.875-4.875h-9.75c-2.681 0-4.875 2.194-4.875 4.875v9.75c0 2.681 2.194 4.875 4.875 4.875zM53.625 14.625h9.75v9.75h-9.75v-9.75z"></path>
<path d="M24.375 48.75h-9.75c-2.681 0-4.875 2.194-4.875 4.875v9.75c0 2.681 2.194 4.875 4.875 4.875h9.75c2.681 0 4.875-2.194 4.875-4.875v-9.75c0-2.681-2.194-4.875-4.875-4.875zM24.375 63.375h-9.75v-9.75h9.75v9.75z"></path>
<path d="M63.375 48.75h-9.75c-2.681 0-4.875 2.194-4.875 4.875v9.75c0 2.681 2.194 4.875 4.875 4.875h9.75c2.681 0 4.875-2.194 4.875-4.875v-9.75c0-2.681-2.194-4.875-4.875-4.875z"></path>
<path d="M68.25 39h-4.875c-6.511 0-12.632-2.535-17.236-7.139s-7.139-10.725-7.139-17.236v-4.875c0-5.363-4.388-9.75-9.75-9.75h-19.5c-5.363 0-9.75 4.388-9.75 9.75v19.5c0 5.362 4.388 9.75 9.75 9.75h4.875c6.511 0 12.632 2.535 17.236 7.139s7.139 10.725 7.139 17.236v4.875c0 5.362 4.388 9.75 9.75 9.75h19.5c5.362 0 9.75-4.388 9.75-9.75v-19.5c0-5.362-4.388-9.75-9.75-9.75zM73.125 68.25c0 1.291-0.51 2.513-1.436 3.439s-2.147 1.436-3.439 1.436h-19.5c-1.291 0-2.513-0.51-3.439-1.436s-1.436-2.147-1.436-3.439v-4.875c0-16.154-13.096-29.25-29.25-29.25h-4.875c-1.291 0-2.513-0.51-3.439-1.436s-1.436-2.147-1.436-3.439v-19.5c0-1.291 0.51-2.513 1.436-3.439s2.147-1.436 3.439-1.436h19.5c1.291 0 2.513 0.51 3.439 1.436s1.436 2.147 1.436 3.439v4.875c0 16.154 13.096 29.25 29.25 29.25h4.875c1.291 0 2.513 0.51 3.439 1.436s1.436 2.147 1.436 3.439v19.5z"></path>
	</g>
</g>
</svg>
