<?xml version="1.0" standalone="no"?>
<!DOCTYPE svg PUBLIC "-//W3C//DTD SVG 20010904//EN"
 "http://www.w3.org/TR/2001/REC-SVG-20010904/DTD/svg10.dtd">
<svg class="control-icon" id="Layer_1" version="1.0" xmlns="http://www.w3.org/2000/svg"
 width="100pt" height="100pt" viewBox="100 50 600.000000 512.000000" x="0px" y="0px" style="enable-background:new 0 0 90 90;fill:#575757"
 preserveAspectRatio="xMidYMid meet" xml:space="preserve">

<g transform="translate(0.000000,512.000000) scale(0.100000,-0.100000)"
 stroke="none">
<path d="M4285 5109 c-586 -48 -1137 -300 -1564 -714 -424 -411 -692 -950
-761 -1525 -15 -131 -20 -394 -9 -525 71 -866 592 -1649 1362 -2050 363 -189
715 -280 1125 -289 357 -9 703 52 1015 179 902 369 1520 1207 1596 2165 50
632 -128 1247 -507 1750 -365 484 -908 833 -1493 958 -231 50 -534 70 -764 51z
m477 -794 c284 -38 562 -146 798 -313 121 -85 325 -290 412 -412 289 -408 391
-911 288 -1408 -134 -640 -650 -1177 -1285 -1335 -175 -44 -242 -52 -445 -52
-250 0 -417 29 -634 112 -221 84 -488 257 -619 402 -123 136 -14 331 166 297
22 -4 59 -28 103 -68 271 -240 534 -358 871 -390 431 -40 894 148 1179 479
233 271 348 578 348 933 0 173 -17 285 -65 434 -205 630 -827 1042 -1477 977
-296 -30 -557 -139 -779 -326 -52 -44 -109 -91 -126 -105 -25 -21 -41 -25 -97
-25 -58 0 -72 4 -103 28 -88 67 -98 180 -24 264 48 55 201 180 293 239 240
155 490 242 799 278 79 9 301 4 397 -9z m-1447 -1246 c164 -30 318 -156 381
-312 l22 -52 728 -5 c684 -5 731 -6 756 -23 41 -28 62 -67 62 -118 0 -98 -65
-139 -219 -139 l-95 0 0 -86 c0 -101 -18 -141 -77 -169 -53 -26 -108 -15 -152
29 -36 36 -36 37 -39 131 l-4 95 -59 0 -59 0 0 -200 c0 -223 -5 -245 -63 -280
-63 -39 -150 -19 -187 43 -18 29 -20 51 -20 235 l0 202 -286 -2 -286 -3 -19
-49 c-75 -188 -278 -326 -482 -326 -131 1 -265 58 -363 155 -205 202 -205 528
0 730 126 125 289 176 461 144z"/>
<path d="M3147 2796 c-211 -59 -237 -362 -40 -457 126 -61 285 -3 338 124 21
50 21 143 0 193 -47 113 -177 174 -298 140z"/>
</g>
</svg>
