<?xml version="1.0" standalone="no"?>
<!DOCTYPE svg PUBLIC "-//W3C//DTD SVG 20010904//EN"
 "http://www.w3.org/TR/2001/REC-SVG-20010904/DTD/svg10.dtd">
<svg class="control-icon" id="Layer_1" version="1.0" xmlns="http://www.w3.org/2000/svg"
 width="100pt" height="100pt" viewBox="0 0 225.000000 225.000000" style="enable-background:new 0 0 90 90;fill:#575757"
 preserveAspectRatio="xMidYMid meet" xml:space="preserve">

<g transform="translate(0.000000,225.000000) scale(0.100000,-0.100000)" stroke="none">
<path d="M1075 2191 c-47 -21 -65 -61 -169 -383 l-106 -327 -353 -3 c-309 -3
-356 -5 -383 -20 -33 -18 -64 -71 -64 -108 0 -58 27 -84 310 -289 154 -112
280 -208 280 -214 0 -6 -48 -159 -106 -340 -100 -310 -106 -332 -95 -368 19
-62 78 -98 144 -85 20 4 140 85 312 210 157 114 284 201 290 197 77 -60 532
-386 553 -397 65 -34 146 0 171 72 14 40 13 44 -94 374 -69 215 -104 338 -99
346 5 7 131 101 279 209 316 229 333 249 289 341 -32 68 -39 69 -431 72 l-353
3 -106 327 c-118 366 -126 381 -205 388 -24 2 -53 0 -64 -5z m90 -183 c91
-288 199 -615 208 -625 7 -10 101 -13 385 -15 270 -2 376 -6 379 -14 2 -7
-131 -110 -297 -230 -266 -194 -300 -221 -300 -245 0 -15 49 -179 110 -365 60
-185 107 -341 104 -346 -3 -4 -8 -8 -12 -8 -4 0 -140 97 -302 215 -162 118
-304 215 -315 215 -11 0 -153 -97 -315 -215 -162 -118 -298 -215 -302 -215 -4
0 -9 4 -12 8 -3 5 44 160 105 346 106 328 117 369 101 392 -4 6 -139 107 -300
224 -161 117 -291 217 -289 224 3 8 111 12 379 14 284 2 378 5 385 15 9 10
117 337 208 625 16 52 31 82 40 82 9 0 24 -30 40 -82z"/>
<path d="M1093 1633 c-7 -2 -40 -90 -74 -194 l-61 -189 -198 0 c-216 0 -224
-2 -218 -57 2 -23 29 -47 159 -142 l156 -113 -60 -184 c-52 -158 -59 -187 -49
-209 22 -47 58 -35 201 69 71 52 141 102 154 111 23 15 28 13 176 -95 165
-120 201 -133 223 -85 9 21 2 52 -49 209 l-60 184 156 113 c130 95 157 119
159 142 6 55 -2 57 -218 57 l-198 0 -61 189 c-39 122 -67 191 -77 195 -18 7
-43 7 -61 -1z m73 -345 c20 -62 41 -119 46 -125 7 -9 53 -13 145 -15 l135 -3
-106 -78 c-124 -91 -122 -83 -72 -237 19 -58 33 -106 31 -108 -1 -2 -46 29
-100 67 -54 39 -108 71 -120 71 -12 0 -66 -32 -120 -71 -54 -38 -99 -69 -100
-67 -2 2 12 50 31 108 50 154 52 146 -72 237 l-106 78 135 3 c92 2 138 6 145
15 5 6 26 63 46 125 21 61 39 112 41 112 2 0 20 -51 41 -112z"/>
</g>
</svg>
