<?xml version="1.0" standalone="no"?>
<!DOCTYPE svg PUBLIC "-//W3C//DTD SVG 20010904//EN"
 "http://www.w3.org/TR/2001/REC-SVG-20010904/DTD/svg10.dtd">
<svg class="control-icon" id="Layer_1" version="1.0" xmlns="http://www.w3.org/2000/svg"
 width="90.000000pt" height="90.000000pt" viewBox="0 0 512.000000 512.000000" x="0px" y="0px" style="enable-background:new 0 0 90 90;fill:#575757"
 preserveAspectRatio="xMidYMid meet" xml:space="preserve">

<g transform="translate(0.000000,512.000000) scale(0.100000,-0.100000)"
 stroke="none">
<path d="M2400 4634 c-510 -64 -902 -315 -1114 -715 -56 -105 -119 -292 -142
-424 -27 -153 -25 -447 4 -580 69 -313 219 -628 463 -971 192 -271 366 -473
649 -757 198 -198 237 -227 300 -227 58 0 99 29 250 177 486 473 862 980 1045
1408 140 328 179 686 109 1010 -120 554 -520 938 -1099 1055 -97 20 -380 34
-465 24z m358 -665 c271 -68 494 -287 574 -565 30 -103 32 -303 4 -404 -80
-295 -309 -516 -606 -585 -94 -21 -257 -19 -358 5 -276 66 -504 286 -584 566
-30 103 -32 304 -5 404 117 433 546 688 975 579z"/>
<path d="M2490 3669 c-286 -42 -465 -317 -392 -600 109 -417 695 -475 893 -88
25 50 49 152 49 212 0 116 -54 253 -133 335 -103 107 -269 163 -417 141z"/>
<path d="M1625 1389 c-360 -45 -659 -127 -781 -214 -84 -60 -132 -156 -120
-242 33 -241 386 -363 1261 -435 233 -19 962 -16 1215 5 365 31 700 86 868
143 294 98 403 274 282 456 -71 107 -286 192 -639 253 -222 39 -371 52 -409
36 -95 -39 -132 -168 -71 -245 35 -44 74 -57 253 -81 252 -35 486 -85 486
-105 0 -11 -134 -45 -290 -74 -492 -90 -1272 -111 -1875 -50 -256 26 -547 78
-640 114 l-30 12 45 14 c78 24 330 72 483 93 97 13 158 26 179 38 105 61 104
199 -1 270 -37 25 -87 28 -216 12z"/>
</g>
</svg>
