<?xml version="1.0" standalone="no"?>
<!DOCTYPE svg PUBLIC "-//W3C//DTD SVG 20010904//EN"
 "http://www.w3.org/TR/2001/REC-SVG-20010904/DTD/svg10.dtd">
<svg version="1.0" xmlns="http://www.w3.org/2000/svg"
 width="100.000000pt" height="100.000000pt" viewBox="0 0 512.000000 512.000000"
 preserveAspectRatio="xMidYMid meet">

<g transform="translate(0.000000,512.000000) scale(0.100000,-0.100000)"
fill="midnightblue" stroke="none">
<path d="M915 5106 c-51 -22 -60 -53 -60 -207 l0 -139 32 -31 c44 -44 102 -45
145 -1 28 27 31 38 36 106 l5 76 68 0 c58 0 72 4 98 26 57 48 47 135 -19 169
-38 20 -260 21 -305 1z"/>
<path d="M1533 5110 c-13 -5 -32 -24 -43 -42 -28 -45 -21 -94 20 -130 l30 -28
241 0 241 0 29 29 c54 54 36 146 -33 170 -38 13 -453 14 -485 1z"/>
<path d="M2336 5105 c-42 -22 -55 -44 -56 -92 0 -33 6 -48 31 -72 l31 -31 241
0 c214 0 244 2 263 18 52 42 58 106 15 154 l-29 33 -234 3 c-194 2 -238 0
-262 -13z"/>
<path d="M3134 5101 c-36 -22 -58 -75 -48 -115 3 -14 20 -37 36 -51 l30 -25
237 0 c224 0 240 1 264 20 38 30 52 80 33 123 -26 62 -47 67 -298 67 -202 0
-226 -2 -254 -19z"/>
<path d="M3954 5110 c-53 -21 -79 -93 -53 -143 28 -55 35 -57 296 -57 l241 0
31 31 c42 42 43 95 2 141 l-29 33 -234 2 c-128 1 -243 -2 -254 -7z"/>
<path d="M4755 5106 c-61 -26 -76 -110 -31 -163 22 -25 32 -29 103 -33 l78 -5
5 -78 c4 -71 8 -81 33 -103 56 -48 143 -28 166 38 6 17 11 85 11 150 0 191
-18 208 -212 208 -79 -1 -134 -6 -153 -14z"/>
<path d="M897 4480 c-15 -12 -31 -38 -37 -58 -13 -48 -13 -406 0 -454 29 -104
171 -104 200 0 13 48 13 406 0 454 -14 48 -52 78 -100 78 -22 0 -48 -8 -63
-20z"/>
<path d="M4941 4469 l-31 -31 0 -241 c0 -214 2 -244 18 -263 42 -52 106 -58
154 -15 l33 29 0 247 0 247 -33 29 c-46 41 -99 40 -141 -2z"/>
<path d="M933 3693 c-36 -7 -71 -51 -78 -97 -4 -22 -5 -131 -3 -241 3 -220 6
-232 66 -261 65 -31 136 12 147 90 4 22 5 131 3 241 -2 154 -6 205 -18 222
-22 34 -73 54 -117 46z"/>
<path d="M4974 3686 c-62 -27 -64 -36 -64 -297 l0 -237 25 -30 c32 -38 72 -48
118 -28 62 26 67 47 67 296 0 248 -5 271 -65 296 -41 17 -42 17 -81 0z"/>
<path d="M2381 3379 c-42 -42 -43 -95 -2 -141 l29 -33 318 -3 318 -3 -534
-534 -535 -535 -952 0 -953 0 -32 -29 -33 -29 -3 -991 c-3 -1091 -6 -1033 58
-1066 26 -13 147 -15 1021 -13 l991 3 29 33 29 32 0 953 0 952 535 535 534
534 3 -318 3 -318 33 -29 c46 -41 99 -40 141 2 l31 31 0 468 0 468 -31 31 -31
31 -468 0 -468 0 -31 -31z m-1529 -1646 c3 -204 9 -227 64 -251 49 -23 101 -8
131 37 15 22 18 54 21 214 l4 187 424 0 424 0 0 -424 0 -424 -187 -4 c-160 -3
-192 -6 -214 -21 -63 -43 -63 -131 0 -174 22 -15 54 -18 214 -21 l187 -4 0
-319 0 -319 -852 2 -853 3 -3 853 -2 852 319 0 319 0 4 -187z"/>
<path d="M915 1266 c-51 -22 -60 -53 -60 -207 l0 -139 33 -32 32 -33 143 0
c121 0 146 3 169 18 37 25 53 77 38 121 -15 48 -52 68 -131 74 l-66 5 -5 66
c-6 78 -26 115 -70 130 -39 14 -46 13 -83 -3z"/>
<path d="M903 2870 c-21 -13 -35 -31 -42 -57 -17 -59 -14 -426 3 -467 18 -43
51 -66 96 -66 45 0 78 23 96 66 17 41 20 408 3 467 -11 42 -56 77 -99 77 -14
0 -39 -9 -57 -20z"/>
<path d="M4965 2878 c-53 -29 -55 -35 -55 -295 l0 -241 31 -31 c60 -60 159
-30 174 53 4 17 5 129 3 249 l-3 219 -33 29 c-34 31 -80 38 -117 17z"/>
<path d="M4983 2078 c-17 -4 -41 -20 -52 -34 -20 -25 -21 -39 -21 -260 0 -153
4 -242 11 -258 16 -34 72 -60 113 -52 18 4 44 18 57 32 24 25 24 29 27 247 2
139 -1 236 -7 258 -17 56 -69 83 -128 67z"/>
<path d="M4974 1270 c-44 -18 -64 -58 -64 -130 l0 -67 -76 -5 c-68 -5 -79 -8
-106 -36 -44 -43 -43 -101 1 -145 l31 -32 143 0 c206 0 217 11 217 217 0 133
-11 167 -60 193 -32 17 -54 18 -86 5z"/>
<path d="M2344 1056 c-41 -18 -64 -52 -64 -96 0 -45 23 -78 66 -96 41 -17 408
-20 467 -3 42 11 77 56 77 99 0 43 -35 88 -77 99 -58 16 -431 13 -469 -3z"/>
<path d="M3163 1063 c-30 -6 -71 -49 -78 -83 -8 -38 18 -93 52 -111 37 -20
468 -20 505 0 66 35 69 139 5 181 -17 12 -68 15 -242 16 -121 1 -230 0 -242
-3z"/>
<path d="M3963 1059 c-100 -29 -96 -170 5 -199 48 -13 406 -13 454 0 48 14 78
52 78 100 0 48 -30 86 -78 100 -45 12 -415 12 -459 -1z"/>
</g>
</svg>
