<?xml version="1.0" standalone="no"?>
<!DOCTYPE svg PUBLIC "-//W3C//DTD SVG 20010904//EN"
 "http://www.w3.org/TR/2001/REC-SVG-20010904/DTD/svg10.dtd">
<svg version="1.0" xmlns="http://www.w3.org/2000/svg"
 width="240.000000pt" height="240.000000pt" viewBox="0 0 240.000000 240.000000"
 preserveAspectRatio="xMidYMid meet">

<g transform="translate(0.000000,240.000000) scale(0.100000,-0.100000)"
fill="midnightblue" stroke="none">
<path d="M613 1565 c-62 -27 -64 -42 -61 -376 l3 -301 33 -29 c31 -28 36 -29
132 -29 60 0 100 4 100 10 0 6 -35 10 -86 10 -85 0 -118 9 -141 39 -9 12 -12
96 -13 314 l0 298 25 24 24 25 301 0 301 0 24 -25 c23 -23 25 -31 25 -130 0
-87 3 -105 15 -105 22 0 22 188 0 230 -30 57 -45 60 -362 60 -223 -1 -295 -4
-320 -15z"/>
<path d="M986 1238 c-9 -12 -16 -30 -16 -39 0 -9 45 -80 99 -158 55 -77 98
-141 96 -141 -2 0 -27 9 -55 20 -28 11 -59 20 -70 20 -25 0 -50 -26 -50 -53 0
-53 192 -181 333 -222 45 -13 57 -21 57 -37 0 -30 64 -90 87 -81 10 3 69 46
131 96 93 74 112 93 112 116 0 27 -39 74 -69 83 -7 2 -26 42 -42 89 -30 95
-94 210 -150 270 -38 42 -71 50 -104 25 -12 -8 -32 -12 -51 -9 -20 3 -36 0
-47 -11 -8 -9 -30 -16 -48 -16 -18 0 -40 -7 -49 -15 -16 -14 -20 -12 -45 25
-45 64 -91 79 -119 38z m151 -133 c48 -69 91 -125 96 -125 16 0 5 26 -35 88
-33 50 -39 68 -31 80 20 33 41 24 83 -37 38 -57 60 -75 60 -50 0 6 -13 30 -30
54 -33 48 -31 75 4 75 15 0 33 -15 55 -45 39 -55 60 -50 28 6 -21 39 -22 40
-3 54 13 10 24 11 36 5 26 -14 97 -113 135 -188 30 -59 71 -189 63 -197 -30
-28 -193 -155 -198 -155 -4 0 -36 9 -71 21 -140 46 -309 155 -309 200 0 28 32
24 122 -13 43 -17 80 -29 84 -26 3 3 -47 80 -110 171 -110 156 -125 184 -109
200 22 23 48 -1 130 -118z m553 -346 c0 -4 -44 -42 -97 -85 -144 -117 -130
-110 -159 -83 -13 12 -24 28 -24 35 0 7 51 53 113 102 l112 90 28 -26 c15 -14
27 -29 27 -33z"/>
<path d="M850 840 c0 -5 23 -10 50 -10 28 0 50 5 50 10 0 6 -22 10 -50 10 -27
0 -50 -4 -50 -10z"/>
</g>
</svg>
