<?xml version="1.0" encoding="utf-8"?>
<!-- Generator: Adobe Illustrator 16.0.4, SVG Export Plug-In . SVG Version: 6.00 Build 0)  -->
<!DOCTYPE svg PUBLIC "-//W3C//DTD SVG 1.1//EN" "http://www.w3.org/Graphics/SVG/1.1/DTD/svg11.dtd">
<svg  class="control-icon" version="1.1" id="Layer_1" xmlns="http://www.w3.org/2000/svg" xmlns:xlink="http://www.w3.org/1999/xlink" x="0px" y="0px"
	 width="96px" height="96px" viewBox="0 0 96 96" enable-background="new 0 0 96 96" xml:space="preserve">
<g id="ico_x5F_map_x5F_lg_3_">
	<path d="M92.313,70.04c0.107-0.228,0.203-0.455,0.305-0.682c0.173-0.387,0.341-0.772,0.498-1.156
		c0.1-0.242,0.195-0.482,0.289-0.723c0.153-0.393,0.295-0.785,0.432-1.175c0.072-0.206,0.147-0.411,0.215-0.616
		c0.188-0.576,0.361-1.149,0.511-1.719c0.03-0.121,0.055-0.242,0.084-0.363c0.115-0.466,0.22-0.932,0.308-1.394
		c0.036-0.191,0.066-0.381,0.098-0.571c0.068-0.413,0.124-0.823,0.168-1.232c0.021-0.176,0.042-0.353,0.057-0.529
		c0.049-0.57,0.081-1.139,0.081-1.704l-0.073-0.071c0.034-0.462,0.073-0.927,0.073-1.397c0-0.608-0.034-1.206-0.091-1.798
		c-0.021-0.204-0.058-0.401-0.085-0.603c-0.051-0.384-0.101-0.767-0.175-1.142c-0.046-0.243-0.111-0.478-0.169-0.715
		c-0.078-0.325-0.153-0.651-0.248-0.97c-0.075-0.257-0.167-0.505-0.254-0.758c-0.1-0.287-0.199-0.572-0.312-0.85
		c-0.107-0.266-0.226-0.525-0.344-0.785c-0.116-0.25-0.233-0.499-0.358-0.743c-0.139-0.271-0.288-0.537-0.44-0.8
		c-0.125-0.215-0.252-0.427-0.386-0.636c-0.176-0.277-0.357-0.547-0.547-0.814c-0.126-0.174-0.255-0.345-0.387-0.515
		c-0.218-0.285-0.439-0.563-0.673-0.833c-0.111-0.129-0.229-0.253-0.346-0.38c-0.269-0.293-0.541-0.583-0.827-0.857
		c-0.077-0.075-0.158-0.144-0.237-0.216c-2.701-2.504-6.149-4.198-9.983-4.713c-0.004-0.001-0.008-0.002-0.008-0.002
		c-0.804-0.106-1.614-0.181-2.444-0.181h-0.172h-0.053h-2.234h-0.224c-0.559,0-1.108,0.034-1.652,0.083
		c-0.508,0.046-1.007,0.121-1.504,0.207c-0.086,0.015-0.176,0.024-0.263,0.04c-0.45,0.086-0.893,0.197-1.333,0.314
		c-0.125,0.035-0.253,0.061-0.376,0.097c-0.411,0.12-0.81,0.261-1.207,0.407c-0.147,0.054-0.295,0.104-0.441,0.162
		c-0.371,0.148-0.733,0.314-1.094,0.485c-0.161,0.078-0.323,0.15-0.48,0.232c-0.338,0.173-0.667,0.361-0.991,0.555
		c-0.17,0.1-0.338,0.199-0.504,0.304c-0.305,0.195-0.601,0.4-0.893,0.612c-0.172,0.125-0.344,0.252-0.513,0.383
		c-0.271,0.211-0.536,0.432-0.795,0.659c-0.173,0.152-0.344,0.307-0.511,0.464c-0.24,0.227-0.474,0.456-0.701,0.696
		c-0.17,0.178-0.333,0.36-0.496,0.544c-0.208,0.237-0.413,0.478-0.609,0.727c-0.161,0.204-0.315,0.415-0.468,0.628
		c-0.179,0.245-0.355,0.491-0.521,0.745c-0.152,0.233-0.291,0.474-0.434,0.713c-0.146,0.25-0.294,0.5-0.43,0.757
		c-0.139,0.262-0.261,0.53-0.386,0.799c-0.116,0.252-0.238,0.501-0.342,0.759c-0.12,0.291-0.222,0.59-0.326,0.888
		c-0.087,0.25-0.181,0.495-0.258,0.75c-0.098,0.326-0.175,0.66-0.257,0.992c-0.057,0.239-0.124,0.473-0.172,0.716
		c-0.076,0.383-0.126,0.774-0.179,1.165c-0.026,0.202-0.066,0.4-0.086,0.603c-0.061,0.6-0.093,1.208-0.093,1.823
		c0,0.471,0.039,0.935,0.072,1.397l-0.072,0.071c0,0.565,0.032,1.134,0.08,1.705c0.015,0.177,0.037,0.356,0.057,0.534
		c0.044,0.407,0.1,0.814,0.168,1.223c0.032,0.194,0.062,0.388,0.101,0.583c0.084,0.45,0.187,0.902,0.299,1.355
		c0.032,0.136,0.059,0.27,0.096,0.405c0.147,0.567,0.319,1.141,0.508,1.717c0.067,0.205,0.144,0.413,0.217,0.62
		c0.135,0.387,0.277,0.774,0.427,1.165c0.097,0.248,0.196,0.497,0.3,0.747c0.15,0.365,0.31,0.731,0.475,1.099
		c0.11,0.248,0.217,0.495,0.333,0.744c0.26,0.556,0.533,1.115,0.82,1.679c0.152,0.294,0.316,0.595,0.475,0.893
		c0.166,0.312,0.333,0.624,0.508,0.937c0.19,0.341,0.386,0.685,0.584,1.029c0.152,0.266,0.311,0.531,0.468,0.798
		c0.223,0.374,0.444,0.747,0.675,1.123c0.1,0.16,0.203,0.322,0.305,0.482c0.576,0.924,1.179,1.859,1.81,2.806
		c0.036,0.053,0.07,0.107,0.106,0.16c0.342,0.511,0.693,1.028,1.051,1.546c0.063,0.091,0.127,0.183,0.189,0.274
		c2.297,3.317,4.874,6.775,7.64,10.417C73.88,92.655,74.695,93,75.695,93s1.82-0.346,1.957-0.795h0.017l-0.011,0.017
		c2.759-3.63,5.329-7.078,7.622-10.388c0.114-0.166,0.229-0.332,0.343-0.497c0.312-0.454,0.621-0.907,0.921-1.356
		c0.123-0.182,0.24-0.363,0.361-0.546c0.511-0.772,1.003-1.537,1.477-2.293c0.145-0.228,0.291-0.458,0.43-0.683
		c0.212-0.346,0.414-0.688,0.616-1.03c0.178-0.296,0.353-0.593,0.522-0.888c0.187-0.323,0.369-0.645,0.546-0.964
		c0.186-0.334,0.364-0.666,0.54-0.998c0.15-0.281,0.305-0.563,0.447-0.842C91.774,71.167,92.052,70.601,92.313,70.04z
		 M75.703,66.096c-4.957,0-8.975-4.017-8.975-8.972c0-4.954,4.018-8.972,8.975-8.972c4.955,0,8.971,4.018,8.971,8.972
		C84.674,62.079,80.658,66.096,75.703,66.096z"/>
</g>
<g id="ico_x5F_map_x5F_lg_2_">
	<path d="M29.114,25.75c0.083-0.174,0.155-0.348,0.233-0.522c0.131-0.295,0.262-0.589,0.381-0.883
		c0.075-0.185,0.148-0.369,0.221-0.553c0.117-0.3,0.226-0.6,0.329-0.897c0.056-0.158,0.114-0.314,0.165-0.471
		c0.145-0.44,0.277-0.879,0.391-1.314c0.023-0.092,0.042-0.184,0.062-0.278c0.09-0.356,0.17-0.712,0.236-1.066
		c0.027-0.145,0.052-0.291,0.075-0.436c0.052-0.315,0.095-0.629,0.128-0.942c0.017-0.135,0.033-0.269,0.043-0.404
		c0.038-0.436,0.062-0.871,0.062-1.303l-0.056-0.054c0.024-0.354,0.056-0.708,0.056-1.068c0-0.465-0.025-0.922-0.07-1.375
		c-0.016-0.155-0.043-0.306-0.064-0.46c-0.039-0.293-0.076-0.586-0.133-0.873c-0.037-0.186-0.086-0.365-0.129-0.547
		c-0.061-0.249-0.117-0.497-0.189-0.741c-0.059-0.196-0.129-0.386-0.195-0.579c-0.076-0.219-0.152-0.437-0.238-0.65
		c-0.082-0.203-0.172-0.4-0.262-0.6c-0.089-0.191-0.18-0.381-0.273-0.568c-0.107-0.206-0.221-0.41-0.338-0.611
		c-0.096-0.165-0.193-0.326-0.295-0.485C29.12,7.857,28.98,7.65,28.836,7.447c-0.096-0.134-0.195-0.264-0.296-0.394
		c-0.166-0.218-0.335-0.431-0.514-0.637c-0.085-0.099-0.175-0.193-0.265-0.291c-0.205-0.224-0.412-0.444-0.632-0.655
		c-0.06-0.057-0.122-0.109-0.182-0.166c-2.064-1.914-4.7-3.208-7.632-3.602c-0.002,0-0.006-0.002-0.006-0.002
		c-0.613-0.081-1.232-0.138-1.868-0.138h-0.13h-0.041h-1.708h-0.171c-0.428,0-0.848,0.026-1.262,0.063
		c-0.39,0.035-0.771,0.092-1.152,0.158c-0.064,0.012-0.133,0.019-0.199,0.03c-0.344,0.065-0.684,0.15-1.02,0.24
		c-0.095,0.027-0.192,0.046-0.287,0.074c-0.313,0.091-0.619,0.199-0.922,0.311c-0.113,0.042-0.226,0.08-0.338,0.124
		c-0.285,0.113-0.561,0.24-0.836,0.371C9.254,2.995,9.129,3.051,9.01,3.113C8.751,3.246,8.5,3.389,8.252,3.537
		C8.121,3.614,7.994,3.689,7.865,3.771C7.633,3.92,7.408,4.076,7.184,4.238C7.053,4.334,6.922,4.431,6.792,4.531
		c-0.206,0.162-0.41,0.33-0.606,0.503C6.053,5.15,5.922,5.269,5.795,5.39C5.611,5.563,5.433,5.738,5.258,5.922
		C5.129,6.058,5.004,6.197,4.879,6.338C4.721,6.519,4.562,6.703,4.414,6.894C4.291,7.05,4.172,7.21,4.057,7.374
		C3.92,7.561,3.785,7.749,3.658,7.942C3.541,8.121,3.437,8.306,3.326,8.488C3.215,8.679,3.102,8.869,2.998,9.066
		c-0.105,0.2-0.199,0.405-0.295,0.61c-0.088,0.193-0.182,0.383-0.262,0.58c-0.092,0.223-0.17,0.451-0.249,0.679
		c-0.065,0.191-0.138,0.379-0.196,0.574c-0.076,0.248-0.135,0.503-0.197,0.758c-0.043,0.183-0.095,0.362-0.131,0.547
		c-0.059,0.293-0.096,0.591-0.137,0.89c-0.02,0.155-0.051,0.306-0.066,0.461c-0.046,0.459-0.07,0.924-0.07,1.394
		c0,0.36,0.029,0.714,0.057,1.068l-0.057,0.054c0,0.432,0.024,0.867,0.062,1.303c0.01,0.135,0.027,0.272,0.043,0.408
		c0.033,0.311,0.075,0.623,0.127,0.935c0.025,0.149,0.049,0.297,0.077,0.446c0.065,0.344,0.143,0.689,0.228,1.035
		c0.026,0.105,0.046,0.207,0.074,0.31c0.113,0.435,0.244,0.873,0.388,1.313c0.053,0.156,0.11,0.315,0.167,0.473
		c0.102,0.296,0.211,0.592,0.326,0.89c0.073,0.19,0.15,0.38,0.229,0.572c0.115,0.278,0.236,0.558,0.363,0.84
		c0.084,0.189,0.165,0.377,0.254,0.568c0.199,0.425,0.408,0.852,0.627,1.284c0.116,0.225,0.242,0.455,0.363,0.682
		c0.127,0.239,0.254,0.477,0.389,0.716c0.146,0.261,0.294,0.523,0.445,0.787c0.116,0.204,0.238,0.406,0.358,0.609
		c0.169,0.286,0.339,0.571,0.515,0.858c0.076,0.123,0.156,0.246,0.233,0.369c0.44,0.707,0.901,1.421,1.383,2.145
		c0.027,0.041,0.054,0.081,0.081,0.122c0.262,0.391,0.53,0.786,0.805,1.181c0.047,0.07,0.097,0.141,0.145,0.21
		c1.756,2.536,3.727,5.179,5.84,7.962c0.107,0.339,0.73,0.603,1.496,0.603c0.764,0,1.391-0.265,1.496-0.608h0.012l-0.008,0.013
		c2.109-2.774,4.074-5.41,5.826-7.939c0.088-0.127,0.176-0.253,0.263-0.38c0.237-0.347,0.475-0.693,0.702-1.037
		c0.096-0.139,0.186-0.278,0.277-0.417c0.391-0.59,0.768-1.175,1.129-1.753c0.109-0.175,0.223-0.35,0.328-0.522
		c0.162-0.265,0.316-0.526,0.472-0.788c0.135-0.227,0.269-0.454,0.399-0.679c0.143-0.247,0.282-0.493,0.416-0.737
		c0.143-0.255,0.279-0.509,0.413-0.763c0.116-0.215,0.233-0.431,0.343-0.644C28.703,26.611,28.914,26.179,29.114,25.75z
		 M16.418,22.736c-3.789,0-6.861-3.071-6.861-6.858c0-3.787,3.072-6.857,6.861-6.857c3.787,0,6.857,3.071,6.857,6.857
		C23.275,19.665,20.205,22.736,16.418,22.736z"/>
</g>
<path d="M77.518,38.198"/>
<path fill="none" stroke="#000000" stroke-width="4" stroke-linecap="round" stroke-miterlimit="10" stroke-dasharray="6,11" d="
	M21.5,45.881c0.001,0,23.5-5.381,19.37,20.737C37.175,89.986,64,91,64,91"/>
</svg>
