<?xml version="1.0" encoding="utf-8"?>
<!-- Generator: Adobe Illustrator 16.0.4, SVG Export Plug-In . SVG Version: 6.00 Build 0)  -->
<!DOCTYPE svg PUBLIC "-//W3C//DTD SVG 1.1//EN" "http://www.w3.org/Graphics/SVG/1.1/DTD/svg11.dtd">
<svg  class="control-icon" version="1.1" id="Layer_1" xmlns="http://www.w3.org/2000/svg" xmlns:xlink="http://www.w3.org/1999/xlink" x="0px" y="0px"
	 width="96px" height="96px" viewBox="0 0 96 96" enable-background="new 0 0 96 96" xml:space="preserve" style="fill:#575757">
<g id="Shape_26_copy">
	<g>
		<path d="M43.845,66.478c0-0.733,0.056-1.49,0.163-2.251c0.155-1.077-0.572-2.078-1.621-2.235
			c-1.048-0.156-2.025,0.587-2.178,1.664c-0.137,0.95-0.206,1.899-0.206,2.822c0,1.262,0.128,2.52,0.378,3.74
			c0.19,0.928,0.989,1.564,1.878,1.564c0.13,0,0.264-0.014,0.397-0.042c1.039-0.225,1.702-1.271,1.483-2.335
			C43.946,68.451,43.845,67.466,43.845,66.478z M43.452,15.373c-0.569-0.918-1.755-1.192-2.65-0.607
			c-2.858,1.86-4.812,3.579-4.895,3.651c-0.804,0.709-0.894,1.953-0.204,2.778c0.38,0.453,0.917,0.686,1.458,0.686
			c0.443,0,0.887-0.155,1.25-0.475c0.019-0.017,1.84-1.614,4.447-3.312C43.752,17.509,44.019,16.292,43.452,15.373z M48.676,77.885
			c-0.711-0.807-1.924-0.872-2.712-0.142c-0.787,0.729-0.849,1.975-0.138,2.783c1.257,1.43,2.746,2.858,4.42,4.244
			c0.354,0.292,0.781,0.436,1.203,0.436c0.56,0,1.118-0.251,1.498-0.734c0.663-0.847,0.534-2.087-0.291-2.77
			C51.138,80.446,49.798,79.162,48.676,77.885z M47.58,54.93c0.859-1.47,1.88-3.023,3.118-4.749c0.63-0.876,0.448-2.11-0.404-2.756
			c-0.857-0.647-2.059-0.459-2.685,0.418c-1.314,1.826-2.399,3.481-3.322,5.059c-0.546,0.934-0.252,2.144,0.657,2.703
			c0.31,0.19,0.649,0.282,0.987,0.282C46.583,55.887,47.219,55.545,47.58,54.93z M66.045,19.935
			c-0.331-1.031-1.411-1.597-2.425-1.257c-1.009,0.339-1.557,1.454-1.227,2.488c0.236,0.73,0.35,1.47,0.35,2.262
			c0,0.764-0.111,1.584-0.329,2.437c-0.271,1.052,0.34,2.13,1.365,2.407c0.164,0.045,0.327,0.065,0.492,0.065
			c0.851,0,1.627-0.584,1.854-1.469c0.304-1.179,0.457-2.337,0.457-3.44C66.583,22.229,66.401,21.053,66.045,19.935z M60.402,34.255
			c-0.854-0.646-2.059-0.456-2.686,0.418c-1.146,1.593-2.409,3.218-3.493,4.597c-0.668,0.846-0.538,2.087,0.287,2.771
			c0.354,0.295,0.781,0.437,1.206,0.437c0.56,0,1.114-0.25,1.495-0.732c1.11-1.413,2.409-3.08,3.597-4.736
			C61.438,36.133,61.254,34.9,60.402,34.255z M57.133,14.816c0.715,0,1.401-0.407,1.731-1.114c0.46-0.981,0.057-2.153-0.899-2.625
			c-1.342-0.66-2.857-0.986-4.502-0.986c-0.704,0.039-1.491,0.085-2.273,0.214c-1.047,0.174-1.758,1.226-1.59,2.298
			c0.17,1.074,1.151,1.878,2.202,1.709c0.577-0.095,1.133,0.014,1.653,0.014h0.006c1.066,0,2.022,0.047,2.843,0.45
			C56.571,14.911,56.854,14.816,57.133,14.816z"/>
	</g>
</g>
<g id="ico_x5F_map_x5F_lg">
	<path d="M92.313,72.04c0.107-0.228,0.203-0.455,0.305-0.682c0.173-0.387,0.341-0.772,0.498-1.156
		c0.1-0.242,0.195-0.482,0.289-0.723c0.153-0.393,0.295-0.785,0.432-1.175c0.072-0.206,0.147-0.411,0.215-0.616
		c0.188-0.576,0.361-1.149,0.511-1.719c0.03-0.121,0.055-0.242,0.084-0.363c0.115-0.466,0.22-0.932,0.308-1.394
		c0.036-0.191,0.066-0.381,0.098-0.571c0.068-0.413,0.124-0.823,0.168-1.232c0.021-0.176,0.042-0.353,0.057-0.529
		c0.049-0.57,0.081-1.139,0.081-1.704l-0.073-0.071c0.034-0.462,0.073-0.927,0.073-1.397c0-0.608-0.034-1.206-0.091-1.798
		c-0.021-0.204-0.058-0.401-0.085-0.603c-0.051-0.384-0.101-0.767-0.175-1.142c-0.046-0.243-0.111-0.478-0.169-0.715
		c-0.078-0.325-0.153-0.651-0.248-0.97c-0.075-0.257-0.167-0.505-0.254-0.758c-0.1-0.287-0.199-0.572-0.312-0.85
		c-0.107-0.266-0.226-0.525-0.344-0.785c-0.116-0.25-0.233-0.499-0.358-0.743c-0.139-0.271-0.288-0.537-0.44-0.8
		c-0.125-0.215-0.252-0.427-0.386-0.636c-0.176-0.277-0.357-0.547-0.547-0.814c-0.126-0.174-0.255-0.345-0.387-0.515
		c-0.218-0.285-0.439-0.563-0.673-0.833c-0.111-0.129-0.229-0.253-0.346-0.38c-0.269-0.293-0.541-0.583-0.827-0.857
		c-0.077-0.075-0.158-0.144-0.237-0.216c-2.701-2.504-6.149-4.198-9.983-4.713c-0.004-0.001-0.008-0.002-0.008-0.002
		c-0.804-0.106-1.614-0.181-2.444-0.181h-0.172h-0.053h-2.234h-0.224c-0.559,0-1.108,0.034-1.652,0.083
		c-0.508,0.046-1.007,0.121-1.504,0.207c-0.086,0.015-0.176,0.024-0.263,0.04c-0.45,0.086-0.893,0.197-1.333,0.314
		c-0.125,0.035-0.253,0.061-0.376,0.097c-0.411,0.12-0.81,0.261-1.207,0.407c-0.147,0.054-0.295,0.104-0.441,0.162
		c-0.371,0.148-0.733,0.314-1.094,0.485c-0.161,0.078-0.323,0.15-0.48,0.232c-0.338,0.173-0.667,0.361-0.991,0.555
		c-0.17,0.1-0.338,0.199-0.504,0.304c-0.305,0.195-0.601,0.4-0.893,0.612c-0.172,0.125-0.344,0.252-0.513,0.383
		c-0.271,0.211-0.536,0.432-0.795,0.659c-0.173,0.152-0.344,0.307-0.511,0.464c-0.24,0.227-0.474,0.456-0.701,0.696
		c-0.17,0.178-0.333,0.36-0.496,0.544c-0.208,0.237-0.413,0.478-0.609,0.727c-0.161,0.204-0.315,0.415-0.468,0.628
		c-0.179,0.245-0.355,0.491-0.521,0.745c-0.152,0.233-0.291,0.474-0.434,0.713c-0.146,0.25-0.294,0.5-0.43,0.757
		c-0.139,0.262-0.261,0.53-0.386,0.799c-0.116,0.252-0.238,0.501-0.342,0.759c-0.12,0.291-0.222,0.59-0.326,0.888
		c-0.087,0.25-0.181,0.495-0.258,0.75c-0.098,0.326-0.175,0.66-0.257,0.992c-0.057,0.239-0.124,0.473-0.172,0.716
		c-0.076,0.383-0.126,0.774-0.179,1.165c-0.026,0.202-0.066,0.4-0.086,0.603c-0.061,0.6-0.093,1.208-0.093,1.823
		c0,0.471,0.039,0.935,0.072,1.397l-0.072,0.071c0,0.565,0.032,1.134,0.08,1.705c0.015,0.177,0.037,0.356,0.057,0.534
		c0.044,0.407,0.1,0.814,0.168,1.223c0.032,0.194,0.062,0.388,0.101,0.583c0.084,0.45,0.187,0.902,0.299,1.355
		c0.032,0.136,0.059,0.27,0.096,0.405c0.147,0.567,0.319,1.141,0.508,1.717c0.067,0.205,0.144,0.413,0.217,0.62
		c0.135,0.387,0.277,0.774,0.427,1.165c0.097,0.248,0.196,0.497,0.3,0.747c0.15,0.365,0.31,0.731,0.475,1.099
		c0.11,0.248,0.217,0.495,0.333,0.744c0.26,0.556,0.533,1.115,0.82,1.679c0.152,0.294,0.316,0.595,0.475,0.893
		c0.166,0.312,0.333,0.624,0.508,0.937c0.19,0.341,0.386,0.685,0.584,1.029c0.152,0.266,0.311,0.531,0.468,0.798
		c0.223,0.374,0.444,0.747,0.675,1.123c0.1,0.16,0.203,0.322,0.305,0.482c0.576,0.924,1.179,1.859,1.81,2.806
		c0.036,0.053,0.07,0.107,0.106,0.16c0.342,0.511,0.693,1.028,1.051,1.546c0.063,0.091,0.127,0.183,0.189,0.274
		c2.297,3.317,4.874,6.775,7.64,10.417C73.88,94.655,74.695,95,75.695,95s1.82-0.346,1.957-0.795h0.017l-0.011,0.017
		c2.759-3.63,5.329-7.078,7.622-10.388c0.114-0.166,0.229-0.332,0.343-0.497c0.312-0.454,0.621-0.907,0.921-1.356
		c0.123-0.182,0.24-0.363,0.361-0.546c0.511-0.772,1.003-1.537,1.477-2.293c0.145-0.228,0.291-0.458,0.43-0.683
		c0.212-0.346,0.414-0.688,0.616-1.03c0.178-0.296,0.353-0.593,0.522-0.888c0.187-0.323,0.369-0.645,0.546-0.964
		c0.186-0.334,0.364-0.666,0.54-0.998c0.15-0.281,0.305-0.563,0.447-0.842C91.774,73.167,92.052,72.601,92.313,72.04z
		 M75.703,68.096c-4.957,0-8.975-4.017-8.975-8.972c0-4.954,4.018-8.972,8.975-8.972c4.955,0,8.971,4.018,8.971,8.972
		C84.674,64.079,80.658,68.096,75.703,68.096z"/>
</g>
<g id="ico_x5F_map_x5F_lg_1_">
	<path d="M29.114,27.75c0.083-0.174,0.156-0.348,0.233-0.522c0.132-0.295,0.262-0.589,0.381-0.883
		c0.075-0.185,0.149-0.369,0.221-0.553c0.117-0.3,0.225-0.6,0.329-0.897c0.056-0.158,0.114-0.314,0.165-0.471
		c0.145-0.44,0.277-0.879,0.391-1.314c0.023-0.092,0.042-0.184,0.063-0.278c0.089-0.356,0.169-0.712,0.236-1.066
		c0.027-0.145,0.051-0.291,0.075-0.436c0.051-0.315,0.095-0.629,0.127-0.942c0.017-0.135,0.033-0.269,0.044-0.404
		c0.038-0.436,0.062-0.871,0.062-1.303l-0.055-0.054c0.025-0.354,0.055-0.708,0.055-1.068c0-0.465-0.025-0.922-0.069-1.375
		c-0.016-0.155-0.043-0.306-0.064-0.46c-0.039-0.293-0.076-0.586-0.134-0.873c-0.036-0.186-0.085-0.365-0.129-0.547
		c-0.06-0.249-0.117-0.497-0.189-0.741c-0.059-0.196-0.128-0.386-0.195-0.579c-0.075-0.219-0.152-0.437-0.237-0.65
		c-0.083-0.203-0.173-0.4-0.263-0.6c-0.088-0.191-0.179-0.381-0.273-0.568c-0.106-0.206-0.221-0.41-0.338-0.611
		c-0.095-0.165-0.193-0.326-0.294-0.485C29.12,9.857,28.98,9.65,28.836,9.447c-0.096-0.134-0.196-0.264-0.296-0.394
		c-0.166-0.218-0.335-0.431-0.514-0.637c-0.085-0.099-0.175-0.193-0.265-0.291c-0.205-0.224-0.413-0.444-0.632-0.655
		c-0.059-0.057-0.122-0.109-0.182-0.166c-2.064-1.914-4.7-3.208-7.631-3.602c-0.003,0-0.006-0.002-0.006-0.002
		c-0.614-0.081-1.233-0.138-1.869-0.138h-0.13h-0.041h-1.708h-0.171c-0.427,0-0.847,0.026-1.262,0.063
		c-0.389,0.035-0.771,0.092-1.151,0.158c-0.064,0.012-0.133,0.019-0.199,0.03c-0.344,0.065-0.684,0.15-1.021,0.24
		c-0.094,0.027-0.192,0.046-0.287,0.074c-0.313,0.091-0.619,0.199-0.922,0.311c-0.113,0.042-0.226,0.08-0.338,0.124
		c-0.285,0.113-0.561,0.24-0.835,0.371c-0.123,0.06-0.249,0.115-0.368,0.177C8.751,5.246,8.5,5.389,8.252,5.537
		c-0.13,0.077-0.258,0.152-0.386,0.233C7.633,5.92,7.408,6.076,7.184,6.238C7.053,6.334,6.921,6.431,6.792,6.531
		c-0.206,0.162-0.41,0.33-0.606,0.503C6.053,7.15,5.922,7.269,5.794,7.39C5.611,7.563,5.433,7.738,5.258,7.922
		C5.129,8.058,5.004,8.197,4.879,8.338C4.721,8.519,4.562,8.703,4.414,8.894C4.291,9.05,4.172,9.21,4.057,9.374
		C3.92,9.561,3.785,9.749,3.659,9.942c-0.118,0.179-0.222,0.363-0.332,0.545c-0.111,0.191-0.225,0.381-0.329,0.579
		c-0.105,0.2-0.199,0.405-0.295,0.61c-0.088,0.193-0.182,0.383-0.261,0.58c-0.092,0.223-0.17,0.451-0.25,0.679
		c-0.066,0.191-0.138,0.379-0.197,0.574c-0.075,0.248-0.134,0.503-0.197,0.758c-0.043,0.183-0.094,0.362-0.13,0.547
		c-0.059,0.293-0.096,0.591-0.137,0.89c-0.02,0.155-0.051,0.306-0.066,0.461c-0.046,0.459-0.07,0.924-0.07,1.394
		c0,0.36,0.029,0.714,0.056,1.068l-0.056,0.054c0,0.432,0.024,0.867,0.062,1.303c0.01,0.135,0.028,0.272,0.043,0.408
		c0.033,0.311,0.075,0.623,0.127,0.935c0.024,0.149,0.048,0.297,0.077,0.446c0.065,0.344,0.143,0.689,0.228,1.035
		c0.026,0.105,0.045,0.207,0.074,0.31c0.113,0.435,0.243,0.873,0.387,1.313c0.053,0.156,0.11,0.315,0.167,0.473
		c0.102,0.296,0.211,0.592,0.326,0.89c0.074,0.19,0.15,0.38,0.229,0.572c0.116,0.278,0.237,0.558,0.364,0.84
		c0.083,0.189,0.165,0.377,0.253,0.568c0.2,0.425,0.409,0.852,0.628,1.284c0.116,0.225,0.242,0.455,0.362,0.682
		c0.128,0.239,0.255,0.477,0.389,0.716c0.146,0.261,0.294,0.523,0.446,0.787c0.116,0.204,0.237,0.406,0.358,0.609
		c0.169,0.286,0.339,0.571,0.515,0.858c0.076,0.123,0.156,0.246,0.233,0.369c0.44,0.707,0.901,1.421,1.383,2.145
		c0.027,0.041,0.054,0.081,0.082,0.122c0.261,0.391,0.53,0.786,0.804,1.181c0.048,0.07,0.097,0.141,0.145,0.21
		c1.756,2.536,3.727,5.179,5.84,7.962c0.108,0.339,0.731,0.603,1.497,0.603c0.764,0,1.391-0.265,1.496-0.608h0.012l-0.008,0.013
		c2.109-2.774,4.074-5.41,5.825-7.939c0.089-0.127,0.176-0.253,0.263-0.38c0.237-0.347,0.475-0.693,0.703-1.037
		c0.095-0.139,0.185-0.278,0.277-0.417c0.39-0.59,0.767-1.175,1.129-1.753c0.109-0.175,0.222-0.35,0.328-0.522
		c0.162-0.265,0.317-0.526,0.472-0.788c0.135-0.227,0.269-0.454,0.399-0.679c0.143-0.247,0.283-0.493,0.417-0.737
		c0.143-0.255,0.279-0.509,0.413-0.763c0.116-0.215,0.233-0.431,0.343-0.644C28.703,28.611,28.914,28.179,29.114,27.75z
		 M16.418,24.736c-3.789,0-6.861-3.071-6.861-6.858c0-3.787,3.072-6.857,6.861-6.857c3.787,0,6.857,3.071,6.857,6.857
		C23.275,21.665,20.205,24.736,16.418,24.736z"/>
</g>
</svg>
