<?xml version="1.0" encoding="iso-8859-1"?>
<!-- Generator: Adobe Illustrator 15.0.2, SVG Export Plug-In . SVG Version: 6.00 Build 0)  -->
<!DOCTYPE svg PUBLIC "-//W3C//DTD SVG 1.1//EN" "http://www.w3.org/Graphics/SVG/1.1/DTD/svg11.dtd">
<svg class="control-icon" version="1.1" id="Layer_1" xmlns="http://www.w3.org/2000/svg" xmlns:xlink="http://www.w3.org/1999/xlink" x="0px" y="0px"
	 width="24px" height="24.101px" viewBox="0 0 24 24.101" style="enable-background:new 0 0 24 24.101;" xml:space="preserve">
<g id="ico_x5F_map_x5F_sm">
	<path d="M23.517,0.023l-5.954,1.904c-0.266,0.085-0.483,0.382-0.483,0.661l-0.017,20.636c0,0.279,0.218,0.438,0.483,0.354
		l5.971-1.902C23.782,21.591,24,21.293,24,21.014V0.376C24,0.097,23.782-0.062,23.517,0.023z"/>
	<path d="M11.482,19.054c0.023-0.05,0.044-0.1,0.066-0.149c0.038-0.085,0.074-0.17,0.109-0.254c0.021-0.054,0.043-0.106,0.063-0.159
		c0.034-0.086,0.065-0.172,0.095-0.258c0.016-0.045,0.033-0.091,0.047-0.136c0.042-0.126,0.08-0.253,0.113-0.378
		c0.006-0.026,0.012-0.053,0.018-0.08c0.025-0.102,0.049-0.204,0.068-0.306c0.008-0.042,0.014-0.084,0.021-0.126
		c0.015-0.09,0.027-0.181,0.037-0.271c0.004-0.039,0.009-0.077,0.012-0.116c0.011-0.125,0.018-0.25,0.018-0.375l-0.016-0.016
		c0.008-0.102,0.016-0.203,0.016-0.307c0-0.134-0.007-0.266-0.02-0.396c-0.005-0.044-0.013-0.088-0.019-0.132
		c-0.011-0.085-0.022-0.169-0.038-0.252c-0.011-0.053-0.025-0.104-0.037-0.156c-0.018-0.072-0.034-0.144-0.055-0.213
		c-0.018-0.057-0.037-0.111-0.057-0.167c-0.021-0.063-0.043-0.126-0.068-0.187c-0.023-0.059-0.049-0.115-0.075-0.173
		c-0.025-0.055-0.052-0.109-0.079-0.163c-0.03-0.06-0.062-0.118-0.097-0.176c-0.027-0.047-0.056-0.094-0.085-0.14
		c-0.038-0.062-0.078-0.12-0.12-0.179c-0.027-0.039-0.056-0.076-0.085-0.113c-0.047-0.062-0.096-0.124-0.147-0.184
		c-0.024-0.028-0.051-0.056-0.076-0.083c-0.059-0.064-0.118-0.128-0.182-0.188c-0.017-0.017-0.035-0.031-0.052-0.048
		c-0.594-0.55-1.352-0.923-2.194-1.035L8.662,12.14c-0.176-0.023-0.354-0.039-0.536-0.039H8.088H8.076h-0.49h-0.05
		c-0.122,0-0.243,0.007-0.362,0.018c-0.112,0.01-0.222,0.027-0.331,0.046c-0.019,0.003-0.038,0.005-0.058,0.009
		c-0.1,0.019-0.196,0.043-0.293,0.068c-0.027,0.008-0.056,0.014-0.083,0.021c-0.09,0.026-0.178,0.058-0.265,0.09
		c-0.032,0.012-0.065,0.022-0.098,0.035c-0.081,0.033-0.161,0.069-0.24,0.107c-0.035,0.017-0.07,0.033-0.105,0.051
		c-0.074,0.038-0.146,0.079-0.218,0.122c-0.037,0.021-0.074,0.044-0.11,0.066c-0.067,0.043-0.133,0.088-0.196,0.135
		c-0.038,0.027-0.075,0.056-0.112,0.084C5.004,13,4.946,13.048,4.889,13.099c-0.037,0.033-0.075,0.066-0.111,0.102
		c-0.053,0.05-0.104,0.101-0.154,0.153c-0.037,0.039-0.073,0.079-0.109,0.119c-0.046,0.053-0.091,0.105-0.134,0.16
		c-0.036,0.045-0.069,0.091-0.103,0.138c-0.039,0.054-0.078,0.107-0.115,0.164c-0.033,0.051-0.063,0.104-0.095,0.156
		c-0.032,0.055-0.064,0.109-0.095,0.166c-0.03,0.058-0.057,0.117-0.084,0.176c-0.026,0.056-0.053,0.11-0.076,0.167
		c-0.025,0.063-0.048,0.13-0.071,0.195c-0.019,0.055-0.04,0.108-0.057,0.165c-0.021,0.071-0.038,0.145-0.056,0.218
		c-0.014,0.052-0.027,0.104-0.039,0.157c-0.016,0.084-0.027,0.17-0.039,0.256c-0.006,0.045-0.014,0.088-0.019,0.133
		c-0.013,0.132-0.021,0.266-0.021,0.4c0,0.104,0.009,0.205,0.016,0.307l-0.016,0.016c0,0.125,0.008,0.25,0.018,0.375
		c0.004,0.039,0.009,0.078,0.013,0.117c0.01,0.09,0.022,0.18,0.037,0.27c0.007,0.042,0.014,0.085,0.022,0.128
		c0.018,0.099,0.04,0.198,0.064,0.298c0.008,0.029,0.014,0.059,0.021,0.089c0.033,0.124,0.07,0.251,0.111,0.377
		c0.016,0.045,0.032,0.091,0.048,0.136c0.03,0.086,0.062,0.171,0.095,0.256c0.021,0.055,0.043,0.109,0.065,0.165
		c0.033,0.08,0.067,0.16,0.104,0.241c0.023,0.055,0.047,0.108,0.072,0.164c0.058,0.121,0.117,0.244,0.181,0.368
		c0.034,0.065,0.069,0.131,0.104,0.196c0.037,0.068,0.073,0.137,0.111,0.206c0.042,0.075,0.085,0.15,0.129,0.226
		c0.033,0.059,0.068,0.117,0.103,0.176c0.049,0.082,0.098,0.164,0.148,0.246c0.021,0.035,0.044,0.071,0.066,0.106
		c0.127,0.203,0.259,0.409,0.398,0.616c0.008,0.012,0.015,0.023,0.022,0.035c0.076,0.113,0.153,0.227,0.231,0.34
		c0.014,0.021,0.028,0.041,0.042,0.061c0.504,0.729,1.07,1.489,1.679,2.289c0.031,0.098,0.21,0.174,0.431,0.174
		c0.22,0,0.399-0.076,0.43-0.176h0.004l-0.003,0.004c0.606-0.797,1.171-1.555,1.675-2.282c0.025-0.036,0.051-0.073,0.076-0.109
		c0.068-0.1,0.137-0.199,0.202-0.298c0.026-0.04,0.053-0.08,0.079-0.12c0.112-0.17,0.221-0.338,0.325-0.504
		c0.031-0.05,0.063-0.101,0.094-0.15c0.047-0.076,0.091-0.151,0.136-0.227c0.039-0.065,0.077-0.13,0.115-0.195
		c0.041-0.07,0.08-0.142,0.119-0.212c0.041-0.073,0.08-0.146,0.119-0.219c0.033-0.062,0.066-0.124,0.098-0.186
		C11.363,19.302,11.424,19.178,11.482,19.054z M7.831,18.188c-1.089,0-1.972-0.883-1.972-1.972s0.883-1.972,1.972-1.972
		s1.972,0.883,1.972,1.972S8.92,18.188,7.831,18.188z"/>
	<path d="M2.012,16.125v-0.306l0.009-0.009c0.157-2.779,2.081-5.01,4.854-5.191L6.947,0.49c0-0.279-0.223-0.455-0.494-0.391
		L0.494,1.522C0.223,1.586,0,1.867,0,2.146v21.216c0,0.279,0.218,0.438,0.484,0.355l3.984-1.254c-1.47-2.13-2.457-4.058-2.457-6.017
		V16.125z"/>
	<path d="M14.579,1.923L9.406,0.271C9.141,0.187,8.922,0.346,8.922,0.625v10.001c2.693,0.261,4.566,2.462,4.72,5.184l0.009,0.009
		v0.306v0.322c0,1.953-0.981,3.876-2.443,5.998l3.387,1.107c0.266,0.085,0.482-0.074,0.482-0.354L15.062,2.583
		C15.062,2.304,14.846,2.007,14.579,1.923z"/>
</g>
</svg>
