<?xml version="1.0" encoding="utf-8"?>
<!-- Generator: Adobe Illustrator 16.0.4, SVG Export Plug-In . SVG Version: 6.00 Build 0)  -->
<!DOCTYPE svg PUBLIC "-//W3C//DTD SVG 1.1//EN" "http://www.w3.org/Graphics/SVG/1.1/DTD/svg11.dtd">
<svg  class="control-icon" version="1.1" id="Layer_1" xmlns="http://www.w3.org/2000/svg" xmlns:xlink="http://www.w3.org/1999/xlink" x="0px" y="0px"
	 width="96px" height="96px" viewBox="0 0 96 96" enable-background="new 0 0 96 96" xml:space="preserve">
<g id="Shape_15_2_">
	<g>
		<path d="M80.954,32.527c0-1.046-0.059-2.077-0.162-3.096c-0.035-0.35-0.103-0.69-0.15-1.036c-0.089-0.661-0.179-1.321-0.311-1.967
			c-0.083-0.417-0.198-0.821-0.3-1.229c-0.139-0.56-0.274-1.121-0.444-1.669c-0.134-0.442-0.297-0.87-0.452-1.304
			c-0.178-0.493-0.354-0.984-0.554-1.464c-0.192-0.457-0.403-0.902-0.614-1.349c-0.205-0.43-0.416-0.859-0.639-1.28
			c-0.248-0.466-0.513-0.923-0.783-1.376c-0.222-0.37-0.45-0.734-0.688-1.094c-0.315-0.476-0.638-0.943-0.976-1.4
			c-0.223-0.301-0.453-0.594-0.686-0.887c-0.389-0.489-0.786-0.969-1.202-1.433c-0.199-0.223-0.408-0.436-0.614-0.654
			c-0.479-0.504-0.964-1.002-1.475-1.477c-0.138-0.127-0.284-0.247-0.424-0.37c-4.812-4.309-10.957-7.225-17.786-8.11
			c-0.008,0-0.014-0.003-0.014-0.003c-1.432-0.184-2.878-0.312-4.356-0.312h-4.78c-0.994,0-1.974,0.06-2.944,0.143
			c-0.906,0.079-1.795,0.209-2.68,0.356c-0.154,0.027-0.312,0.042-0.468,0.068c-0.803,0.148-1.591,0.339-2.374,0.542
			c-0.224,0.059-0.452,0.104-0.671,0.166c-0.731,0.207-1.444,0.449-2.151,0.701c-0.261,0.093-0.526,0.179-0.785,0.278
			c-0.663,0.255-1.309,0.541-1.952,0.836c-0.285,0.132-0.574,0.258-0.855,0.398c-0.601,0.298-1.188,0.622-1.765,0.956
			c-0.301,0.172-0.602,0.342-0.897,0.523c-0.542,0.337-1.071,0.688-1.589,1.053c-0.309,0.216-0.614,0.436-0.915,0.66
			c-0.483,0.365-0.956,0.744-1.417,1.134c-0.31,0.262-0.611,0.527-0.912,0.799c-0.427,0.39-0.842,0.785-1.248,1.199
			c-0.303,0.305-0.595,0.62-0.883,0.936c-0.373,0.409-0.737,0.822-1.088,1.25c-0.288,0.352-0.561,0.715-0.834,1.081
			c-0.317,0.422-0.632,0.845-0.926,1.282c-0.27,0.401-0.519,0.815-0.772,1.227c-0.261,0.43-0.524,0.859-0.765,1.302
			c-0.247,0.449-0.464,0.913-0.688,1.375c-0.208,0.435-0.423,0.862-0.609,1.306c-0.213,0.501-0.394,1.015-0.58,1.528
			c-0.157,0.43-0.323,0.853-0.461,1.291c-0.175,0.56-0.312,1.136-0.456,1.707c-0.103,0.411-0.222,0.814-0.308,1.23
			c-0.135,0.66-0.225,1.334-0.317,2.006c-0.048,0.349-0.119,0.688-0.154,1.039c-0.107,1.032-0.165,2.078-0.165,3.138
			c0,0.81,0.069,1.609,0.128,2.404l-0.128,0.123c0,0.974,0.058,1.952,0.143,2.934c0.025,0.304,0.067,0.611,0.102,0.918
			c0.079,0.699,0.178,1.401,0.299,2.105c0.057,0.334,0.112,0.666,0.179,1.003c0.151,0.773,0.331,1.553,0.531,2.332
			c0.059,0.233,0.106,0.463,0.17,0.696c0.265,0.977,0.57,1.963,0.906,2.954c0.121,0.354,0.258,0.71,0.387,1.067
			c0.242,0.666,0.492,1.332,0.762,2.003c0.173,0.429,0.348,0.857,0.533,1.286c0.269,0.628,0.552,1.258,0.845,1.891
			c0.198,0.428,0.386,0.852,0.594,1.282c0.463,0.956,0.95,1.916,1.462,2.885c0.271,0.509,0.564,1.025,0.846,1.54
			c0.296,0.534,0.593,1.072,0.904,1.609c0.338,0.586,0.687,1.178,1.041,1.77c0.271,0.458,0.551,0.913,0.833,1.375
			c0.396,0.641,0.792,1.285,1.204,1.931c0.176,0.277,0.36,0.554,0.542,0.832c1.026,1.592,2.099,3.199,3.225,4.828
			c0.063,0.092,0.124,0.183,0.188,0.275c0.609,0.879,1.237,1.768,1.873,2.659c0.113,0.156,0.225,0.315,0.338,0.474
			c4.091,5.707,8.683,11.659,13.612,17.923c0.253,0.765,1.705,1.357,3.487,1.357c1.784,0,3.245-0.597,3.488-1.37h0.029l-0.02,0.033
			c4.915-6.249,9.495-12.182,13.58-17.878c0.207-0.285,0.411-0.57,0.611-0.854c0.557-0.78,1.106-1.563,1.642-2.333
			c0.217-0.314,0.428-0.626,0.643-0.94c0.911-1.327,1.787-2.645,2.633-3.947c0.255-0.391,0.516-0.787,0.763-1.176
			c0.379-0.595,0.739-1.184,1.099-1.773c0.317-0.51,0.628-1.02,0.931-1.527c0.332-0.555,0.656-1.109,0.973-1.659
			c0.331-0.577,0.647-1.146,0.961-1.717c0.268-0.485,0.543-0.97,0.797-1.451c0.52-0.98,1.014-1.953,1.48-2.921
			c0.19-0.391,0.36-0.78,0.542-1.171c0.306-0.665,0.605-1.327,0.888-1.987c0.178-0.417,0.348-0.832,0.513-1.246
			c0.274-0.676,0.527-1.35,0.771-2.021c0.128-0.354,0.264-0.708,0.382-1.06c0.337-0.992,0.643-1.978,0.911-2.958
			c0.055-0.209,0.097-0.417,0.151-0.625c0.205-0.804,0.39-1.604,0.545-2.399c0.065-0.328,0.12-0.656,0.177-0.983
			c0.12-0.709,0.219-1.417,0.298-2.119c0.036-0.304,0.076-0.608,0.102-0.912c0.084-0.979,0.142-1.958,0.142-2.932l-0.128-0.123
			C80.888,34.137,80.954,33.337,80.954,32.527z M45.936,48.684c-8.831,0-15.988-6.913-15.988-15.439
			c0-8.525,7.157-15.438,15.988-15.438c8.831,0,15.985,6.913,15.985,15.438C61.921,41.771,54.766,48.684,45.936,48.684z"/>
	</g>
</g>
</svg>
