<?xml version="1.0" encoding="utf-8"?>
<!-- Generator: Adobe Illustrator 16.0.4, SVG Export Plug-In . SVG Version: 6.00 Build 0)  -->
<!DOCTYPE svg PUBLIC "-//W3C//DTD SVG 1.1//EN" "http://www.w3.org/Graphics/SVG/1.1/DTD/svg11.dtd">
<svg class="control-icon" version="1.1" id="Layer_1" xmlns="http://www.w3.org/2000/svg" xmlns:xlink="http://www.w3.org/1999/xlink" x="0px" y="0px"
	 width="96px" height="96px" viewBox="0 0 96 96" enable-background="new 0 0 96 96" xml:space="preserve">
<g id="Shape_10">
	<g>
		<path d="M87.667,35.625h-4.882v3.104c0,2.518-0.922,6.089-5.243,8.758c-1.952,1.251-9.846,5.334-29.423,5.334
			c-19.577,0-27.473-4.083-29.355-5.289c-4.39-2.729-5.312-6.293-5.312-8.803v-3.104H8.57c-3.818,0-6.911,3.096-6.911,6.911v27.383
			c0,3.817,3.093,6.905,6.911,6.905h2.655l1.8-7.295c0.469-2.45,2.457-4.892,6.347-5.563c0.341-0.05,8.458-1.206,20.451-1.206
			h16.596c11.989,0,20.106,1.156,20.606,1.227c3.762,0.655,5.727,3.097,6.198,5.55l1.792,7.287h2.654
			c3.819,0,6.912-3.088,6.912-6.905V42.536C94.579,38.722,91.486,35.625,87.667,35.625z M76.024,69.763
			c0,0-7.896-1.145-19.606-1.145H39.822c-11.712,0-19.61,1.145-19.61,1.145c-1.014,0.175-1.442,0.548-1.442,0.93l-5.656,22.953
			c0,0.377,0.477,0.654,1.348,0.998c0,0,12.45-4.801,33.658-4.801c21.21,0,33.657,4.801,33.657,4.801
			c0.866-0.344,1.347-0.621,1.347-0.998l-5.654-22.953C77.469,70.311,77.038,69.938,76.024,69.763z M57.767,25.669
			c2.651,0,4.802-2.158,4.802-4.808c0-2.65-2.151-4.801-4.802-4.801s-4.816,2.151-4.816,4.801
			C52.951,23.511,55.116,25.669,57.767,25.669z M57.767,10.96c2.651,0,4.802-2.15,4.802-4.799c0-2.655-2.151-4.805-4.802-4.805
			s-4.816,2.15-4.816,4.805C52.951,8.81,55.116,10.96,57.767,10.96z M72.25,25.669c2.66,0,4.803-2.158,4.803-4.808
			c0-2.65-2.144-4.801-4.803-4.801c-2.652,0-4.804,2.151-4.804,4.801C67.447,23.511,69.598,25.669,72.25,25.669z M21.768,42.626
			c0.924,0.589,7.663,4.419,26.351,4.419c18.689,0,25.426-3.83,26.35-4.419c0.733-0.45,2.585-1.618,2.585-3.897v-6.645
			c0,0,0.121-2.602-2.219-2.602l-23.215,0.065c-1.833-0.117-3.273-1.527-3.5-3.326V3.824c0-2.88-2.7-2.445-2.7-2.445h-4.637
			l-17.981,1.64l-0.125,0.034c-2.121,0.57-3.493,2.208-3.493,4.17v31.506C19.183,41.008,21.035,42.177,21.768,42.626z"/>
	</g>
</g>
</svg>
