<?xml version="1.0" encoding="utf-8"?>
<!-- Generator: Adobe Illustrator 16.0.4, SVG Export Plug-In . SVG Version: 6.00 Build 0)  -->
<!DOCTYPE svg PUBLIC "-//W3C//DTD SVG 1.1//EN" "http://www.w3.org/Graphics/SVG/1.1/DTD/svg11.dtd">
<svg class="control-icon" version="1.1" id="Layer_1" xmlns="http://www.w3.org/2000/svg" xmlns:xlink="http://www.w3.org/1999/xlink" x="0px" y="0px"
	 width="96px" height="96px" viewBox="0 0 96 96" enable-background="new 0 0 96 96" xml:space="preserve">
<g id="Shape_15">
	<g>
		<path d="M82.252,68.031c-6.014,0-11.117,3.915-12.835,9.296h-50.92c-0.785,0-1.301-0.033-1.634-0.069
			c-0.026-0.275-0.049-0.675-0.049-1.249V49.832c0.534,0.041,1.088,0.069,1.683,0.069h51.682c2.191,4.407,6.772,7.455,12.073,7.455
			c7.418,0,13.452-5.955,13.452-13.273c0-7.318-6.034-13.273-13.452-13.273c-6.721,0-12.291,4.893-13.281,11.255H18.497
			c-0.785,0-1.301-0.033-1.634-0.069c-0.026-0.275-0.049-0.675-0.049-1.249V27.608c5.943-1.374,10.387-6.635,10.387-12.913
			c0-7.318-6.035-13.273-13.453-13.273S0.296,7.377,0.296,14.696c0,5.621,3.565,10.425,8.576,12.357v48.956
			c0,6.502,2.789,9.154,9.625,9.154h50.885c1.68,5.442,6.812,9.414,12.87,9.414c7.418,0,13.452-5.955,13.452-13.273
			S89.67,68.031,82.252,68.031z M82.252,38.645c3.039,0,5.51,2.439,5.51,5.438c0,2.998-2.471,5.437-5.51,5.437
			c-3.038,0-5.511-2.439-5.511-5.437C76.741,41.084,79.214,38.645,82.252,38.645z M13.749,9.259c3.039,0,5.511,2.439,5.511,5.437
			c0,2.998-2.472,5.438-5.511,5.438c-3.038,0-5.511-2.439-5.511-5.438C8.238,11.698,10.71,9.259,13.749,9.259z M82.252,86.741
			c-3.038,0-5.511-2.439-5.511-5.437c0-2.999,2.473-5.437,5.511-5.437c3.039,0,5.51,2.438,5.51,5.437
			C87.762,84.302,85.291,86.741,82.252,86.741z"/>
	</g>
</g>
</svg>
