<?xml version="1.0" encoding="utf-8"?>
<!-- Generator: Adobe Illustrator 16.0.4, SVG Export Plug-In . SVG Version: 6.00 Build 0)  -->
<!DOCTYPE svg PUBLIC "-//W3C//DTD SVG 1.1//EN" "http://www.w3.org/Graphics/SVG/1.1/DTD/svg11.dtd">
<svg  class="control-icon" version="1.1" id="Layer_1" xmlns="http://www.w3.org/2000/svg" xmlns:xlink="http://www.w3.org/1999/xlink" x="0px" y="0px"
	 width="96px" height="96px" viewBox="0 0 96 96" enable-background="new 0 0 96 96" xml:space="preserve">
<g id="Shape_19_2_">
	<g>
		<path d="M91.534,24.251l-2.262-7.348c-2.487-7.229-4.835-9.404-5.183-9.69c-0.27-0.235-0.967-0.821-1.881-0.559l-1.498,0.427
			l-27.18,7.711l-5.138,1.456l9.157,29.771l5.139-1.455l27.18-7.713l1.496-0.423c0.919-0.263,1.169-1.117,1.264-1.45
			C92.758,34.551,93.497,31.503,91.534,24.251z M14.94,47.834L2.917,72.481l-0.664,1.355c-0.405,0.833,0.09,1.58,0.291,1.872
			c0.245,0.374,2.128,2.929,9.196,6.378l7.223,3.253c7.168,2.956,10.42,2.71,10.878,2.651c0.358-0.039,1.273-0.147,1.683-0.981
			l0.661-1.359l12.023-24.646l2.274-4.659l-29.27-13.17L14.94,47.834z M31.405,22.641c0.231,1.143,1.391,1.894,2.58,1.667
			l4.318-0.812c1.187-0.225,1.97-1.343,1.739-2.483l-1.871-9.248c-0.229-1.139-1.391-1.89-2.58-1.666l-4.316,0.817
			c-1.188,0.223-1.971,1.341-1.742,2.479L31.405,22.641z M10.241,32.19l8.581,1.501l3.517,0.611
			c1.169,0.206,2.289-0.532,2.534-1.637c0.005-0.02,0.015-0.04,0.018-0.062l0.779-4.16c0.213-1.145-0.586-2.25-1.778-2.461
			l-12.097-2.111c-1.193-0.209-2.34,0.556-2.554,1.701l-0.778,4.157C8.251,30.875,9.049,31.98,10.241,32.19z M78.849,53.695
			l-9.628-1.798c-1.188-0.221-2.352,0.531-2.586,1.67l-0.847,4.146c-0.234,1.142,0.545,2.257,1.735,2.477l9.628,1.799
			c1.187,0.222,2.351-0.532,2.583-1.674l0.851-4.144C80.818,55.029,80.035,53.915,78.849,53.695z M64.043,67.406
			c-0.218-1.144-1.369-1.91-2.561-1.705l-4.332,0.748c-0.023,0.002-0.044,0.014-0.066,0.016c-1.153,0.234-1.919,1.313-1.706,2.435
			l0.639,3.378l1.562,8.241c0.218,1.143,1.369,1.91,2.561,1.708l4.332-0.748c1.192-0.207,1.988-1.311,1.773-2.455L64.043,67.406z"/>
	</g>
</g>
</svg>
