<?xml version="1.0" encoding="utf-8"?>
<!-- Generator: Adobe Illustrator 16.0.4, SVG Export Plug-In . SVG Version: 6.00 Build 0)  -->
<!DOCTYPE svg PUBLIC "-//W3C//DTD SVG 1.1//EN" "http://www.w3.org/Graphics/SVG/1.1/DTD/svg11.dtd">
<svg class="control-icon" version="1.1" id="Layer_1" xmlns="http://www.w3.org/2000/svg" xmlns:xlink="http://www.w3.org/1999/xlink" x="0px" y="0px"
	 width="96px" height="96px" viewBox="0 0 96 96" enable-background="new 0 0 96 96" xml:space="preserve">
<g id="Shape_11">
	<g>
		<path d="M88.336,6.692C82.727,1.017,76.729-2.118,72.323,2.34c-0.086,0.084-0.136,0.192-0.216,0.282l-5.074,5.204V7.86
			c-0.167,0.185-0.274,0.427-0.274,0.698c0,0.286,0.115,0.544,0.3,0.734v0.001l0.003,0.004l0.001,0.001L85.821,28.28
			c0.188,0.205,0.452,0.334,0.75,0.334c0.298,0,0.562-0.131,0.752-0.334h0.02l5.085-5.214c0.064-0.062,0.149-0.103,0.212-0.165
			C97.045,18.439,93.949,12.369,88.336,6.692z M28.998,84.032c-0.01-0.005-0.013-0.015-0.022-0.021
			c-4.723-2.635-11.431-7.611-16.133-16.233c-0.016-0.03-0.044-0.041-0.063-0.064c-0.186-0.283-0.488-0.48-0.849-0.48
			c-0.439,0-0.81,0.28-0.96,0.671v0.001L1.429,94.071c-0.489,1.344,0.197,2.039,1.525,1.542l25.889-9.666
			c0,0,0.008-0.014,0.009-0.018c0.409-0.139,0.708-0.519,0.708-0.98C29.56,84.548,29.328,84.208,28.998,84.032z M81.458,32.757
			L62.734,13.811c-0.19-0.214-0.457-0.357-0.765-0.357c-0.311,0-0.582,0.147-0.772,0.365h-0.009L16.627,59.536
			c0,0-0.005,0.016-0.009,0.031c-0.185,0.191-0.302,0.45-0.302,0.737c0,0.166,0.047,0.315,0.115,0.455
			c0.002,0.013,0.002,0.031,0.006,0.042c5.306,13.369,16.378,18.374,19.264,19.482c0.133,0.062,0.278,0.103,0.433,0.103
			c0.307,0,0.575-0.141,0.765-0.355l44.609-45.765l-0.001-0.042c0.169-0.188,0.28-0.434,0.28-0.707
			C81.788,33.216,81.658,32.949,81.458,32.757z M47.608,42.879c-2.042,0-3.698-1.677-3.698-3.745s1.656-3.744,3.698-3.744
			c2.044,0,3.7,1.676,3.7,3.744S49.652,42.879,47.608,42.879z M55.009,35.391c-2.043,0-3.701-1.675-3.701-3.743
			c0-2.068,1.657-3.744,3.701-3.744c2.042,0,3.699,1.675,3.699,3.744C58.708,33.716,57.051,35.391,55.009,35.391z M62.407,27.905
			c-2.042,0-3.699-1.677-3.699-3.743c0-2.068,1.657-3.744,3.699-3.744c2.044,0,3.699,1.676,3.699,3.744
			C66.106,26.228,64.451,27.905,62.407,27.905z"/>
	</g>
</g>
</svg>
