<?xml version="1.0" encoding="UTF-8"?>
<!-- Generator: Adobe Illustrator 15.0.2, SVG Export Plug-In . SVG Version: 6.00 Build 0)  -->
<svg class="icon-shadow" version="1.1" id="Layer_1" xmlns="http://www.w3.org/2000/svg" xmlns:xlink="http://www.w3.org/1999/xlink" x="0px" y="0px" width="96px" height="96px" viewBox="0 0 96 96" enable-background="new 0 0 96 96" xml:space="preserve">
   <path d="M 91.713,7.33 C 90.172,6.355 79,0 48,0 16.996,0 5.828,6.355 4.289,7.33 3.08,8.079 0,10.018 0,13.805 l 0,21.131 0,40.346 0,6.15 c 0,3.78 3.08,5.724 4.289,6.466 1.539,0.982 12.707,7.336 43.711,7.336 31,0 42.172,-6.354 43.713,-7.337 C 92.918,87.155 96,85.212 96,81.432 l 0,-6.15 0,-40.346 0,-21.131 C 96,10.018 92.918,8.079 91.713,7.33 z"
   id="ico_x5F_3d_x5F_sq_x5F_lg" />
</svg>
