<?xml version="1.0" encoding="utf-8"?>
<!-- Generator: Adobe Illustrator 16.0.4, SVG Export Plug-In . SVG Version: 6.00 Build 0)  -->
<!DOCTYPE svg PUBLIC "-//W3C//DTD SVG 1.1//EN" "http://www.w3.org/Graphics/SVG/1.1/DTD/svg11.dtd">
<svg class="control-icon" version="1.1" id="Layer_1" xmlns="http://www.w3.org/2000/svg" xmlns:xlink="http://www.w3.org/1999/xlink" x="0px" y="0px"
	 width="96px" height="96px" viewBox="0 0 96 96" enable-background="new 0 0 96 96" xml:space="preserve">
<g id="Shape_6">
	<g>
		<path d="M49.221,2.26C24.107,2.26,3.749,22.68,3.749,47.874c0,25.185,20.358,45.613,45.472,45.613
			c25.115,0,45.476-20.428,45.476-45.613C94.696,22.68,74.336,2.26,49.221,2.26z M71.443,14.234
			c0.415-0.188,0.372-0.393,0.943-0.415c0.316,0.218,0.611,0.469,0.926,0.697c-0.051,0.055-0.099,0.102-0.168,0.14
			c-0.227-0.046-0.412-0.196-0.672-0.242c-0.561-0.094-0.614,0.321-1.029-0.173V14.234z M70.17,16.045
			c0.104,0,0.194,0.086,0.335,0.032c0.207-0.056,0.403-0.393,0.471-0.604c-0.138-0.008-0.225-0.079-0.321-0.133
			c0.009-0.008,0.019-0.017,0.019-0.017c0.203-0.102,0.303-0.337,0.471-0.415c0.14-0.008,0.281-0.016,0.413-0.023
			c0.238-0.07,0.602-0.229,0.942-0.181c0.134,0.047,0.261,0.094,0.38,0.142c-0.07,0.619-0.743,0.329-0.567,1.176
			c0.078,0.392,0.227,0.839,0.497,1.044c0.148,0.125,0.483,0.196,0.5,0.446c-0.298-0.008-0.605-0.008-0.912-0.008
			c-0.132,0.039-0.222,0.235-0.404,0.157c-0.056-0.079-0.106-0.133-0.156-0.211c-0.22,0.016-0.361,0.022-0.553-0.008
			c-0.014-0.243,0.182-0.267,0.337-0.336c0.019-0.039,0.019-0.079,0.035-0.125c-0.346-0.11-0.583-0.346-0.982-0.393
			c-0.203-0.04-0.248,0.244-0.537,0.046c-0.021-0.038-0.061-0.086-0.1-0.141C69.971,16.272,70.075,16.163,70.17,16.045z
			 M51.068,6.87c0.021-0.039,0.043-0.055,0.064-0.086c1.502,0.071,2.981,0.219,4.436,0.448c-0.028,0.016-0.047,0.039-0.079,0.055
			c-0.153,0.085-0.306,0.164-0.453,0.235c-0.184,0.062-0.355,0.032-0.505,0.095c-0.117,0.07-0.225,0.164-0.343,0.235
			c-0.554-0.024-1.083-0.054-1.622-0.071V7.554c0.351-0.071,0.422-0.244,0.55-0.526V7.02c-0.75,0-1.606,0.165-2.073-0.133
			C51.043,6.887,51.061,6.878,51.068,6.87z M47.41,7.036c0.086,0.015,0.181,0.023,0.273,0.023c0.113-0.016,0.312-0.095,0.461-0.056
			c-0.007,0.197,0,0.369,0.075,0.471c0.148,0.031,0.293,0.062,0.437,0.094c0-0.015,0-0.023,0-0.023
			c0.021-0.156,0.053-0.306,0.083-0.455c0.177-0.07,0.229-0.117,0.38,0c0.081,0.188,0.468,0.698,0.684,0.745
			c0.044-0.032,0.07-0.055,0.105-0.094c-0.035-0.204-0.329-0.58-0.238-0.792c0.062-0.071,0.125-0.148,0.187-0.228
			c0,0,0.063,0,0.094,0.008c0.135,0.039,0.228,0.117,0.338,0.148h0.331c0.051,0.032,0.085,0.056,0.133,0.086
			c-0.013,0.213-0.082,0.407-0.027,0.549c0.044,0.023,0.082,0.031,0.122,0.055c0.104-0.094,0.183-0.25,0.334-0.25
			c0.118,0.149,0.229,0.29,0.338,0.439c0.133,0.07,0.286,0.062,0.453,0.118c0.169,0.071,0.454,0.25,0.547,0.417
			c-0.105,0.054-0.212,0.093-0.312,0.147c-0.184,0.048-0.372,0.088-0.547,0.126c-0.25,0.141-0.235,0.541-0.356,0.822
			c-0.066,0.157-0.145,0.314-0.226,0.472c-0.087,0.022-0.272,0.022-0.325,0.093c-0.19,0.166-0.32,0.439-0.312,0.8
			c-0.07,0.039-0.127,0.078-0.191,0.11c-0.307,0.086-1.209-0.667-1.407-0.785c0.011-0.016,0.018-0.022,0.022-0.031
			c0.052-0.062,0.091-0.133,0.141-0.204c0.457,0.017,0.895-0.023,1.098-0.282c-0.058-0.055-0.104-0.094-0.167-0.149
			c-0.43,0.04-0.806,0.142-1.293,0.173c-0.044-0.094-0.09-0.197-0.134-0.291h0.017c0.508-0.22,1.163-0.205,1.516-0.58V8.706
			c-0.302-0.047-0.7-0.204-0.86-0.391c-0.276,0.172-0.372,0.501-0.688,0.619c-0.371,0.125-1.117-0.511-1.223-0.768
			c0.14-0.072,0.304-0.142,0.448-0.22c-0.065-0.103-0.14-0.205-0.21-0.322c-0.116,0.062-0.238,0.133-0.371,0.195
			c-0.153-0.078-0.282-0.313-0.329-0.501C46.981,7.193,47.125,7.06,47.41,7.036z M37.271,29.956
			c0.035-0.047,0.114-0.039,0.152-0.102c-0.051-0.062-0.099-0.125-0.165-0.189c0.035-0.062,0.066-0.117,0.143-0.133
			c0.088,0.031,0.147,0.046,0.246,0.031c-0.047-0.094-0.099-0.196-0.146-0.298c0.078-0.015,0.161-0.039,0.231-0.071
			c-0.035-0.055-0.07-0.117-0.113-0.18c0.043-0.047,0.078-0.094,0.113-0.142c0.078,0.039,0.149,0.086,0.228,0.125
			c0.238,0.071,0.55-0.179,0.798-0.078c0.037,0.07,0.077,0.07,0.012,0.133c-0.142,0.274-0.602,0.227-0.641,0.611
			c0.01,0.017,0.034,0.032,0.039,0.055c0.33,0,1.026-0.094,1.218,0.048c0.036,0.054,0.062,0.054,0.036,0.102
			c-0.115,0.266-0.259,0.831-0.652,0.831c0,0,0.014,0.023,0.014,0.031c0.064,0.039,0.13,0.078,0.195,0.118c0,0-0.014,0-0.026,0.008
			c-0.104,0.125-0.363,0.157-0.598,0.149c0,0,0,0.008,0.004,0.031c0.321,0.126,0.347,0,0.594-0.023c0.16,0,0.567,0.345,0.626,0.438
			c0.078,0.204,0.05,0.424,0.191,0.588c0.07,0.087,0.187,0.039,0.289,0.102c0.104,0.118,0.195,0.244,0.288,0.377
			c0.072,0.093,0.051,0.391,0.051,0.391c0.268,0.282,0.42,0.235,0.16,0.627c0.057,0.008,0.122,0.032,0.195,0.039
			c0.186-0.274,0.549-0.079,0.717,0.064c0.01,0.102,0.032,0.211,0.039,0.321c-0.067,0.188-0.579,0.533-0.791,0.596
			c0.125,0.016,0.557,0.055,0.597,0.071h0.022v0.172c-0.098,0.024-0.259,0.062-0.266,0.172c-0.202-0.024-0.254,0.103-0.398,0.134
			c-0.115-0.024-0.231-0.047-0.357-0.063c-0.086,0.032-0.175,0.056-0.257,0.071c-0.059-0.007-0.09-0.078-0.185-0.071
			c-0.168,0.032-0.335,0.063-0.49,0.079c0.002,0.031,0.006,0.062,0.018,0.086c-0.358-0.032-0.472-0.071-0.852-0.017
			c-0.016,0.393-0.204,0.282-0.421,0.172c-0.044,0.032-0.086,0.064-0.182,0.023c-0.172,0.063-0.328,0.166-0.419,0.298
			c-0.039-0.022-0.069-0.063-0.087-0.094c-0.068-0.008-0.135-0.024-0.192-0.047c0,0,0.007-0.016,0.01-0.023
			c0.23-0.071,0.661-0.361,0.688-0.628c0.148,0.024,0.113-0.054,0.182-0.141c0.226-0.095,0.421,0.054,0.676-0.008
			c0.012-0.133,0.12-0.227,0.174-0.337c-0.131,0.063-0.221,0.149-0.39,0.149h-0.035c-0.117-0.062-0.238-0.117-0.355-0.172
			c-0.165,0-0.348-0.008-0.501-0.008c-0.05-0.048-0.097-0.086-0.148-0.133c0.021-0.008,0.048-0.04,0.06-0.055
			c0.062-0.11,0.435-0.133,0.59-0.345c0.005-0.118,0.031-0.25-0.017-0.313V33.5H37.92c0-0.007,0-0.007,0-0.007
			c0.141-0.291,0.533-0.33,0.966-0.33V33.14c-0.128-0.25,0.017-0.4,0.02-0.698h-0.02c-0.059,0.015-0.137,0.023-0.204,0.04
			c-0.07-0.079-0.128-0.103-0.172-0.221c0.027-0.165,0.152-0.236,0.234-0.344c-0.351-0.087-0.246,0.039-0.523,0.062
			c-0.082-0.023-0.14-0.048-0.222-0.062c-0.008,0.078-0.027,0.093-0.079,0.125c-0.093-0.023-0.198-0.047-0.301-0.078
			c0.037-0.189,0.308-0.425,0.231-0.557c-0.075-0.041-0.118-0.126-0.086-0.244c0.07-0.016,0.101-0.056,0.144-0.11
			c-0.017-0.047-0.026-0.102-0.043-0.157h-0.023c-0.155,0.11-0.313,0.204-0.479,0.298c0,0,0-0.024,0-0.031
			c-0.1-0.181,0.115-0.423,0.174-0.589c-0.048-0.039-0.096-0.078-0.151-0.109l-0.013,0.023c-0.048,0.078-0.079,0.11-0.145,0.164
			c-0.048-0.015-0.091-0.038-0.129-0.054c0.023-0.055,0.226-0.408,0.226-0.408C37.307,30.113,37.294,30.034,37.271,29.956z
			 M37.307,31.517c-0.043-0.087-0.043-0.15-0.017-0.236c0.035-0.008,0.063-0.016,0.096-0.031c0.016,0.07,0.016,0.134,0.026,0.204
			c-0.026,0.023-0.039,0.047-0.066,0.071C37.334,31.517,37.307,31.517,37.307,31.517z M34.554,33.971
			c0.116,0.007,0.304,0.031,0.368-0.024c0.052-0.039,0.052-0.141,0.091-0.197c0.117-0.023,0.272-0.023,0.312-0.141
			c-0.097,0.008-0.195,0.017-0.273,0.033l0.013-0.024c0.03-0.04,0.057-0.079,0.073-0.118c-0.021-0.047-0.035-0.03-0.017-0.07
			c0.069-0.165,0.164-0.125,0.32-0.188c-0.01-0.024-0.026-0.062-0.03-0.102c-0.104,0.054-0.574-0.023-0.672-0.071
			c0.018-0.039,0.042-0.07,0.062-0.102c-0.016-0.023-0.022-0.031-0.045-0.055c0.061,0,0.127-0.022,0.178-0.031
			c-0.028-0.141,0-0.118,0.078-0.204h-0.024c-0.082-0.062-0.145-0.055-0.249-0.016c0-0.039,0-0.062,0-0.062
			c0.027-0.142,0.062-0.211,0.155-0.282c0.2,0.071,0.481,0.079,0.731,0.103c-0.016-0.04-0.029-0.079-0.029-0.133
			c0.127-0.024,0.205-0.079,0.265-0.212h-0.364c0.012-0.008,0.024-0.032,0.031-0.048c0.056-0.007,0.098-0.015,0.148-0.031
			c0.075-0.257,0.163-0.376,0.453-0.399c0.024,0.086,0.068,0.142,0.204,0.142c0.223-0.095,0.593-0.142,0.778-0.025
			c0.065,0.219,0.172,0.4,0.194,0.636c-0.113,0.203-0.194,0.25-0.442,0.313c0.107,0.149,0.313,0.627,0.235,0.871
			c-0.039,0.141-0.173,0.235-0.199,0.439c-0.096,0.007-0.191,0.016-0.281,0.024c-0.027,0.016-0.035,0.046-0.053,0.07
			c-0.143,0.015-0.295,0.023-0.437,0.039c-0.152,0.101-0.291,0.211-0.453,0.321c-0.066,0.008-0.129,0.017-0.196,0.017
			c-0.155,0.038-0.3,0.117-0.534,0.132c0-0.117,0.016-0.188-0.024-0.29c-0.069,0.016-0.143,0.024-0.211,0.031
			c-0.01-0.07-0.041-0.117-0.022-0.173c0.042-0.015,0.091-0.039,0.137-0.054V34.08c-0.095,0-0.184-0.015-0.277-0.015
			C34.554,34.033,34.554,34.011,34.554,33.971z M28.232,13.795c0.007,0,0.01,0.023,0.014,0.031h-0.004
			c-0.096,0.039-0.194,0.071-0.299,0.102c0.113,0.094,0.352,0.094,0.503,0.133l-0.004,0.008c-0.022,0.023-0.134,0.109-0.2,0.109
			c-0.038-0.017-0.05-0.055-0.077-0.063c-0.039-0.023-0.145-0.046-0.196-0.046c-0.312-0.016-0.648,0.03-0.91-0.024
			c-0.075-0.015-0.281-0.086-0.227-0.181c0.034-0.07,0.39-0.141,0.497-0.188c0.366-0.063,0.512,0.118,0.797,0.118H28.232z
			 M27.961,12.65h0.008c-0.003,0.007-0.02,0.007-0.022,0.016C27.953,12.657,27.961,12.65,27.961,12.65z M27.785,13.403
			c-0.102,0.03-0.219,0.078-0.323,0.11c-0.067,0.039-0.133,0.078-0.203,0.117c-0.091,0.016-0.185,0.04-0.275,0.055
			c-0.082,0.031-0.187,0.07-0.272,0.07l-0.027-0.008c0.008-0.039,0.099-0.07,0.137-0.102c0.136-0.07,0.262-0.15,0.396-0.219
			c0.163,0.006,0.389-0.056,0.589-0.071C27.797,13.371,27.789,13.395,27.785,13.403z M27.484,12.94
			c-0.034,0.071-0.057,0.141-0.108,0.204h-0.192c0,0-0.016,0-0.027,0C27.259,13.074,27.376,13.011,27.484,12.94z M26.891,13.309
			c0.039,0.007,0.083,0.023,0.083,0.046c-0.051,0.023-0.196,0.071-0.341,0.11C26.711,13.41,26.81,13.364,26.891,13.309z
			 M10.318,34.354c0.016,0.008,0.034,0.016,0.048,0.032c0.008,0.086,0,0.157-0.02,0.204c-0.028,0.007-0.074,0-0.11-0.008
			C10.256,34.503,10.291,34.434,10.318,34.354z M8.634,40.715c0.038,0.046,0.094,0.085,0.121,0.155
			c-0.018,0.033-0.086,0.087-0.173,0.142C8.603,40.909,8.614,40.808,8.634,40.715z M10.464,43.356
			c-0.039-0.031-0.039-0.055-0.083-0.031c-0.015,0.017-0.02,0.017-0.034,0.031c0.006,0.008,0.015,0.023,0.02,0.039
			c-0.057-0.016-0.127-0.016-0.188-0.016c0.005,0.025,0.009,0.025,0.009,0.055c-0.282,0-0.54,0.197-0.798,0.283
			c-0.028-0.039-0.02-0.047-0.07-0.062c0,0-0.027,0-0.045,0.016c-0.007,0.031-0.018,0.055-0.029,0.086c0,0-0.048-0.023-0.061-0.039
			c-0.01,0.086-0.038,0.079-0.077,0.133c-0.071,0-0.132-0.016-0.206-0.016c0.007-0.038,0.01-0.062,0.01-0.062l-0.025-0.016
			c-0.017,0.056-0.043,0.071-0.083,0.094H8.785c-0.014-0.016-0.022-0.039-0.03-0.054H8.677c0,0.108,0.051,0.108,0.021,0.211
			c-0.216,0-0.275,0.267-0.399,0.336c-0.012-0.007-0.024-0.023-0.042-0.03c0,0.038,0,0.069,0,0.069
			c-0.063,0.009-0.095,0.024-0.134,0.04c0.031-0.329,0.058-0.651,0.095-0.973c0.011-0.117,0.034-0.219,0.05-0.336
			c0.031-0.274,0.085-0.549,0.12-0.823c0,0,0.035-0.008,0.064,0.031c-0.072,0.313,0.32,0.274,0.523,0.369
			c-0.013,0.015-0.024,0.015-0.024,0.015c-0.05,0.023-0.108,0.032-0.148,0.062h0.021c0.088,0.016,0.098,0.086,0.166,0.119
			c0.047-0.017,0.107-0.017,0.16-0.017c0.035,0.023,0.079,0.047,0.107,0.079c0.093,0.031,0.195-0.079,0.329-0.016
			c0,0,0,0.016,0.01,0.031h0.024c-0.007,0.016-0.024,0.039-0.034,0.062c0.045-0.015,0.123,0,0.189-0.023
			c0.091-0.031,0.13-0.117,0.259-0.133c0.04,0.211,0.118,0.063,0.263,0.118c0.038,0.047,0.081,0.093,0.116,0.133
			c0,0-0.012,0.031-0.031,0.048c-0.02,0.015-0.047,0.031-0.071,0.039c0,0.007,0.009,0.022,0.024,0.039
			c0.13-0.008,0.208-0.008,0.261,0.055C10.55,43.325,10.503,43.342,10.464,43.356z M10.334,42.792
			c-0.078-0.282,0.334-0.611,0.419-0.807c0.077,0.055,0.158,0.102,0.236,0.157c-0.069,0.102-0.101,0.314-0.187,0.4
			c-0.09,0.11-0.281,0.094-0.261,0.29c0.03,0.016,0.065,0.04,0.104,0.063c0.224-0.078,0.312-0.548,0.598-0.156
			C11.156,43.066,10.425,43.208,10.334,42.792z M10.296,39.671c-0.32-0.016-0.642-0.031-0.957-0.047
			c-0.173-0.023-0.351-0.007-0.528,0.008c0.325-1.576,0.767-3.113,1.265-4.618c0.021,0.016,0.036,0.054,0.048,0.062h0.195
			c0.146,0.047,0.593,0.399,0.61,0.589c-0.04,0.093-0.087,0.196-0.126,0.297c0.195,0.016,0.313-0.102,0.519-0.07
			c0.248,0.03,0.424,0.203,0.632,0.289c0.208,0.056,0.429,0.118,0.645,0.166c-0.103,0.188-0.333,0.196-0.566,0.259
			c-0.251,0.047-0.341,0.25-0.555,0.321c-0.103,0-0.203,0.016-0.31,0.016c-0.102,0.079-0.141,0.282-0.161,0.423
			c0.161-0.079,0.428-0.094,0.591-0.195c0.388-0.213,0.695-0.746,1.204-0.252c-0.038,0.047-0.099,0.095-0.105,0.173
			c0.023,0.039,0.051,0.079,0.078,0.117c0.077-0.038,0.218-0.132,0.301-0.125c0.168,0.031,0.468,0.188,0.485,0.4
			c-0.07,0.125-0.122,0.283-0.188,0.4c0.074,0.109,0.163,0.219,0.248,0.33c0,0,0,0.016,0,0.023
			c-0.174,0.134-0.538,0.462-0.732,0.526c-0.311,0.022-0.611,0.054-0.903,0.094c-0.164,0.164-0.329,0.353-0.49,0.533
			C11.205,39.6,10.725,39.617,10.296,39.671z M15.099,42.266c-0.105-0.023-0.202-0.055-0.313-0.086
			c-0.005-0.071-0.015-0.141-0.015-0.212c-0.055,0.039-0.106,0.094-0.155,0.134c-0.029-0.016-0.068-0.016-0.107-0.016
			c0,0,0-0.071,0-0.102c0.067-0.079,0.111-0.157,0.117-0.29c-0.039-0.056-0.084-0.11-0.117-0.156
			c-0.022-0.016-0.047-0.016-0.07-0.032c-0.125,0.227-0.479,0.399-0.675,0.611c-0.095,0-0.195-0.008-0.259-0.031
			c-0.015-0.062-0.019-0.039,0-0.094c0.298-0.087,0.367-0.298,0.598-0.408v-0.031c-0.11-0.008-0.223-0.015-0.339-0.031
			c-0.01,0.062-0.032,0.117-0.087,0.133c-0.026,0.007-0.056,0.007-0.056,0.007c-0.038-0.007-0.038-0.023-0.038-0.023
			c-0.015-0.07-0.015-0.133-0.015-0.195c-0.063,0.007-0.134,0.016-0.195,0.024c-0.041,0.156-0.275,0.195-0.484,0.171
			c-0.232-0.046-0.479-0.078-0.718-0.101c-0.186,0.007-0.382,0.038-0.573,0.054c-0.027-0.07-0.082-0.165-0.042-0.228
			c0.117-0.219,0.464-0.274,0.632-0.447c-0.091-0.023-0.195-0.047-0.285-0.078c0.012-0.008,0.017-0.032,0.021-0.047
			c0.113-0.313,0.296-0.149,0.459-0.322c-0.061-0.07-0.117-0.148-0.184-0.227c0.156-0.463,0.625-1.184,0.988-1.419
			c0.161-0.047,0.317-0.086,0.471-0.126c0.027,0.008,0.05,0.017,0.073,0.024c0.01,0.023,0.022,0.04,0.022,0.04
			c0,0.039,0,0.054-0.013,0.07c-0.064,0.031-0.181,0.07-0.276,0.095c0.212,0.399-0.479,0.69-0.473,1.184
			c0.223-0.056,0.195-0.275,0.416-0.306c0.082,0.031,0.175,0.054,0.269,0.085c-0.078,0.079-0.151,0.143-0.221,0.221v0.039
			c0.165,0.133,0.398,0.298,0.671,0.251c0.03-0.048,0.058-0.094,0.082-0.141c0.261-0.032,0.485,0.063,0.638,0.165
			c-0.021,0.023-0.044,0.056-0.065,0.094c-0.104,0.071-0.194,0.141-0.295,0.235c0.022,0.008,0.022,0.024,0.022,0.024
			c0.052,0.093,0.15,0.14,0.208,0.194c0.108-0.006,0.188-0.054,0.269-0.093c0.032,0.016,0.056,0.031,0.09,0.039v0.071
			c-0.187,0.165-0.187,0.102-0.416,0.22v0.015c0.035,0.102,0.085,0.235,0.144,0.322c0.012-0.007,0.021-0.007,0.021-0.007
			c0.022-0.071,0.064-0.111,0.115-0.15c0.038,0.017,0.083,0.032,0.118,0.039c0,0,0.011,0.016,0.018,0.032
			c-0.046,0.18-0.034,0.244,0.212,0.22C15.321,41.882,15.161,42.086,15.099,42.266z M22.501,78.172
			c-0.078,0.454-0.23,0.792-0.441,1.074c-1.431-1.262-2.778-2.612-4.029-4.062c0.092,0.055,0.179,0.125,0.257,0.148
			c0.201,0.016,0.389,0.056,0.592,0.079c0.312,0.062,0.546-0.125,0.88,0.024c0.579,0.266,0.93,0.783,1.424,1.113
			c0.24,0.158,0.584,0.04,0.904,0.143C22.235,76.729,22.556,77.866,22.501,78.172z M18.162,29.25
			c0.024-0.095,0.196-0.118,0.203-0.181c0.041-0.009,0.055,0,0.076,0c0.015,0.023,0.034,0.039,0.034,0.07
			c-0.073,0.048-0.151,0.086-0.309,0.11H18.162z M26.286,19.464c-0.069-0.015-0.16,0.015-0.248,0.015
			c-0.181,0-0.401-0.07-0.469-0.188h-0.012c-0.016,0.024-0.026,0.055-0.055,0.079c0.059,0.07,0.38,0.109,0.341,0.236
			c-0.004,0.031-0.039,0.031-0.074,0.038h0.006c0.068,0.017,0.147,0,0.189,0.032c0.14,0.071-0.082,0.235-0.121,0.282v0.11
			c-0.056,0.078-0.234,0.118-0.274,0.164c-0.05,0.078,0.04,0.149,0.008,0.228c-0.02,0.062-0.105,0.085-0.136,0.156
			c-0.024,0.048,0,0.181,0.049,0.235c0.029,0.017,0.052,0.04,0.079,0.055c-0.027,0.078-0.118,0.126-0.152,0.188
			c0,0,0.024,0,0.034,0.015c0.039,0.04,0.068,0.142,0.043,0.181c-0.035,0.055-0.053,0.118-0.08,0.164
			c-0.068,0.126-0.088,0.25-0.158,0.36c-0.026,0.071-0.069,0.134-0.199,0.15c-0.047-0.023-0.086-0.071-0.129-0.094
			c-0.088,0-0.461-0.016-0.483,0.054c-0.003,0.11,0.253,0.079,0.237,0.166c0,0.062-0.076,0.093-0.098,0.149
			c-0.007,0.046-0.007,0.117-0.007,0.179c-0.078,0.11-0.312,0.024-0.398,0.016h-0.005c0,0,0.02,0.008,0.039,0.024
			c-0.039,0.094-0.132,0.212-0.23,0.26h-0.03c-0.078,0-0.095-0.087-0.125-0.127h-0.009c-0.023,0.079-0.102,0.196-0.262,0.205
			c0.062,0.07,0.043,0.157,0.046,0.227H23.6c-0.078,0-0.163,0.008-0.206-0.015c-0.077-0.055,0.043-0.134,0.015-0.196
			c-0.015-0.024-0.032-0.04-0.044-0.063c0-0.069,0.087-0.14,0.13-0.196c0.056-0.118,0.067-0.219,0.125-0.313
			c-0.168,0.062-0.333,0.039-0.438,0.015c0.039,0.071,0.099,0.157,0,0.188c0,0.016,0.004,0.016,0.004,0.016
			c0.023,0.008,0.043,0.008,0.043,0.008c-0.035,0.07-0.125,0.165-0.216,0.219c-0.03,0.033-0.12,0.062-0.125,0.086
			c-0.003,0.102,0.516,0.125,0.268,0.337c-0.024-0.022-0.052-0.022-0.082-0.008c-0.075,0.039-0.047,0.125-0.107,0.165
			c-0.073,0.055-0.269,0.071-0.324,0.039c-0.022-0.024-0.039-0.039-0.062-0.047c-0.008-0.016-0.033-0.016-0.033-0.016
			c-0.088-0.039-0.093-0.062-0.162-0.078h-0.012c0.034,0.071,0.065,0.141,0.104,0.219h-0.018c0,0-0.005,0.007-0.028,0
			c-0.089,0-0.124-0.046-0.175-0.103h-0.013c0,0-0.027,0.017-0.031,0.024c-0.039,0.157-0.024,0.188-0.319,0.228h0.012
			c0.113,0.022,0.269,0.007,0.352,0.062c0.14,0.078,0.038,0.306-0.04,0.369c-0.038,0.023-0.146,0.062-0.195,0.078
			c-0.306-0.017-0.227-0.157-0.626,0c0.028,0.016,0.051,0.031,0.095,0.039c0,0.211,0.207,0.118,0.382,0.205
			c0.033,0.015,0.056,0.047,0.091,0.054c0.021,0.033,0.028,0.071,0.059,0.11c0.027,0.008,0.058,0,0.079,0.023
			c-0.013,0.063,0.008,0.11-0.068,0.141c0.034,0.047,0.146,0.055,0.146,0.118c-0.091,0.055-0.157-0.008-0.285,0.039
			c-0.107,0.032-0.184,0.095-0.29,0.149c-0.074,0.015-0.144,0.047-0.208,0.063c0.1,0.04,0.195,0.062,0.302,0.103
			c0.048,0,0.13-0.008,0.161,0c0.026,0.031,0.053,0.054,0.069,0.078c0.056,0.031,0.094,0.055,0.139,0.079
			c0.057,0.039,0.178,0.11,0.122,0.188c-0.01,0.023-0.135,0.04-0.197,0.047h-0.246c-0.083-0.007-0.158-0.024-0.25-0.024
			c0.034,0.017,0.069,0.056,0.108,0.062h0.112c0.111,0.009,0.238,0.072,0.385,0c0,0.056,0.022,0.103,0,0.149
			c-0.052,0.008-0.15,0.008-0.189,0.04c-0.035,0.023-0.018,0.078-0.058,0.102c-0.059,0.055-0.144,0.016-0.211,0.039l-0.013,0.009
			c0.06,0.046,0.13,0.054,0.188,0.101c0,0.031-0.032,0.047-0.071,0.071c-0.085,0-0.144-0.04-0.234-0.04h-0.003
			c-0.015,0.079,0.152,0.126,0.206,0.166c0,0-0.006,0.023-0.019,0.039c0.009,0.008,0.013,0.008,0.013,0.008
			c-0.119,0.031-0.333-0.046-0.402-0.079c-0.086,0.11,0.062,0.181,0.127,0.236c0.012,0.04,0.012,0.07,0.035,0.094
			c0.008,0.016,0.032,0.033,0.043,0.048c-0.066,0.047-0.169,0.07-0.261,0.102c-0.091,0.062-0.181,0.11-0.271,0.173
			c0.038,0.046,0.045,0.133,0.091,0.188c0.052,0.055,0.208,0.055,0.285,0.078v0.017h-0.013c-0.116,0.062-0.363-0.071-0.533-0.054
			c0.143,0.117,0.344,0.156,0.559,0.195c0.008,0.142,0.144,0.211,0.203,0.298c-0.055,0.094-0.138,0.235-0.333,0.267
			c0,0,0.013,0.008,0.023,0.023c0.063,0.015,0.161-0.023,0.239-0.023c-0.012,0.008-0.032,0.023-0.056,0.047
			c-0.039,0.079-0.022,0.118-0.107,0.172c0.043,0.039,0.005,0.221-0.022,0.244c-0.018,0.016-0.037,0.016-0.064,0.016
			c-0.091-0.039-0.299-0.079-0.363,0.03c-0.013,0.024-0.039,0.056-0.025,0.079c0.064,0.094,0.311,0.024,0.399,0.094v0.009
			c-0.206,0.093-0.041,0.109-0.102,0.227c-0.051,0.023-0.143,0.04-0.194,0.063c0,0,0.004,0,0.014,0.007
			c0.052,0,0.13,0.015,0.174,0.047c-0.118,0.008-0.238,0.039-0.374,0.063c0.038,0.063,0.173,0.133,0.276,0.133
			c0.098-0.008,0.135-0.055,0.2-0.079h0.125c0,0.126-0.506,0.299-0.771,0.353c0.031,0.078,0.151,0.142,0.277,0.078
			c0.064-0.016,0.092-0.055,0.183-0.078c-0.053,0.118,0.191,0.078,0.13,0.235c-0.018,0.031-0.027,0.062-0.04,0.078
			c-0.078,0.041-0.163,0-0.221,0c-0.083,0-0.16,0-0.237,0.008c-0.113-0.008-0.273-0.078-0.421-0.039
			c-0.142,0.039-0.106,0.228-0.224,0.274c-0.006,0.008-0.018,0.008-0.026,0.016c-0.069-0.023-0.099-0.102-0.192-0.102
			c-0.128-0.016-0.25,0.086-0.336,0.079c-0.117-0.15,0.256-0.275,0.155-0.369h-0.025c0.025-0.079,0.065-0.157,0.104-0.234
			c-0.038,0.015-0.096,0.046-0.115,0.078c-0.035,0.055-0.105,0.196-0.208,0.181c-0.088-0.103,0.051-0.165,0.051-0.243
			c0-0.078-0.116-0.086-0.195-0.054c-0.078,0.062-0.021,0.211-0.168,0.25l-0.014-0.008c-0.029-0.039-0.052-0.071-0.092-0.086
			c-0.051,0-0.105,0.016-0.163,0.024l-0.005-0.008c0.069-0.046,0.142-0.093,0.208-0.141c0.03-0.031,0.022-0.086,0.065-0.11
			c0.063-0.054,0.172-0.062,0.168-0.14c0-0.04-0.078-0.056-0.104-0.079c-0.024-0.024-0.052-0.063-0.063-0.11
			c-0.043,0.04-0.093,0.08-0.139,0.11c-0.045,0.023-0.1,0.008-0.135,0.023c-0.078,0.024-0.113,0.086-0.155,0.118
			c0.022-0.079,0.174-0.205,0.245-0.274c-0.012-0.023-0.038-0.023-0.055-0.04c-0.048-0.039-0.048-0.093-0.113-0.117
			c-0.15,0.054-0.273,0.117-0.091,0.179c0.025,0.08-0.094,0.134-0.221,0.134c0,0.102-0.095,0.024-0.18,0.062
			c-0.055,0.039-0.131,0.071-0.188,0.102c-0.082,0.032-0.146-0.007-0.208-0.007h-0.007v0.007h-0.009
			c-0.062,0.009-0.062,0.048-0.09,0.056c-0.054,0.023-0.098,0.032-0.148,0.047c-0.027,0.024-0.022,0.048-0.022,0.048
			c-0.182,0.086-0.395,0.054-0.545,0.015c0.13-0.015,0.263-0.071,0.263-0.134c0-0.054-0.05-0.102-0.065-0.172
			c-0.016-0.008-0.028-0.008-0.028-0.008c-0.117,0.023-0.157,0.063-0.216,0.118c0,0-0.032,0-0.041,0
			c-0.099-0.078,0.088-0.157,0.035-0.227c-0.078-0.086-0.427-0.055-0.537-0.118c0.118-0.016,0.235-0.048,0.261-0.117
			c-0.187-0.048-0.153,0.03-0.241,0.069c-0.031,0.009-0.05-0.023-0.101,0c-0.01,0.009-0.035,0.024-0.047,0.032
			c-0.17,0.071-0.286,0.024-0.363-0.047c0.062-0.039,0.098-0.063,0.192-0.102c-0.037-0.039-0.095-0.031-0.111-0.079
			c0.044-0.11,0.272-0.156,0.232-0.298c-0.174,0.047-0.244,0.157-0.459,0.188c0.01-0.093,0.074-0.132,0.192-0.18
			c0.038-0.023,0.068-0.031,0.093-0.047c-0.007-0.008-0.015-0.023-0.015-0.023c-0.056,0.032-0.165,0.056-0.238,0.079
			c-0.039-0.008-0.074-0.023-0.083-0.055c0.009-0.023,0.009-0.023,0.009-0.032c0.064-0.031,0.133-0.055,0.165-0.078
			c-0.013-0.047-0.032-0.094-0.057-0.125c-0.108-0.016-0.199-0.024-0.296-0.032H15.29c-0.142-0.031-0.206-0.149-0.155-0.234
			c0.09-0.133,0.168-0.267,0.242-0.385c0.031-0.047,0.096-0.102,0.096-0.164c-0.018-0.009-0.025-0.009-0.025-0.009
			c-0.178,0.079-0.213,0.212-0.419,0.283v-0.016c-0.044-0.055,0.056-0.125,0.067-0.172h-0.004c-0.099,0-0.153,0.054-0.251,0.039
			c-0.12-0.134,0.136-0.164,0.152-0.274c0.028-0.11-0.089-0.181-0.223-0.172c-0.112,0.006-0.229,0.085-0.341,0.062v-0.008
			c0.13-0.117,0.27-0.227,0.402-0.337c-0.092,0.016-0.183,0.024-0.257,0.063c-0.106,0.039-0.196,0.149-0.353,0.11
			c-0.035-0.118-0.035-0.173-0.113-0.22c0.017-0.023,0.029-0.047,0.042-0.071c0.018-0.022,0.032-0.054,0.048-0.078
			c0.04-0.062,0.078-0.134,0.122-0.196c0.016-0.031,0.036-0.062,0.046-0.093c0.067-0.095,0.124-0.196,0.188-0.299
			c0.031-0.054,0.064-0.109,0.104-0.165c0.026-0.039,0.045-0.086,0.077-0.133c0.035-0.055,0.062-0.109,0.097-0.157
			c2.982-4.493,6.797-8.375,11.246-11.401c0.101,0.016,0.208,0.024,0.312,0.055l-0.025,0.023c-0.13,0.071-0.157,0.235-0.274,0.306
			c-0.077,0.039-0.236,0.008-0.271,0.071c0.154-0.032,0.259,0.031,0.29,0.134c0.012-0.017,0.022-0.017,0.022-0.017
			c0.036-0.062,0.047-0.125,0.098-0.18c0.035-0.041,0.069-0.064,0.109-0.103c0.012-0.03,0.051-0.093,0.142-0.093
			c0.095,0,0.145,0.062,0.222,0.086c0.075,0.015,0.208,0.015,0.241,0.069c0.013,0.047-0.111,0.197-0.15,0.22
			c-0.03,0.032-0.091,0.04-0.109,0.071c-0.021,0.086,0.148,0.164,0.204,0.196l0.014-0.016c0.042-0.046,0.072-0.103,0.117-0.141
			c0.028-0.078,0.04-0.141,0.063-0.212c0.113-0.023,0.43-0.015,0.507,0.007c0.146,0.172,0.174,0.111,0.468,0.095
			c0.1,0,0.147,0.017,0.252,0c0,0.017,0,0,0.021,0.017c0.021-0.017,0.03-0.017,0.03-0.017h0.04c0.028,0.055,0,0.078,0.028,0.118
			c0.14,0,0.179-0.008,0.179,0.093c0.016,0.016,0.034,0.016,0.034,0.016c0.082-0.039,0.106-0.133,0.2-0.149
			c-0.005,0.063,0.038,0.173,0.078,0.252c0.028,0.054,0.028,0.11,0.028,0.165c0.011,0.008,0.026,0.008,0.039,0.023l0.007-0.016
			c0.02-0.086,0.041-0.204,0.07-0.291h0.021c0.296,0.079,0.258,0.173,0.315,0.393c0,0,0.021,0,0.021,0.009
			c0.022-0.009,0.053-0.009,0.086-0.009c-0.004,0.032-0.008,0.071-0.024,0.095c0.212-0.062,0.134,0.078,0.134,0.149
			c0.043-0.008,0.078-0.008,0.078-0.008c0.034,0.032,0.051,0.071,0.098,0.071l-0.008,0.039c0.062,0.062,0.281,0.102,0.211,0.22
			c-0.016,0.023-0.043,0.062-0.081,0.078c-0.052,0.023-0.13,0.023-0.169,0.016c-0.086-0.016-0.402-0.219-0.433-0.29h-0.01
			c-0.016,0.157,0.238,0.227,0.204,0.33c0,0.039-0.044,0.046-0.063,0.078c-0.156,0.102-0.335,0.117-0.534,0.079
			c-0.13-0.016-0.315-0.07-0.393-0.125c-0.022-0.056-0.059-0.102-0.088-0.141c-0.028-0.023-0.041-0.009-0.086-0.023
			c-0.033-0.039-0.061-0.071-0.096-0.102c-0.042-0.016-0.09-0.04-0.141-0.056c-0.085-0.039-0.183-0.101-0.292-0.118
			c-0.068,0.017-0.068,0.056-0.138,0.08c-0.174-0.016-0.321-0.095-0.515-0.08c-0.238,0.017-0.341,0.134-0.536,0.174
			c-0.208-0.11-0.493-0.157-0.729-0.237c-0.029,0.009-0.259,0.017-0.323,0.009c-0.041-0.009-0.088-0.024-0.147-0.024
			c0.047,0.095,0.185,0.158,0.302,0.158c0.059-0.016,0.113-0.024,0.169-0.04c0.096-0.016,0.398,0.047,0.378,0.134
			c-0.013,0.078-0.169,0.117-0.213,0.188h0.018c0.048-0.023,0.144-0.102,0.233-0.086c0.078,0,0.13,0.054,0.221,0.054
			c0.061-0.141,0.209-0.078,0.391-0.141c0.176-0.055,0.176-0.133,0.379-0.094c0.053,0.008,0.109,0.023,0.14,0.048
			c0.031,0.031,0.091,0.109,0.083,0.142c-0.013,0.069-0.23,0.352-0.308,0.391c-0.075,0.047-0.174,0.071-0.271,0.11
			c-0.002,0.017-0.002,0.023-0.035,0.04c-0.199,0.055-0.403,0.103-0.602,0.157c0.077,0.039,0.184,0.039,0.238,0.102
			c0.206,0.173-0.386,0.448-0.301,0.589h0.053c0.029-0.039,0.193-0.196,0.287-0.204c0.039,0.007,0.052,0.046,0.077,0.078
			c0.203-0.008,0.419-0.173,0.576-0.235c0.081-0.032,0.155-0.04,0.223-0.071c0.05-0.023,0.05-0.039,0.118-0.062
			c0.042,0.016,0.115,0.055,0.083,0.102c-0.014,0.04-0.248,0.118-0.309,0.157c-0.096,0.054-0.053,0.211-0.187,0.274
			c-0.052,0.015-0.107,0.023-0.149,0.031c-0.123,0-0.198,0.048-0.236,0.094c-0.013,0.032-0.029,0.039-0.005,0.062
			c0.11,0,0.214-0.101,0.313-0.062c0.008,0.008,0.008,0.008,0.008,0.008c0.118-0.024,0.256-0.015,0.356-0.054
			c0.111-0.048,0.125-0.15,0.194-0.205c0.086-0.079,0.136-0.149,0.203-0.228c0.091-0.125,0.246-0.258,0.39-0.36h0.004
			c0.018,0.023,0.035,0.062,0.049,0.095c0.151,0.03,0.371-0.071,0.535-0.11c0.128-0.023,0.218-0.008,0.326-0.015
			c0.111,0,0.346-0.062,0.436-0.102c0.113-0.056,0.23-0.119,0.31-0.174c0.037-0.038,0.037-0.086,0.115-0.117
			c0.013,0.079,0.027,0.164,0.04,0.234c0,0-0.056-0.006-0.091-0.006c-0.078,0.045-0.218,0.132-0.203,0.218
			c0.048,0.017,0.106,0.039,0.106,0.094c-0.008,0.007-0.016,0.007-0.024,0.023c-0.062,0.017-0.127,0-0.187,0.017
			c0.018,0.015,0.035,0.023,0.086,0.015c-0.099,0.11-0.588,0.228-0.402,0.393c0.058,0.031,0.12,0.078,0.191,0.118h-0.013
			c-0.121-0.017-0.209,0.062-0.261,0.11c0.018,0.062,0.091,0.078,0.138,0.108c-0.033,0.095-0.213,0.087-0.285,0.157
			c0.064,0,0.12,0.054,0.12,0.103c-0.048,0.054-0.197,0.078-0.207,0.147c0.049,0.055,0.092,0.118,0.089,0.196
			c-0.04,0.008-0.066,0.023-0.07,0.04c0.004,0.022,0.004,0.04,0.02,0.054c-0.105,0.024-0.155,0.063-0.194,0.102
			c0.01,0.023,0.027,0.039,0.039,0.055c0.05,0.07-0.087,0.055-0.146,0.094c-0.005,0.008,0,0.024-0.016,0.047h-0.054
			c-0.021,0.086-0.247,0.235-0.339,0.283c-0.06,0.032-0.06,0.071-0.108,0.102c-0.054,0.023-0.12,0.055-0.189,0.086
			c-0.101,0.047-0.165,0.118-0.26,0.165c-0.089,0.031-0.18,0.055-0.272,0.079c-0.113,0.07,0.008,0.18-0.145,0.227
			c-0.138,0.04-0.224-0.054-0.281-0.11c-0.017,0.008-0.024,0.017-0.038,0.032c-0.014,0.102,0.12,0.165,0.12,0.267
			c-0.037,0.047-0.154,0.07-0.231,0.07c-0.109-0.133-0.083-0.055-0.258-0.062c0.05,0.062,0.219,0.079,0.219,0.157
			c-0.044,0.055-0.285,0.093-0.378,0.093C26.441,19.542,26.376,19.488,26.286,19.464z M27.985,16.045
			c-0.119,0.055-0.107,0.149-0.2,0.196c-0.05,0.015-0.09,0-0.122-0.016c-0.006,0.008-0.006,0.016-0.006,0.016
			c-0.068,0.054-0.117,0.093-0.165,0.148c-0.072,0.023-0.12,0.04-0.19,0.055c-0.008,0.024-0.043,0.047-0.06,0.063
			c-0.059,0.047-0.126,0.079-0.199,0.118c-0.042,0.007-0.261,0.086-0.302,0.071c-0.014-0.024,0.079-0.189,0.091-0.22
			c0.034-0.079,0.028-0.22,0.111-0.274c0.1-0.04,0.198-0.086,0.299-0.142c0.112-0.094,0.23-0.204,0.347-0.312h0.028
			C27.688,15.802,28.013,15.951,27.985,16.045z M29.791,24.726c-0.195-0.04-0.449-0.062-0.606-0.156
			c-0.101-0.062-0.191-0.133-0.288-0.196c-0.304-0.119-1.005,0.101-1.208-0.134c0.189-0.204,0.398-0.212,0.575-0.463
			c-0.295-0.04-0.36-0.117-0.501-0.274c-0.174,0.032-0.523,0.133-0.681,0.071c-0.021-0.032-0.039-0.039-0.056-0.071
			c0-0.016,0.009-0.031,0.017-0.039c0.099-0.196,0.835-0.165,1.044-0.322c0.012-0.039,0.024-0.079,0.039-0.118
			c-0.015-0.039-0.021-0.086-0.027-0.125c-0.143-0.062-0.278-0.125-0.477-0.149c-0.346-0.054-0.677,0.322-0.881-0.007
			c-0.03-0.047-0.03-0.094-0.014-0.149c0.125-0.055,0.354-0.055,0.512-0.094c-0.018-0.008-0.022-0.023-0.044-0.031
			c-0.039-0.071-0.097-0.141-0.137-0.204c0.158-0.353,0.361,0.171,0.63-0.016V22.24c-0.031-0.11-0.122-0.196-0.196-0.25
			c0.01-0.017,0.011-0.024,0.011-0.024c0.037-0.04,0.063-0.071,0.103-0.094c0.29,0.078,0.744,0.149,0.806,0.463
			c0.031,0.164-0.16,0.274-0.116,0.352c0.069,0.102,0.139,0.188,0.198,0.29c0.062-0.062,0.129-0.109,0.191-0.179
			c0.113-0.078,0.246-0.048,0.341-0.149c-0.013-0.165-0.052-0.345,0.009-0.447c0.029-0.023,0.064-0.04,0.092-0.071h0.021
			c0.061,0.188,0.204,0.313,0.352,0.423c0.022-0.016,0.062-0.031,0.094-0.039v-0.016c-0.017-0.063-0.047-0.142-0.059-0.196
			c0.125-0.102,0.301-0.173,0.418-0.079c0.059,0.126,0.195,0.236,0.378,0.244c0.013-0.117-0.042-0.188-0.09-0.29
			c0.337,0.03,0.687,0.125,0.951-0.056v-0.312c0.125,0,0.255,0.015,0.332,0.078c0.108,0.258,0.339,0.204,0.606,0.321
			c0.018,0.032,0.041,0.071,0.053,0.095c-0.035,0.078-0.053,0.196-0.021,0.259c0.05,0.031,0.104,0.071,0.163,0.11
			c0.133,0.039,0.355-0.032,0.434,0.07c0.126,0.165,0.04,0.518-0.043,0.659c-0.118,0.023-0.229,0.054-0.356,0.085
			c-0.007,0.048-0.015,0.094-0.015,0.149c-0.054,0.235-0.277,0.345-0.512,0.227c-0.208,0.149-0.446,0.353-0.719,0.455
			c-0.195,0.017-0.398,0.048-0.598,0.071C30.302,24.475,30.323,24.812,29.791,24.726z M45.37,65.218c-0.03,0-0.05-0.015-0.05-0.015
			c-0.027-0.039-0.027-0.086-0.027-0.118c0.087-0.04,0.116-0.157,0.166-0.22c0.095,0.025,0.119,0.041,0.158,0.11
			C45.505,65.037,45.527,65.203,45.37,65.218z M69.256,76.204c-0.114-0.063-0.188-0.227-0.24-0.329l-0.03,0.024
			c-0.02,0.006-0.046,0.022-0.058,0.039c0,0.227,0.083,0.399,0.174,0.533c-0.045,0.221-0.242,0.314-0.296,0.501
			c-0.056,0.22,0.026,0.393-0.028,0.589c-0.295,0.949-0.594,1.904-0.888,2.861c-0.104,0.345-0.252,1.161-0.511,1.318
			c-0.133,0.016-0.266,0.04-0.406,0.046c-0.226,0.063-0.286,0.235-0.564,0.244c-0.155-0.244-0.506-0.18-0.671-0.416
			c-0.051-0.07-0.008-0.148-0.03-0.243c-0.056-0.142-0.225-0.172-0.165-0.455c0.019-0.086,0.048-0.196,0.07-0.282
			c-0.097-0.196-0.206-0.384-0.312-0.58c-0.025-0.141,0.092-0.549,0.174-0.604c0.047-0.024,0.099-0.039,0.154-0.062
			c0.092-0.093,0.477-0.863,0.421-1.089c-0.058-0.071-0.125-0.149-0.188-0.227c0.027-0.071,0.056-0.118,0.091-0.189
			c-0.103-0.117-0.285-0.563-0.234-0.761c0.102-0.266,0.273-0.321,0.273-0.753c0.08,0,0.163,0,0.261-0.015
			c0.048-0.024,0.091-0.062,0.142-0.102c0.066,0,0.132,0.062,0.21,0.023c0.04-0.039,0.074-0.071,0.103-0.119
			c0.177-0.078,0.273,0.063,0.415,0.025c-0.009-0.04-0.024-0.087-0.024-0.142c0.094-0.062,0.184-0.118,0.273-0.18
			c0.069,0.023,0.078,0.062,0.115,0.04c0.034-0.017,0.057-0.033,0.083-0.048c-0.038-0.047-0.054-0.07-0.083-0.142
			c0.068-0.054,0.131-0.102,0.193-0.157h0.01c0.026,0.055,0.026,0.062,0.104,0.071c0.038-0.039,0.089-0.093,0.129-0.149
			c-0.033-0.085-0.078-0.117-0.078-0.196l0.009-0.023c0.08,0,0.112-0.024,0.161-0.054c0.009-0.024,0.026-0.04,0.026-0.04
			c-0.04-0.133-0.079-0.212-0.075-0.353c0.042,0.007,0.075,0.016,0.113,0.016c0.026,0.078,0.052,0.117,0.117,0.141
			c0.052-0.125,0.117-0.134,0.203-0.197c0.152-0.133,0.156-0.408,0.14-0.595c0.126-0.102,0.115-0.133,0.251-0.016
			c0.063,0.141,0.198,0.141,0.273,0.258c0.149,0.196,0.129,0.815,0.228,1.098c0.054,0.102,0.105,0.204,0.16,0.306
			C69.474,75.953,69.317,76.141,69.256,76.204z M69.803,60.819c0,0.117-0.121,0.172-0.153,0.251
			c-0.012,0.18-0.031,0.336-0.037,0.509c-0.113,0.197-0.216,0.393-0.321,0.582c-0.09,0.078-0.169,0.156-0.268,0.235
			c0.021,0.062,0.021,0.118,0.029,0.165c-0.145,0.227-0.303,0.47-0.441,0.705c-0.021,0.095-0.037,0.188-0.06,0.274
			c-0.208,0.526-0.707,0.94-1.031,1.357c-0.168,0.203-0.329,0.407-0.506,0.611c-0.44,0.361-1,0.635-1.454,1.004
			c-0.406,0.455-0.812,0.917-1.22,1.38c0.041,0.087,0.041,0.11-0.006,0.188c-0.134,0.056-0.207,0.133-0.385,0.11
			c-0.003,0.283-0.174,0.283-0.366,0.392c-0.032,0.447-0.278,0.455-0.367,0.721c-0.028,0.118,0.046,0.196-0.039,0.33
			c-0.042,0.063-0.133,0.047-0.18,0.102c-0.083,0.086-0.27,0.689-0.2,0.877c0.071,0.181,0.27,0.283,0.391,0.432
			c-0.011,0.133-0.121,0.297-0.183,0.423c0.044,0.047,0.091,0.055,0.13,0.11c-0.116,0.314-0.025,0.878,0.143,1.083
			c0.157,0.227,0.391,0.25,0.513,0.533c-0.054,0.102-0.104,0.22-0.165,0.322c0.031,0.196,0.163,0.557,0.111,0.769
			c-0.025,0.093-0.08,0.149-0.096,0.219c0.165,0.188,0.105,0.526,0.147,0.847c0.035,0.024,0.075,0.04,0.126,0.063l0.017,0.062
			c-0.055,0.119-0.12,0.181-0.185,0.274c0.021,0.055,0.042,0.079,0.042,0.15c-0.208,0.234-0.389,0.571-0.653,0.759
			c-0.372,0.259-0.866,0.337-1.255,0.573c-0.338,0.21-0.498,0.564-0.787,0.799c-0.227,0.172-0.461,0.345-0.698,0.518v0.392
			c0.105,0.055,0.21,0.133,0.218,0.274c-0.078,0.196,0.02,0.502,0.099,0.737c0.077,0,0.086-0.017,0.139-0.032
			c0.017,0.244,0.028,0.518-0.034,0.753c-0.019,0.079-0.043,0.142-0.07,0.197c-0.004,0.015-0.016,0.023-0.021,0.04
			c0.028,0.062,0.116,0.015,0.125,0.132c-0.215,0.526-0.757,0.502-1.238,0.77c-0.216,0.117-0.328,0.274-0.477,0.454
			c0.009,0.016,0.026,0.032,0.044,0.041c0.027,0.069,0.104,0.117,0.188,0.148c0.034,0.281-0.04,0.792-0.184,0.98
			c-0.039,0.062-0.137,0.031-0.173,0.125c-0.009,0.039,0.083,0.181,0.044,0.274c-0.086,0.211-0.459,0.369-0.603,0.596
			c-0.574,0.887-1.178,1.592-1.99,2.235c-0.16,0.141-0.335,0.291-0.489,0.424c-0.147,0.109-0.68,0.047-0.779,0.14
			c-0.021,0.047-0.027,0.11-0.065,0.15c-0.111-0.032-0.225-0.048-0.333-0.071c-0.053,0.086-0.114,0.125-0.193,0.196
			c-0.152-0.055-0.374-0.275-0.616-0.196c-0.074,0.031-0.13,0.071-0.2,0.102c-0.228,0-0.355-0.133-0.652,0
			c-0.056,0.063-0.125,0.118-0.188,0.181c-0.203,0.093-0.471-0.063-0.688,0.007c-0.157,0.047-0.235,0.204-0.355,0.291
			c-0.098-0.023-0.275-0.101-0.323-0.172c-0.032-0.086-0.032-0.125-0.073-0.188c-0.097,0-0.152,0-0.203,0.016
			c-0.031-0.054-0.045-0.094-0.066-0.149c-0.062,0.016-0.065,0.016-0.104,0.031c-0.014,0.032-0.025,0.064-0.036,0.086
			c0,0-0.028,0-0.039-0.007c-0.028-0.023-0.045-0.039-0.06-0.071c0.031-0.086,0.062-0.181,0.099-0.282
			c-0.067-0.11-0.359-0.502-0.314-0.557c0.04-0.056,0.126-0.039,0.189-0.056c0.136-0.58-0.203-0.932-0.4-1.278
			c-0.218-0.399-0.295-0.886-0.53-1.254c-0.238-0.259-0.462-0.525-0.688-0.776c-0.074-0.204-0.133-0.416-0.208-0.612
			c0-0.054,0.075-0.103,0.044-0.205c-0.044-0.117-0.16-0.25-0.178-0.408c-0.007-0.117,0.096-0.235,0.056-0.399
			c-0.048-0.11-0.09-0.22-0.138-0.33c-0.058-0.266-0.121-0.541-0.17-0.815c0.326-0.33-0.254-0.839-0.402-1.128
			c-0.213-0.424-0.431-0.848-0.639-1.279c-0.128-0.204-0.348-0.369-0.421-0.635c-0.101-0.345-0.027-0.871-0.027-1.279
			c0.355-0.258,0.253-0.94,0.44-1.372c0.059-0.078,0.11-0.133,0.176-0.196c0.029-0.079,0.068-0.157,0.091-0.235
			c0.064-0.016,0.116-0.039,0.183-0.062c0.158-0.102,0.243-0.447,0.285-0.666c-0.022-0.197-0.042-0.384-0.058-0.58
			c-0.074-0.252-0.648-0.745-0.168-0.958c0.06-0.399-0.165-0.509-0.265-0.768c-0.038-0.119-0.056-0.236-0.083-0.369
			c-0.091-0.118-0.181-0.25-0.258-0.369c-0.118-0.195-0.023-0.375-0.078-0.51c-0.04-0.086-0.196-0.415-0.266-0.485
			c-0.216-0.204-0.439-0.408-0.653-0.619c-0.125-0.173-0.229-0.291-0.398-0.409c0.014-0.023,0.039-0.055,0.053-0.086
			c-0.069-0.085-0.1-0.031-0.207-0.094c-0.082-0.118-0.16-0.244-0.256-0.36c0.022-0.008,0.022-0.008,0.022-0.008
			c0.038-0.039,0.086-0.071,0.125-0.102c-0.078-0.11-0.156-0.062-0.23-0.133c-0.042-0.039-0.12-0.227-0.147-0.275
			c0.23-0.101,0.312-0.305,0.378-0.579c0.068,0.007,0.146,0.023,0.224,0.031v-0.007c-0.106-0.103-0.185-0.181-0.289-0.259
			c0.134-0.039,0.156-0.157,0.147-0.322c-0.043-0.016-0.097-0.016-0.147-0.031l0.014-0.032c0.13-0.125,0.247-0.322,0.298-0.518
			c-0.012-0.055-0.03-0.117-0.051-0.18c0.021-0.078,0.039-0.172,0.067-0.258c-0.039-0.173-0.157-0.314-0.194-0.47
			c0.03-0.017,0.061-0.055,0.096-0.086c-0.008-0.008-0.008-0.008-0.019-0.024c-0.017-0.023-0.037-0.047-0.047-0.078
			c-0.449,0.015-0.307-0.079-0.438-0.33c-0.063-0.062-0.297-0.125-0.353-0.095c0.028,0.056,0.038,0.071,0.028,0.127
			c-0.221,0.085-0.475,0.046-0.67,0.015c-0.363,0.33-1,0.024-1.048-0.383c0.021-0.071,0.048-0.134,0.07-0.189
			c-0.01-0.015-0.022-0.039-0.031-0.062h-0.136c-0.028-0.054-0.069-0.102-0.09-0.156c-0.087-0.103-0.501-0.369-0.653-0.392
			c-0.082,0.023-0.091,0.086-0.16,0.102c-0.411,0.04-0.832,0.079-1.246,0.117c-0.145,0.047-0.152,0.189-0.258,0.26
			c-0.161,0.022-0.341,0.046-0.514,0.055c-0.395,0.181-0.797,0.369-1.203,0.557c-0.081-0.071-0.48-0.322-0.56-0.329
			c-0.025,0.024-0.046,0.047-0.064,0.07c-0.129,0.047-0.313-0.054-0.402-0.07c-0.232-0.055-0.623,0-0.8,0.047
			c-0.203,0.055-0.416,0.118-0.628,0.172c-0.199,0.11-0.395,0.212-0.594,0.314c-0.152,0.039-0.637-0.275-0.759-0.338
			c-0.388-0.195-0.613-0.471-0.938-0.706c-0.16-0.085-0.312-0.172-0.473-0.25c-0.221-0.142-0.35-0.36-0.637-0.448
			c0.01-0.086,0.022-0.117-0.017-0.179c-0.199-0.032-0.454-0.219-0.508-0.392h0.019c0.047-0.048,0.099-0.087,0.134-0.118v-0.055
			c-0.052-0.008-0.099-0.008-0.125-0.047v-0.188c-0.04-0.149-0.207-0.197-0.273-0.313c-0.017-0.063-0.029-0.134-0.039-0.188
			c-0.196-0.064-0.392-0.189-0.521-0.33c0.025-0.063,0.025-0.119,0-0.188c-0.123,0.016-0.176-0.016-0.235-0.055
			c0-0.062,0.014-0.079-0.018-0.117c-0.048-0.047-0.139-0.047-0.195-0.087c-0.035-0.165,0.066-0.227,0.14-0.313
			c-0.083-0.118-0.269-0.04-0.386-0.031c-0.091-0.041-0.169-0.087-0.251-0.134c-0.008-0.031-0.026-0.063-0.034-0.102
			c-0.189-0.118-0.105,0.071-0.265-0.196c0.043-0.158-0.037-0.369,0.068-0.51c0.027-0.008,0.067-0.017,0.105-0.024
			c0-0.07,0-0.11-0.027-0.149c-0.168-0.078-0.168-0.454-0.519-0.611c0.009-0.008,0.012-0.016,0.012-0.016
			c0.245-0.103,0.464-0.455,0.534-0.714c0.013-0.141,0.026-0.273,0.047-0.407c0.134-0.463,0.407-1.184-0.047-1.544
			c0.181-0.275,0.168-0.902-0.221-0.934c-0.032,0.031-0.068,0.062-0.096,0.094c-0.027-0.25,0.018-0.596,0.134-0.76
			c0.084-0.102,0.183-0.203,0.273-0.306c0.116-0.283,0.246-0.564,0.363-0.854c0.133-0.172,0.398-0.268,0.485-0.462
			c0-0.088,0-0.181,0.008-0.267c0.046-0.205,0.135-0.447,0.253-0.613c0.103-0.148,0.353-0.179,0.47-0.321
			c0.144-0.181,0.183-0.652,0.398-0.753c0.188-0.086,0.426-0.078,0.598-0.141c0.337-0.157,0.936-0.667,1.129-0.949
			c0.312-0.471-0.128-0.675,0.012-1.067c0.067-0.165,0.224-0.275,0.301-0.415c0.051-0.119,0-0.259,0.04-0.377
			c0.038-0.102,0.379-0.4,0.477-0.471c0.316-0.22,0.727-0.244,0.958-0.533c0.153-0.205,0.34-0.949,0.486-1.05
			c0.061-0.031,0.122-0.063,0.178-0.094c0.183,0.172,0.281,0.408,0.546,0.478c0.271,0.079,0.936-0.125,0.936-0.125
			c0.075,0.172,0.367,0.25,0.621,0.179c0.235-0.07,0.223-0.235,0.379-0.352c0.063-0.039,0.396-0.157,0.475-0.164
			c0.045,0.046,0.082,0.069,0.178,0.078c0.165-0.149,0.299-0.337,0.521-0.423c0.234-0.103,0.558-0.04,0.848-0.086
			c0.091-0.04,0.182-0.086,0.271-0.134c0.104-0.015,0.171,0.094,0.316,0.039c0.066-0.039,0.14-0.079,0.218-0.133
			c0.395-0.087,0.641,0.211,0.982,0.133c0.217-0.047,0.373-0.164,0.519-0.274c0.134,0.055,0.195,0.142,0.352,0.165
			c0.1-0.048,0.146-0.142,0.267-0.149c0.156,0.047,0.222,0.172,0.273,0.188c0.324,0.094,0.657-0.26,0.845-0.322
			c0.062-0.015,0.113-0.023,0.174-0.039c0.091,0.055,0.185,0.094,0.275,0.134c0,0.102,0.043,0.165,0.07,0.25l0.061,0.008
			c0.122-0.07,0.251-0.141,0.385-0.22c0,0.416-0.676,0.564-0.012,0.941c0.012,0.086,0.034,0.173,0.051,0.259
			c0.008,0.157-0.512,0.596-0.632,0.722c0.047,0.196,0.242,0.329,0.398,0.417c0.104-0.024,0.117-0.064,0.233-0.056
			c0.019,0.071,0.039,0.134,0.047,0.204c0.256,0.103,0.508,0.212,0.77,0.321c0.188-0.007,0.371-0.022,0.552-0.039
			c0.131,0.032,0.263,0.055,0.394,0.079c0.053,0.039,0.104,0.094,0.152,0.149c0.096,0.046,0.188,0.008,0.311,0.046
			c0.204,0.079,0.241,0.55,0.468,0.683c0.216,0.125,0.801,0.133,1.064,0.235c0.261,0.102,0.481,0.431,0.78,0.463
			c0.115,0.007,0.213-0.095,0.29-0.133c0.614-0.33,0.012-0.573,0.286-1.028c0.198-0.345,1.025-0.634,1.527-0.415
			c0.195,0.086,0.138,0.266,0.259,0.329c0.147,0.071,0.485,0.119,0.641,0.142h0.288c0.12,0.04,0.09,0.235,0.207,0.29h0.627
			c0.289,0.063,0.57,0.119,0.858,0.188c0.034,0.04,0.059,0.079,0.081,0.103c0.131,0.016,0.247,0.016,0.364,0.031
			c0.107,0.032,0.254,0.166,0.411,0.133c0.086-0.069,0.164-0.133,0.241-0.188c0.286-0.204,0.754-0.306,1.17-0.211
			c0.043,0.132,0.108,0.149,0.195,0.234c0.238-0.046,0.329,0.095,0.54-0.062c0.351,0.188,0.429,0,0.664-0.04
			c0.146,0.377,0.293,0.746,0.441,1.13c-0.254,0.212-0.204,0.683-0.363,0.997c-0.051,0.007-0.118,0.016-0.149-0.032
			c-0.348-0.298-0.633-0.775-0.784-1.262c-0.11,0.047-0.121,0.094-0.189,0.188c0.079,0.446,0.398,0.674,0.588,1.011
			c0.105,0.291,0.214,0.573,0.324,0.847c0.251,0.415,0.446,0.909,0.728,1.318c0.097,0.101,0.19,0.195,0.292,0.305
			c-0.047,0.039-0.09,0.079-0.136,0.118c0.046,0.157,0.054,0.353,0.151,0.47c0.062,0.102,0.207,0.125,0.303,0.204
			c0.205,0.15,0.441,0.573,0.503,0.839c0.104,0.407-0.044,1.137,0.172,1.427c0.128,0.181,0.617,0.274,0.715,0.494
			c0.204,0.47,0.285,1.404,0.646,1.702c0.008-0.009,0.025-0.009,0.025-0.009c0.01-0.054,0-0.172,0.036-0.211
			c0.12,0.056,0.189,0.22,0.258,0.33c0.105,0,0.183-0.023,0.248,0.007c0.176,0.196,0.354,0.392,0.531,0.581
			c0.058,0.039,0.161,0,0.205,0.047c0.107,0.11,0.143,0.345,0.176,0.369c0.192,0.196,0.642,0.274,0.655,0.612
			c-0.105,0.11-0.377,0.227-0.517,0.282v0.024c0.005,0.007,0.022,0.015,0.022,0.015c0.122,0.015,0.273,0,0.381,0.024
			c0.113,0.251,0.343,0.47,0.529,0.666h0.353c0.171-0.079,0.352-0.165,0.524-0.235c0.23-0.047,0.286,0.141,0.48,0.062
			c0.141-0.086,0.29-0.18,0.43-0.275h0.02c0.118,0.024,0.23,0.033,0.344,0.041c0.121-0.024,0.225-0.166,0.391-0.126
			c0.095,0.016,0.224,0.079,0.376,0.039c0.332-0.07,0.527-0.234,0.754-0.407c0.105,0.039,0.199,0.078,0.31,0.125
			c0,0,0,0.023,0.01,0.031c-0.043,0.085-0.068,0.157-0.101,0.234C69.725,60.616,69.795,60.733,69.803,60.819z M45.428,41.114
			c0.078-0.078,0.411-0.22,0.411-0.22c0.012-0.054,0.017-0.117,0.027-0.173c0.012-0.006,0.012-0.006,0.012-0.006
			c0.035,0.006,0.047,0.015,0.063,0.039c0.011,0.36,0.062,0.87-0.146,1.098c-0.03-0.016-0.048-0.016-0.075-0.016v-0.062
			c-0.037-0.016-0.077-0.016-0.115-0.016c-0.021-0.024-0.04-0.024-0.07-0.047c0.03-0.031,0.049-0.054,0.07-0.086
			c-0.04-0.024-0.078-0.039-0.135-0.055c0.017-0.007,0.017-0.023,0.017-0.023c0.027-0.023,0.048-0.04,0.066-0.062v-0.016
			c-0.083,0.007-0.083,0.031-0.105-0.04c0.011-0.007,0.039-0.022,0.057-0.039c-0.046-0.062-0.077-0.062-0.082-0.141
			c0.014-0.015,0.025-0.023,0.036-0.039C45.437,41.169,45.437,41.169,45.428,41.114z M45.851,41.968
			c0.105,0.039,0.368,0.33,0.301,0.51c-0.014,0.055-0.078,0.117-0.087,0.188c0.009,0.102,0.021,0.18,0.037,0.283
			c0.019,0.157-0.067,0.266-0.106,0.376c-0.096-0.023-0.187-0.062-0.292-0.023c-0.029,0.055-0.072,0.103-0.115,0.157
			c-0.421-0.094-0.117-0.486-0.179-0.847c-0.039-0.188-0.155-0.235-0.19-0.391c0.006-0.009,0.014-0.015,0.025-0.032
			C45.531,42.141,45.687,42.125,45.851,41.968z M49.2,44.571c0.045,0.095,0.113,0.118,0.09,0.197
			c-0.069,0.039-0.121,0.133-0.192,0.181c-0.377-0.102-0.71-0.322-1.056-0.494c-0.17-0.086-0.283-0.023-0.366-0.196
			c0.083-0.291,0.319-0.142,0.496-0.297c0.302,0.196,0.471,0.188,0.896,0.078c0.102-0.016,0.223-0.071,0.329-0.056v0.024
			C49.341,44.133,49.13,44.392,49.2,44.571z M54.258,45.724c0.035-0.007,0.059-0.031,0.086-0.055
			c0.013,0.017,0.018,0.032,0.027,0.047c-0.015,0.015-0.027,0.032-0.035,0.048c0.07,0.006,0.056,0.023,0.099,0.062
			c0.132-0.017,0.272-0.024,0.408-0.04c0.146,0.07,0.216,0.094,0.407,0.07l0.008,0.008c-0.004,0.024-0.008,0.062-0.014,0.095
			c0.01,0.007,0.03,0.023,0.049,0.039c0.095-0.062,0.196-0.078,0.289-0.133c-0.014,0.086-0.035,0.141-0.064,0.196
			c-0.278,0.024-0.56,0.031-0.837,0.056c0-0.032,0-0.063,0-0.063c-0.188-0.103-0.531-0.087-0.695-0.165
			c0.004-0.062,0.022-0.125,0.03-0.188h0.062c0.013-0.055,0.013-0.047,0.028-0.071v0.016C54.149,45.701,54.188,45.708,54.258,45.724
			z M59.984,46.038c-0.246,0.016-0.289,0.196-0.566,0.196c-0.017,0.078,0,0.062-0.04,0.078c-0.073-0.054-0.233-0.062-0.312-0.102
			c-0.035-0.087-0.064-0.118-0.091-0.212c0.026,0,0.352-0.086,0.364-0.094c0.027-0.047,0.027-0.078,0-0.134
			c0.117,0.017,0.233,0.032,0.351,0.039c0.188-0.062,0.385-0.141,0.579-0.203c-0.109,0.117-0.267,0.188-0.371,0.321
			C59.924,45.96,59.959,46.006,59.984,46.038z M86.534,63.533c-0.156-0.118-0.251-0.448-0.292-0.644v-0.626
			c-0.021-0.127-0.075-0.142-0.017-0.275c-0.03-0.031-0.059-0.063-0.081-0.102c0-0.031,0.015-0.056,0.022-0.078
			c0.105,0.022,0.116,0,0.188-0.055c0.051-0.148,0.09-0.227,0.051-0.369c0.291,0.181,0.487,0.369,0.547,0.737
			c0.156,0.048,0.139,0.133,0.216,0.275c0.073,0.148,0.23,0.297,0.246,0.471C87.461,63.25,86.936,63.611,86.534,63.533z
			 M89.29,55.628c-0.198,0.234-0.395,0.479-0.579,0.706c-0.083,0.062-0.164,0.062-0.248,0.118c-0.126,0.078-0.204,0.274-0.349,0.369
			c-0.126,0.062-0.248,0.125-0.381,0.188c-0.118,0.094-0.076,0.337-0.205,0.423c-0.121,0.079-0.333,0.039-0.45,0.094
			c-0.031,0.117-0.094,0.274-0.185,0.329c-0.152-0.086-0.253-0.054-0.378,0.04c-0.035,0.086-0.082,0.18-0.126,0.274
			c-0.062,0.314,0.118,0.612,0,0.885c0.352,0.377-0.164,0.864-0.208,1.287c-0.025,0.227,0.079,0.479,0.04,0.713
			c-0.133-0.008-0.273-0.008-0.343,0.04c-0.048,0.133-0.095,0.274-0.138,0.423c0.039,0.023,0.077,0.056,0.1,0.11
			c-0.161,0.054-0.315,0.109-0.479,0.165c-0.07,0.078-0.028,0.18-0.085,0.29c-0.057,0.117-0.302,0.235-0.475,0.244
			c-0.122-0.127-0.238-0.244-0.355-0.377c-0.058-0.227-0.118-0.439-0.183-0.667c-0.142-0.312-0.286-0.634-0.441-0.956
			c-0.073-0.103-0.146-0.22-0.216-0.33c-0.052-0.157-0.083-0.298-0.125-0.455c-0.098-0.313-0.196-0.619-0.325-0.902
			c-0.183-0.407-0.46-0.785-0.599-1.286c-0.069-0.407-0.137-0.8-0.198-1.207c-0.052-0.298-0.104-0.573-0.156-0.863
			c0-0.148,0.17-0.258,0.195-0.376c0.022-0.117-0.173-0.195-0.195-0.29c-0.062-0.157-0.067-0.415-0.026-0.557
			c-0.117,0-0.216,0-0.279,0.039c-0.023,0.047-0.033,0.118-0.046,0.165c0.243,0.345-0.216,0.502-0.502,0.588
			c-0.077,0.032-0.162,0.071-0.237,0.095c-0.273-0.016-1.029-0.776-1.112-1.003h0.022c0.302-0.103,0.44,0.14,0.719-0.15
			c0.06-0.062,0.107-0.086,0.098-0.188c-0.423,0.148-0.969-0.056-1.164-0.29c-0.066-0.095-0.121-0.172-0.185-0.259
			c-0.141-0.079-0.273-0.017-0.363-0.149c-0.05-0.133-0.097-0.267-0.145-0.4c-0.094-0.023-0.185-0.031-0.272-0.062
			c0.01-0.235,0.01-0.33-0.129-0.439c-0.274,0.022-1.188,0.376-1.356,0.046c-0.173,0.032-0.255,0.109-0.368,0.148h-0.562
			c-0.192,0.025-0.438,0.127-0.696,0.087c-0.19-0.039-0.281-0.117-0.425-0.165c-0.28,0-0.561-0.008-0.834-0.008
			c-0.05-0.046-0.098-0.102-0.145-0.142H73.69c-0.097-0.039-0.226-0.125-0.363-0.157c0-0.179-0.136-0.274-0.183-0.408
			c-0.043-0.109-0.031-0.227-0.061-0.305c-0.1,0-0.073-0.055-0.17-0.079c-0.243-0.054-0.454,0.016-0.639,0.086
			c-0.022,0.095-0.296,0.267-0.39,0.345c-0.17-0.032-0.247-0.148-0.383-0.196c-0.254-0.078-0.449-0.07-0.657-0.197
			c-0.098-0.117-0.183-0.235-0.277-0.343c-0.172-0.127-0.479-0.104-0.613-0.291c-0.102-0.157-0.309-0.494-0.381-0.651v-0.212
			c-0.045-0.125-0.235-0.266-0.318-0.401c-0.154,0.049-0.402,0.079-0.479-0.07c-0.035-0.039-0.043-0.101-0.035-0.18h-0.038
			c-0.157,0.062-0.148,0.196-0.247,0.299c-0.141-0.009-0.416,0-0.465,0.078c0.022,0.07,0.031,0.149,0.049,0.227c0,0-0.053,0-0.088,0
			c-0.043,0.047-0.086,0.109-0.121,0.157c0.023,0.008,0.044,0.023,0.078,0.04c0.062-0.024,0.133-0.031,0.209-0.055
			c0.095,0.385,0.272,0.729,0.41,1.089c0.108,0,0.151-0.008,0.213,0.024c-0.03,0.07-0.053,0.063,0.03,0.125
			c0.081,0.204,0.35,0.181,0.483,0.328c-0.017,0.112-0.055,0.095-0.098,0.15c0.025,0.046,0.055,0.086,0.081,0.125
			c-0.098,0.227-0.038,0.25,0.019,0.455c0.087-0.016,0.087,0.015,0.15,0.069c0.011,0.197,0.136,0.496,0.229,0.604
			c0.113,0.008,0.105-0.04,0.1-0.172c-0.1-0.234-0.029-0.682,0.126-0.8c0,0,0.068,0,0.092,0.008c0.033,0.086,0.062,0.062,0.104,0.11
			c0.017,0.032,0.056,0.502,0.056,0.55c-0.014,0.18-0.222,0.259-0.159,0.431c0.094,0.031,0.159,0.038,0.134,0.149
			c0.143,0,0.245,0.022,0.389,0.015c0.027-0.055,0.027-0.055,0.064-0.085c0.161,0.071,0.792,0.085,0.936,0.031
			c0,0,0-0.031,0.01-0.054c0.062,0.031,0.112,0.023,0.194,0.008c0.034-0.103,0.06-0.079,0.129-0.142
			c0.048-0.087,0.082-0.172,0.143-0.259c0.183-0.243,0.394-0.345,0.612-0.526c0.078-0.117,0.167-0.227,0.258-0.335h0.017
			c0.015,0.219-0.031,0.321-0.119,0.447c0.067,0,0.083,0.007,0.119,0.046c0.039,0.094-0.031,0.267,0.02,0.393
			c0.059,0.172,0.272,0.392,0.41,0.485c0.175,0.095,0.352,0.196,0.519,0.291c0.126,0.039,0.231-0.054,0.329,0.016
			c0.125,0.157,0.249,0.313,0.379,0.471c0.078,0.079,0.285,0.118,0.311,0.251c-0.088,0.173-0.203,0.329-0.311,0.471
			c-0.093,0.086-0.166,0.165-0.254,0.242c-0.07,0.118-0.09,0.33-0.202,0.409c-0.099,0.055-0.225-0.032-0.333,0.016
			c-0.074,0.227-0.034,0.596-0.044,0.824c-0.315,0.007-0.592,0.078-0.696,0.313c-0.038,0.086-0.019,0.165-0.088,0.22
			c-0.16,0.14-0.341,0.023-0.523,0.101c-0.181,0.078-0.134,0.313-0.22,0.487c-0.055,0.022-0.099,0.062-0.144,0.094
			c-0.138-0.023-0.276-0.032-0.415-0.054c-0.238,0.078-0.474,0.156-0.709,0.242c-0.143,0.047-0.351,0.189-0.408,0.337
			c-0.061,0.141-0.035,0.235-0.151,0.313c-0.428,0.26-1.047,0.26-1.506,0.518c-0.122,0.078-0.165,0.235-0.298,0.313
			c-0.126,0.064-0.301-0.006-0.454,0.04c-0.219,0.07-0.413,0.259-0.672,0.329c-0.16,0.056-0.398-0.022-0.576,0.023
			c-0.116,0.095-0.229,0.189-0.342,0.275c-0.333,0.227-0.9,0.29-1.082-0.103v-0.431c-0.104-0.283-0.268-0.636-0.329-0.965
			c-0.027-0.118,0.056-0.172,0.069-0.25c-0.034-0.133-0.039-0.267-0.069-0.4c-0.078-0.22-0.281-0.542-0.454-0.682
			c-0.069-0.047-0.136-0.086-0.199-0.149c-0.18-0.354-0.347-0.721-0.532-1.074c-0.136-0.164-0.443-0.204-0.586-0.4
			c-0.09-0.142-0.194-0.282-0.284-0.423c-0.113-0.283,0.021-0.65-0.113-0.902c-0.121-0.235-0.255-0.47-0.38-0.69
			c-0.204-0.204-0.47-0.266-0.637-0.494c0.082-0.368-0.165-0.58-0.321-0.815c-0.223-0.306-0.378-0.588-0.585-0.934
			c-0.091-0.117-0.185-0.235-0.272-0.344c-0.072-0.009-0.15-0.009-0.208-0.017c0.003-0.243,0.136-0.525,0.179-0.799
			c-0.053-0.04-0.078-0.032-0.096-0.055c-0.15-0.377-0.295-0.737-0.44-1.113c0.185-0.142,0.263-0.392,0.341-0.651
			c0.017-0.086,0.02-0.172,0.055-0.251c0.188-0.336,0.301-0.847,0.591-1.137c-0.109-0.266,0.019-0.43-0.148-0.65
			c0.054-0.094,0.104-0.188,0.122-0.298c-0.033-0.062-0.068-0.11-0.096-0.18c0.062-0.087,0.169-0.141,0.247-0.22
			c0,0-0.017-0.054-0.017-0.078c-0.023-0.024-0.05-0.063-0.078-0.102h-0.043c-0.074,0.102-0.165,0.156-0.243,0.235
			c-0.211-0.032-0.29-0.149-0.565-0.149c-0.098,0.133-0.216,0.172-0.301,0.329c-0.156,0.04-0.472,0.173-0.749,0.094
			c-0.181-0.071-0.249-0.25-0.39-0.345c-0.198-0.126-0.488-0.196-0.773-0.165c-0.026,0.14-0.056,0.282-0.078,0.431
			c-0.025,0.007-0.051,0.007-0.051,0.007c-0.156-0.086-0.418,0.031-0.612-0.039c-0.047-0.118-0.091-0.235-0.146-0.345
			c-0.051,0.047-0.088,0.102-0.147,0.071c-0.117-0.048-0.126-0.103-0.294-0.094c-0.038,0.046-0.078,0.086-0.116,0.125l-0.026-0.016
			c-0.014-0.023-0.026-0.062-0.04-0.085c0.014-0.062,0.031-0.062,0.066-0.094c0-0.017-0.015-0.023-0.015-0.023
			c-0.135-0.016-0.268-0.032-0.405-0.048c-0.01-0.023-0.019-0.047-0.03-0.079c0.056-0.006,0.103-0.039,0.168-0.046
			c-0.019-0.023-0.019-0.04-0.019-0.056c-0.064-0.046-0.138-0.086-0.199-0.133c-0.056-0.078-0.013-0.203-0.013-0.321
			c-0.171-0.039-0.238-0.109-0.441-0.133V43.89c0.027-0.039,0.048-0.093,0.062-0.133c0.068,0.04,0.122,0.078,0.182,0.078
			c0.085-0.062,0.101-0.031,0.029-0.117c-0.05-0.039-0.089-0.102-0.069-0.157c0.069-0.008,0.135-0.039,0.175-0.078
			c-0.015-0.024-0.022-0.039-0.04-0.048h-0.107c0.013-0.093,0.042-0.078,0.024-0.133c-0.032-0.039-0.055-0.079-0.13-0.087
			c0.04-0.031,0.059-0.062,0.085-0.094c0.062-0.031,0.09-0.055,0.118-0.109v-0.009c-0.163,0.023-0.341,0.048-0.512,0.078
			c0-0.117,0.04-0.234,0.067-0.375c0.144-0.015,0.065-0.054,0.125-0.125c0.108-0.102,0.329-0.164,0.507-0.181
			c0.035,0.103,0.177,0.118,0.308,0.079c0,0,0-0.023,0-0.039c-0.022-0.017-0.047-0.017-0.047-0.017
			c-0.018-0.023-0.018-0.031-0.015-0.047c0.062-0.007,0.105-0.007,0.178,0.023c-0.021,0.023-0.038,0.04-0.064,0.062
			c0.235-0.007,0.431-0.022,0.666,0.017c0.01-0.017,0.026-0.032,0.038-0.056l-0.038-0.007c-0.052-0.017-0.107-0.04-0.158-0.047
			c0-0.047,0.021-0.062,0.051-0.103c0.185,0,0.406-0.007,0.549-0.061v-0.017c-0.106,0.017-0.208,0.017-0.311,0.017
			c-0.026-0.096-0.104-0.119-0.16-0.174c0.029-0.046,0.056-0.102,0.067-0.156c0.184,0.023,0.36,0.03,0.556,0.054
			c0.038-0.007,0.07-0.024,0.108-0.031c0.235,0.039,0.351,0.164,0.629,0.023c-0.011-0.04-0.015-0.07-0.015-0.103
			c0.339-0.11,0.614-0.36,1.005-0.455c0.429-0.093,0.715,0.158,1.06-0.054c0.091,0.11,0.082,0.243,0.238,0.282
			c0.136,0.031,0.281-0.062,0.332-0.024c0.077,0.141,0.093,0.22,0.238,0.29c0.282-0.101,0.331,0.11,0.577,0.149
			c0.2,0.04,0.553,0.118,0.748,0.079c0.091-0.039,0.203-0.071,0.308-0.102c0.227-0.04,0.399,0.118,0.662,0.063
			c0.456-0.118,0.793-0.314,0.637-0.878c-0.039-0.103-0.067-0.212-0.091-0.314c-0.139-0.212-0.546-0.259-0.74-0.416
			c0.002-0.031,0.009-0.07,0.014-0.109c-0.117,0.008-0.255-0.189-0.34-0.259c-0.172-0.133-0.336-0.313-0.552-0.416
			c-0.093-0.023-0.183-0.039-0.261-0.071c-0.072-0.047-0.107-0.133-0.185-0.188c-0.062,0.032-0.091,0.055-0.175,0.039
			c-0.111-0.102-0.229-0.267-0.32-0.384c0.118-0.032,0.326-0.056,0.417-0.11c0.016-0.196,0.112-0.282,0.167-0.438
			c0.126,0,0.213-0.016,0.278-0.07c-0.095-0.164-0.242-0.243-0.378-0.354c0.011-0.015,0.027-0.039,0.045-0.054
			c0.318-0.016,0.604-0.15,0.805-0.299c-0.014-0.047-0.042-0.085-0.061-0.125c-0.186,0.031-0.355,0.062-0.547,0.102
			c-0.017,0.039,0,0.023-0.029,0.047c-0.136,0.016-0.28,0.031-0.433,0.046c-0.044,0.047-0.091,0.102-0.133,0.149
			c-0.247,0.047-0.497,0.094-0.737,0.133c-0.076,0.031-0.096,0.102-0.201,0.134c-0.046,0.016-0.037,0.023-0.081,0
			c-0.032-0.023-0.067-0.055-0.095-0.078c0,0-0.008,0-0.018,0.016c-0.037,0.118-0.091,0.164-0.162,0.243
			c-0.21,0.015-0.403-0.008-0.6,0.039c0,0.008,0.01,0.023,0.01,0.023c0.273,0.086,0.618,0.345,0.661,0.596
			c0.179,0.047,0.324-0.071,0.468-0.078c0.117,0.007,0.247,0.039,0.363,0.046c-0.012,0.079-0.078,0.157-0.116,0.228
			c-0.078,0.008-0.156,0.023-0.229,0.039c-0.083-0.016-0.143-0.094-0.264-0.056c-0.062,0.056-0.131,0.111-0.203,0.166
			c-0.09,0.016-0.195,0.016-0.294,0.024c-0.347,0.125-0.092,0.274-0.656,0.18c0-0.016,0-0.022,0-0.022
			c0.215-0.534-0.103-0.472-0.501-0.542c-0.011-0.016-0.018-0.04-0.026-0.055c0.164-0.156,0.516-0.211,0.646-0.354
			c-0.024-0.055-0.043-0.101-0.07-0.156c-0.371,0-0.709,0.087-0.895-0.173c0,0,0-0.023,0-0.03c0.047-0.04,0.092-0.079,0.133-0.118
			v-0.024c-0.041-0.055-0.08-0.102-0.119-0.158c-0.014,0.009-0.031,0.024-0.031,0.024c-0.018,0.039-0.043,0.063-0.058,0.086
			c-0.793-0.008-0.613,0.385-0.998,0.619c-0.112,0.071-0.361,0.056-0.296,0.259c0.032,0.056,0.065,0.063,0.093,0.126
			c-0.041,0.094-0.088,0.188-0.131,0.291c-0.441,0.015-0.489,0.369-0.559,0.76c-0.013,0.071-0.025,0.157-0.029,0.236
			c-0.026,0.039-0.191,0.055-0.234,0.07c-0.026,0.149-0.065,0.275-0.097,0.439c-0.11,0.039-0.133,0.079-0.206,0.158v0.101
			c0.178-0.032,0.354,0.486,0.527,0.581c0.127,0.078,0.322,0.055,0.412,0.181c-0.039,0.07-0.082,0.125-0.127,0.188
			c-0.313-0.016-0.271-0.133-0.536-0.024c-0.104,0.04-0.216-0.015-0.299,0.04c-0.029,0.047-0.055,0.109-0.085,0.164
			c-0.126,0.056-0.246,0.11-0.369,0.157c-0.087,0.079-0.147,0.197-0.268,0.244c0.017-0.055,0.028-0.125,0.042-0.188
			c0.07-0.039,0.13-0.062,0.196-0.11c0-0.008-0.016-0.023-0.016-0.023c-0.081-0.023-0.223-0.047-0.285-0.086
			c-0.011,0.015-0.03,0.039-0.051,0.047c-0.027-0.259-0.469-0.04-0.563-0.235c-0.09,0.046-0.141,0.094-0.297,0.109
			c-0.02-0.078-0.02-0.071-0.077-0.078c-0.21,0.181-0.153,0.086-0.422,0.141c0,0.008,0,0.017,0,0.017
			c0.082,0.196,0.257,0.235,0.382,0.392c-0.015,0.007-0.027,0.023-0.043,0.031c-0.035-0.031-0.062-0.063-0.1-0.087
			c-0.027-0.062-0.088-0.078-0.166-0.086c-0.02,0.008-0.035,0.031-0.063,0.055c0.048,0.087,0.119,0.087,0.169,0.173l-0.016,0.031
			c-0.034,0-0.054,0.008-0.09,0.016c-0.043-0.102-0.133-0.195-0.28-0.204v0.016c0.051,0.095,0.147,0.133,0.207,0.212h-0.024
			c-0.058-0.008-0.118-0.016-0.183-0.023c-0.013-0.227-0.209-0.212-0.286-0.361c0,0,0.035-0.023,0.061-0.047
			c-0.001-0.007-0.006-0.031-0.006-0.031c-0.024-0.023-0.039-0.023-0.039-0.023c-0.055,0.062-0.103,0.078-0.163,0.101
			c0.015,0.032,0.042,0.056,0.049,0.087c-0.034,0.047-0.062,0.086-0.062,0.173c0.105,0.227,0.277,0.423,0.434,0.603
			c-0.012,0.032-0.043,0.047-0.054,0.071c-0.009,0.008-0.024,0.008-0.024,0.008h-0.019c0.002-0.062,0-0.079-0.037-0.134
			c-0.079-0.022-0.085-0.022-0.156,0.017c0,0,0,0,0,0.016c0.032,0.055,0.052,0.109,0.077,0.172
			c-0.061,0.039-0.115,0.063-0.205,0.078v0.008c0.16,0.039,0.816,0.376,0.828,0.502c0,0-0.03,0-0.047,0.008
			c0.02,0.079,0.047,0.165,0.068,0.243c-0.021,0.015-0.049,0.04-0.068,0.055c-0.015-0.015-0.022-0.015-0.022-0.015
			c-0.048-0.096-0.16-0.237-0.247-0.237c-0.094,0.024-0.188,0.047-0.269,0.079c0.041,0.062,0.058,0.118,0.097,0.212
			c0.035-0.017,0.086-0.017,0.134-0.024c-0.009,0.087,0,0.071,0.042,0.126c-0.103,0-0.12,0.023-0.16,0.086
			c-0.032-0.023-0.071-0.023-0.106-0.039c0.021-0.023,0.033-0.047,0.035-0.079H53.7c-0.066-0.007-0.143-0.039-0.191-0.055v0.055
			c0.065,0.196,0.17,0.314,0.17,0.581c-0.089-0.055-0.159-0.109-0.265-0.055c-0.023,0.039-0.043,0.078-0.063,0.118l-0.027-0.016
			c-0.022-0.102-0.129-0.313-0.207-0.274c-0.039,0.032-0.078,0.063-0.118,0.086c-0.038-0.031-0.078-0.071-0.104-0.093
			c-0.012-0.103,0.043-0.213,0.022-0.291c-0.074-0.094-0.152-0.179-0.23-0.275c0.039-0.078,0.091-0.141,0.125-0.235
			c0.153,0.017,0.238-0.07,0.312-0.055c0.228,0.039,0.435,0.346,0.63,0.079v-0.024c-0.195-0.016-0.277-0.117-0.43-0.171
			c-0.246-0.064-0.48,0.039-0.679,0.054c-0.074-0.11-0.148-0.211-0.219-0.33c0,0,0,0,0-0.016c0.093-0.008,0.156,0,0.219-0.062
			c0-0.015,0-0.024,0-0.024c-0.023-0.03-0.035-0.03-0.049-0.055c-0.26,0.04-0.473-0.141-0.553-0.328
			c-0.018-0.071-0.027-0.118-0.035-0.181c-0.1-0.125-0.329-0.165-0.381-0.306c0.032,0,0.043,0,0.07,0.008
			c0-0.117-0.033-0.141-0.076-0.204c0.038-0.062,0.058-0.126,0.101-0.188c0-0.016-0.043-0.368-0.024-0.462
			c0.08-0.015,0.08-0.039,0.08-0.133c-0.099-0.046-0.173-0.086-0.259-0.125c-0.056-0.071-0.126-0.149-0.178-0.212
			c-0.264-0.18-0.534-0.298-0.797-0.486c-0.096-0.079-0.174-0.204-0.268-0.259c-0.027-0.022-0.313-0.141-0.313-0.141
			c-0.106-0.031-0.181,0.078-0.224,0.023c-0.16-0.196-0.379-0.314-0.519-0.526v-0.008c0.059-0.007,0.14-0.015,0.202-0.015
			c-0.499-0.156-0.168-0.564-0.663-0.76c-0.039,0.093-0.071,0.181-0.104,0.267c-0.058,0.046-0.1,0.102-0.163,0.125
			c-0.059-0.15-0.161-0.299-0.203-0.494c0.086,0,0.113-0.032,0.155-0.071c-0.022-0.039-0.045-0.078-0.062-0.109
			c-0.143,0.007-0.155,0.007-0.315,0c0,0.031-0.013,0.07-0.013,0.109c-0.183,0.009-0.398,0.071-0.48,0.134
			c-0.018,0.039-0.038,0.078-0.051,0.125c0.02,0.007,0.056,0.007,0.091,0.007c0,0.142,0.042,0.142,0.104,0.22
			c-0.043,0.07-0.093,0.103-0.145,0.157c0.079,0.392,0.234,0.509,0.536,0.682c0.083,0.055,0.203,0.062,0.258,0.142
			c0.077,0.11,0.066,0.274,0.125,0.408c0.094,0.219,0.349,0.446,0.504,0.611c0.172,0.165,0.715,0,0.806,0.15
			c0,0,0,0.038,0.015,0.054c-0.089,0.031-0.129,0.086-0.191,0.141c0.022,0.024,0.044,0.056,0.062,0.08
			c0.603,0.156,1.067,0.485,1.458,0.854c-0.027,0.102-0.058,0.18-0.089,0.267c-0.071-0.046-0.146-0.094-0.211-0.142
			c-0.04-0.062,0.016-0.101-0.052-0.14c-0.116-0.087-0.407-0.032-0.394-0.229c-0.221-0.023-0.389,0.314-0.389,0.542
			c0.117,0.054,0.24,0.125,0.357,0.196c-0.037,0.087-0.037,0.173,0.018,0.259c-0.022,0.024-0.047,0.054-0.061,0.07
			c-0.197-0.007-0.225,0.047-0.314,0.125c0.012,0.095,0.028,0.141,0,0.219c-0.156,0.04-0.21,0.197-0.284,0.322h-0.172
			c-0.021-0.024-0.039-0.04-0.063-0.055v-0.141c0.126-0.071,0.155-0.149,0.121-0.283c0.021-0.023,0.043-0.039,0.062-0.063
			c0.045,0.016,0.092,0.016,0.141,0.016v-0.032c0.017-0.062-0.281-0.862-0.344-0.87c-0.055,0.016-0.091,0.047-0.133,0.039
			c-0.086-0.062-0.172-0.117-0.266-0.172c0.035-0.062,0.044-0.101,0.022-0.18c-0.038-0.047-0.078-0.079-0.115-0.118
			c-0.078,0.008-0.157,0.039-0.223,0.062c0,0,0.007-0.039,0.021-0.054c0.014-0.008,0.044-0.008,0.061-0.023
			c-0.033-0.023-0.047-0.062-0.075-0.095H48.76c-0.064,0.023-0.117,0.039-0.181,0.055c-0.066-0.391-0.372-0.29-0.663-0.447
			c-0.342-0.172-0.626-0.524-0.994-0.745c-0.407-0.266-0.384-0.98-0.82-1.2c-0.329-0.171-0.574-0.165-0.837,0.04
			c-0.046,0.048-0.093,0.103-0.141,0.165c-0.095,0.016-0.19,0.04-0.273,0.071c-0.323,0.204-0.453,0.487-0.93,0.573
			c-0.247,0.038-0.325-0.173-0.471-0.228c-0.101-0.039-0.199,0.031-0.265,0.031c-0.274-0.016-0.338-0.243-0.65-0.022
			c-0.491,0.36-0.046,0.611-0.198,1.003c-0.113,0.156-0.387,0.156-0.532,0.29c-0.021,0.04-0.035,0.079-0.062,0.102
			c-0.264,0.172-0.602,0.03-0.77,0.313c0.018,0.062,0.026,0.062,0.064,0.095c-0.008,0.015-0.01,0.015-0.01,0.015
			c-0.266,0.102-0.645,0.589-0.7,0.871c0.043,0.102,0.091,0.203,0.139,0.313c0.058,0.03,0.125,0.062,0.178,0.094
			c0,0,0,0.022,0,0.039c-0.238,0.118-0.532,0.346-0.586,0.643c-0.004,0.056,0.04,0.062,0.011,0.125
			c-0.222,0.048-0.468,0.032-0.57,0.204c-0.093,0.173-0.077,0.244-0.226,0.353c-0.022-0.023-0.044-0.039-0.07-0.062
			c-0.102,0.023-0.16,0.062-0.225,0.086c-0.326,0-0.65,0-0.979-0.015c-0.066,0.054-0.134,0.117-0.188,0.156
			c-0.214,0.079-0.292,0.04-0.352,0.275H37.45c-0.002-0.023-0.009-0.048-0.009-0.048l-0.018-0.015
			c-0.008,0.054-0.008,0.054-0.022,0.078c-0.25,0.063-0.419-0.148-0.446-0.353c-0.039-0.015-0.07-0.023-0.103-0.04
			c0.012-0.218-0.273-0.455-0.562-0.369c-0.092,0.033-0.175,0.071-0.257,0.118c-0.099,0.016-0.149-0.039-0.194-0.047
			c-0.202-0.039-0.317,0.024-0.428,0.079c0-0.016,0-0.023,0-0.023c-0.035-0.111,0.056-0.228,0.086-0.323
			c0.024-0.124-0.021-0.242-0.056-0.298c0-0.007,0.013-0.015,0.013-0.015c0.013-0.102,0.043-0.235,0.067-0.329
			c-0.013-0.008-0.013-0.024-0.013-0.024c-0.077,0.024-0.184,0.047-0.251,0.031c-0.011-0.031-0.015-0.07-0.022-0.093
			c0,0,0-0.009,0-0.025c0.11,0.009,0.163-0.015,0.206-0.086c-0.01-0.031-0.03-0.062-0.043-0.086c0,0-0.027,0.008-0.045,0.008
			c-0.028,0.086-0.082,0.11-0.163,0.149c-0.061-0.031-0.069-0.016-0.096-0.078c0.065-0.11,0.086-0.244,0.073-0.393
			c0.321-0.181,0.458-1.247,0.273-1.631c0.039-0.062,0.169-0.446,0.155-0.478c-0.049-0.156-0.143-0.25-0.325-0.298
			c-0.009-0.039-0.014-0.086-0.014-0.134c0.075-0.141,0.184-0.196,0.379-0.203h0.165c0.037-0.071,0.06-0.133,0.082-0.196
			c0.271-0.11,0.45,0.047,0.716,0.093c0.214,0.032,0.378-0.108,0.523-0.148c0.04,0,0.547,0.148,0.704,0.165
			c0.312,0.055,0.853,0.133,1-0.062c0.254,0.078,0.424,0.211,0.739,0.149c0.104-0.228,0.169-0.533,0.229-0.832
			c0.044-0.007,0.07-0.039,0.106-0.046c-0.012-0.032-0.036-0.056-0.051-0.071c-0.017,0.015-0.038,0.031-0.06,0.054
			c-0.006-0.203,0.021-0.462,0.099-0.604h0.012c0.066,0.095,0.132,0.172,0.196,0.251c-0.04-0.188-0.16-0.267-0.259-0.399
			c0.012-0.103,0.062-0.182,0.099-0.251c-0.143-0.29-0.091-0.165-0.36-0.29c-0.079-0.11-0.156-0.197-0.236-0.3
			c0.021-0.03,0.042-0.085,0.06-0.132c-0.095-0.071-0.255-0.119-0.32-0.213c0.021-0.039,0.04-0.078,0.065-0.133
			c-0.025,0-0.045-0.008-0.065-0.023c-0.058,0.015-0.103,0.023-0.163,0.054c-0.213-0.196-0.563-0.282-0.868-0.259
			c-0.007-0.016-0.007-0.047-0.007-0.047c-0.052-0.078-0.151-0.062-0.192-0.133c0.082-0.007,0.157-0.023,0.234-0.04v-0.007
			c-0.004-0.016-0.004-0.032-0.004-0.056c-0.048-0.007-0.146-0.015-0.121-0.046c0.083-0.008,0.083-0.023,0.121-0.087
			c-0.121,0-0.199,0.008-0.271,0.04c0-0.048,0.004-0.109,0.017-0.165c0.172,0,0.285-0.11,0.429-0.117c0,0,0.016,0.007,0.028,0.023
			c0,0,0.164,0.016,0.214-0.017c0.012-0.023,0.021-0.061,0.036-0.086c0.094-0.015,0.171-0.015,0.261-0.031
			c0.053,0.078,0.107,0.149,0.157,0.211c0.146,0.016,0.432-0.054,0.547-0.102v0.079c0.079,0,0.157-0.009,0.207-0.048
			c-0.078-0.102-0.054-0.227-0.05-0.384c-0.117-0.071-0.197-0.227-0.225-0.384c0.17,0.031,0.264,0.031,0.408,0
			c-0.013,0.141,0.008,0.196,0.051,0.274c0.281-0.134,0.599,0.157,0.827-0.079c-0.038-0.015-0.081-0.023-0.125-0.039
			c0.01-0.032,0.01-0.047,0.01-0.047c0.176-0.227,0.469-0.188,0.699-0.33c0.2-0.133,0.088-0.392,0.168-0.635
			c0.088-0.047,0.184-0.094,0.273-0.142c0.075,0,0.145-0.008,0.207-0.008c0.113-0.078,0.222-0.148,0.324-0.219
			c0.161-0.055,0.317,0.071,0.435-0.048c-0.036-0.062-0.078-0.101-0.142-0.14c0.142-0.118,0.289-0.235,0.436-0.369
			c0.078-0.196,0.151-0.377,0.229-0.557c0.054-0.023,0.117-0.039,0.177-0.055c0.062,0.039,0.108,0.086,0.147,0.149
			c-0.024,0.022-0.028,0.055-0.039,0.07c-0.056,0.015-0.039,0.031-0.091,0.015c0,0.11,0,0.142-0.027,0.213
			c0.141,0.023,0.224,0.087,0.326,0.023c0.061-0.086,0.125-0.063,0.144-0.211c-0.078,0-0.091-0.008-0.144-0.048
			c0-0.078,0.022-0.093,0.053-0.141c-0.053,0-0.104,0-0.164-0.008c0-0.141-0.009-0.18,0.021-0.282
			c0.194-0.07,0.57-0.267,0.809-0.173c0.022,0.062,0.096,0.11,0.147,0.157h0.06c0,0,0-0.024,0.014-0.039
			c-0.053-0.056-0.104-0.039-0.125-0.134c0-0.046,0.021-0.086,0.033-0.125c0.136-0.039,0.34-0.063,0.551-0.063
			c0.018,0.086,0.043,0.142,0.048,0.204c0.006,0.017,0.025,0.017,0.035,0.032l0.037-0.016c0.01-0.017,0.021-0.032,0.04-0.04
			c-0.02-0.039-0.04-0.079-0.052-0.117c0.061,0.016,0.125,0.039,0.19,0.062c-0.061-0.117-0.03-0.141,0.005-0.266
			c0.107,0.008,0.229,0.046,0.32,0c-0.053-0.023-0.104-0.04-0.143-0.063c0,0-0.01-0.047-0.018-0.062
			c0.018-0.016,0.043-0.031,0.068-0.039c-0.025-0.031-0.061-0.07-0.091-0.093c0.03-0.025,0.04-0.025,0.065-0.063
			c-0.104,0.007-0.172,0.038-0.183-0.056c0.087-0.015,0.157-0.039,0.208-0.102c-0.033-0.118-0.151-0.18-0.197-0.282
			c-0.019-0.102,0.012-0.361-0.006-0.479c-0.104,0-0.096-0.047-0.16-0.093c-0.017,0.022-0.039,0.039-0.049,0.069
			c-0.037-0.023-0.066-0.039-0.107-0.069c0.05-0.103,0.096-0.143,0.156-0.237c-0.017-0.203-0.169-0.336-0.039-0.555
			c0.068,0,0.194,0.101,0.261,0.062c0.073-0.031,0.091-0.188,0.188-0.235c0.022,0.056,0.045,0.125,0.075,0.174
			c0.053,0,0.061,0,0.088-0.041c0.012-0.101,0.024-0.203,0.038-0.305c0.169-0.016,0.364-0.031,0.494,0.04
			c0,0.093,0,0.265,0.066,0.29c0.096,0.016,0.196,0.016,0.301,0.016c0.051,0.062-0.055,0.281-0.077,0.313
			c-0.04,0.006-0.071,0.023-0.11,0.039c-0.024-0.033-0.055-0.071-0.073-0.095c-0.048,0.016-0.082,0.04-0.129,0.056
			c0.077,0.196-0.078,0.219-0.127,0.369c-0.059,0.007-0.106,0.015-0.164,0.022c0.017,0.023,0.027,0.04,0.035,0.047
			c-0.096,0.118-0.144,0.283-0.164,0.463c0.138,0.048,0.384,0.22,0.263,0.416c0.091-0.016,0.091-0.016,0.121,0.071
			c0.105-0.055,0.125,0.032,0.238,0.047c0.097,0,0.188-0.015,0.277-0.015c0.017,0.015,0.035,0.039,0.039,0.071
			c-0.056,0.102-0.104,0.125-0.195,0.195c0.012,0.008,0.02,0.023,0.022,0.047c0.068,0.016,0.13,0.016,0.191-0.039h0.009
			c0.012,0.039,0.012,0.055,0.02,0.078h0.152c0.044-0.149,0.778-0.391,0.884-0.384c0.09,0.267,0.285,0.149,0.445,0.234
			c0,0.071,0.012,0.142,0.022,0.221c0.142,0.054,0.25,0.103,0.407,0.157c0-0.118-0.011-0.157-0.027-0.291
			c0.692-0.039,1.11-0.376,1.67-0.564c0.131-0.04,0.562-0.142,0.548,0.031c0.054,0.063,0.076,0.125,0.104,0.244
			c0.359,0.117,0.518-0.062,0.756-0.196c0.006-0.103,0.022-0.221,0.053-0.322c0.224,0.008,0.554,0.078,0.705-0.015
			c0.019-0.078,0-0.103-0.016-0.173c0.016-0.008,0.034-0.008,0.034-0.008c0-0.056-0.019,0,0-0.056
			c-0.058-0.148-0.266-0.846-0.122-1.137c0.053-0.046,0.122-0.109,0.181-0.148c0.005-0.087,0.005-0.181,0.016-0.26
			c0.059-0.093,0.13-0.171,0.192-0.258c0.227,0,0.309-0.102,0.523-0.11c0,0.032,0,0.064,0,0.064
			c0.089,0.093,0.191,0.164,0.282,0.227c0.026,0.078,0.054,0.157,0.085,0.235c0.198,0.181,0.556,0.062,0.638-0.142
			c-0.103-0.367,0.035-0.579,0.07-0.894c-0.024-0.015-0.052-0.039-0.07-0.046c-0.052,0.04-0.103,0.086-0.157,0.142
			c-0.078-0.039-0.12-0.078-0.239-0.102c0.013-0.119,0.021-0.228,0.021-0.346c-0.047,0.031-0.074,0.055-0.112,0.055
			c-0.044-0.132-0.044-0.196-0.082-0.33c0.077-0.023,0.055-0.046,0.042-0.134c0.266-0.007,0.391-0.109,0.547-0.194
			c0.087,0.015,0.117,0,0.203,0c0.005-0.024,0.012-0.048,0.027-0.079c0.09,0.016,0.188,0.039,0.285,0.07
			c0.028-0.039,0.067-0.07,0.091-0.095c0.078,0.056,0.245-0.015,0.41,0.017c0.299,0.047,0.56,0.11,0.884,0.125
			c0.085,0.016,0.168-0.134,0.208-0.117c0.012,0.016,0.029,0.031,0.047,0.046c0.007-0.109-0.061-0.132-0.126-0.211
			c0.013-0.031,0.019-0.062,0.026-0.079c0.026-0.007,0.053-0.015,0.079-0.022c0.047,0.062,0.09,0.11,0.146,0.047
			c-0.017-0.056-0.017-0.025,0.011-0.079c0.103-0.024,0.085,0.023,0.195,0.054c0.085-0.093,0.128-0.21,0.273-0.21
			c0.166,0.046,0.261,0.117,0.442,0.132c0.026-0.023,0.062-0.039,0.093-0.07c-0.288-0.533-0.673-0.023-0.966-0.438
			c0.017-0.071,0.099-0.235,0.039-0.235c-0.015,0.031-0.035,0.062-0.049,0.086c-0.199,0.023-0.467,0.109-0.588,0.219
			c-0.04-0.023-0.082-0.055-0.125-0.07c-0.088,0.008-0.108,0.039-0.155,0.085c-0.07-0.015-0.146-0.039-0.219-0.07c0,0,0-0.07,0-0.11
			c-0.004,0.079-0.024,0.157-0.082,0.18c-0.107,0.095-0.271,0-0.299,0.173h-0.015c-0.055-0.039-0.118-0.078-0.163-0.118
			c-0.052,0.118-0.228,0.133-0.323,0.189c0,0-0.018-0.032-0.03-0.047c-0.14,0.047-0.211,0.078-0.293,0.188
			c-0.105-0.055-0.136-0.032-0.262,0v-0.047c-0.081,0.047-0.333,0.173-0.464,0.071c-0.08-0.039-0.121-0.095-0.159-0.173
			c0.025-0.047,0.044-0.086,0.065-0.14c-0.153,0-0.231,0.039-0.339,0.078c0-0.055,0.01-0.102,0.018-0.157
			c-0.155,0.055-0.176-0.016-0.29-0.062c-0.277-0.149-0.324-0.393-0.246-0.761c0.005-0.079,0.022-0.156,0.052-0.235
			c-0.069-0.102-0.135-0.212-0.208-0.313c0.027-0.149,0.066-0.235,0.066-0.423c-0.053-0.039-0.124-0.079-0.18-0.125
			c0.071-0.228,0.164-0.29,0.301-0.424c-0.009-0.046-0.019-0.11-0.026-0.156c0.117-0.048,0.202-0.023,0.308,0.015
			c0.286-0.134,0.146-0.369,0.313-0.541c0,0,0,0.008,0,0.023c0.04,0.039,0.051,0.07,0.078,0.11c0.027,0,0.043,0,0.043,0
			c0.152-0.197,1.02-1.098,1.219-1.154c0.074,0,0.157,0.017,0.237,0.017c0.003-0.079,0.013-0.118-0.01-0.148
			c-0.035-0.04-0.07-0.071-0.106-0.11c0.028-0.079,0.071-0.235,0.039-0.314c-0.03-0.039-0.039-0.069-0.065-0.117
			c-0.273,0-0.356-0.103-0.512-0.228c-0.161,0-0.549,0.094-0.598,0.071c-0.094-0.071-0.201-0.133-0.285-0.196
			c-0.234,0.101-0.251,0.353-0.42,0.479c-0.155,0.117-0.206-0.009-0.363,0.188c0.044,0.063,0.13,0.126,0.086,0.205
			c-0.047,0.093-0.19,0.212-0.293,0.258c0.013,0.016,0.024,0.024,0.038,0.039c0.053,0.103,0.169,0.165,0.235,0.267
			c-0.015,0.016-0.015,0.023-0.027,0.031c-0.208,0.102-0.222,0.313-0.363,0.486c-0.191,0.142-0.394,0.267-0.584,0.4
			c-0.04-0.023-0.088-0.055-0.139-0.086c-0.132,0.062-0.132,0.18-0.222,0.259c-0.203,0.157-0.276,0.141-0.444,0.36h-0.244
			c0.022,0.086,0.065,0.18,0.026,0.235c-0.039,0.048-0.078,0.11-0.125,0.157c-0.07-0.023-0.148-0.046-0.222-0.079
			c0.035,0.307,0.147,0.362,0.035,0.714c-0.043,0-0.096,0.017-0.143,0.032c-0.042,0.203,0.143,0.714,0.061,0.783
			c0.004,0.009,0.004,0.017,0.004,0.017c0.151,0.015,0.194,0.07,0.265,0.093c0.052,0,0.099-0.008,0.152-0.015
			c0.077,0.196,0.235,0.368,0.48,0.407c0.048,0.149,0.138,0.165,0.146,0.345c-0.039,0-0.078,0-0.078,0
			c-0.09,0.071-0.488,0.384-0.648,0.307c-0.122-0.071-0.646-0.244-0.715-0.165c-0.021,0.022-0.04,0.046-0.064,0.086h0.021
			c0.273-0.086,0.37,0.147,0.581,0.187c0.212,0.024,0.35-0.171,0.553-0.093V28.16c0,0,0.036,0,0.062,0l0.013,0.031
			c0.004,0.009,0.01,0.032,0.01,0.047c-0.062,0.007-0.104,0.016-0.168,0.016c0.017,0.047,0.017,0.078,0.03,0.133
			c-0.118,0.031-0.196,0.071-0.221,0.211c-0.04,0-0.07,0-0.108,0.009c-0.01-0.009-0.017-0.009-0.017-0.009v-0.196
			c-0.167,0.062-0.027,0.392-0.37,0.33c-0.004,0.024-0.014,0.048-0.014,0.071c-0.12,0.007-0.238,0.016-0.351,0.016
			c0.022,0.133,0.325,0.485,0.14,0.626h-0.13v0.141c0.034,0.016,0.068,0.032,0.092,0.039c-0.04,0.094,0.011,0.149-0.013,0.205
			c-0.039,0.086-0.089,0.149-0.116,0.266c0,0.079,0,0.157-0.011,0.235c-0.122,0.212-0.232,0.424-0.346,0.636
			c-0.009-0.009-0.022-0.016-0.022-0.016c-0.047-0.04-0.095-0.063-0.134-0.095c-0.155,0.039-0.277,0.055-0.493,0.055
			c-0.014,0.023-0.014,0.056-0.025,0.094c-0.052-0.024-0.04-0.039-0.079-0.015c-0.116,0.054-0.137,0.141-0.183,0.258
			c0.053,0.078,0.113,0.117,0.034,0.18c-0.021,0.023-0.034,0.047-0.059,0.07c-0.25-0.054-0.458,0.062-0.746,0
			c0.027-0.117,0.066-0.14,0.097-0.258c-0.136-0.11-0.229-0.274-0.312-0.432c0.048-0.031,0.083-0.039,0.125-0.069
			c0-0.033-0.012-0.064-0.012-0.064c0.039-0.024,0.072-0.024,0.117-0.024c0-0.03,0.013-0.07,0.029-0.093
			c-0.186-0.188-0.388-0.322-0.478-0.643c-0.033,0-0.067-0.008-0.099-0.016c0-0.228-0.063-0.275-0.16-0.4
			c0.04-0.079,0.11-0.227,0.091-0.313c-0.082-0.033-0.076-0.033-0.173,0c-0.004-0.039-0.004-0.071-0.004-0.11
			c-0.039,0.007-0.082,0.015-0.117,0.015c0-0.14-0.018-0.431-0.121-0.485c0.022-0.094,0.078-0.125,0.066-0.22
			c-0.009-0.016-0.02-0.016-0.02-0.016c-0.214,0.086-0.228-0.04-0.324-0.181c0.043-0.07,0.043-0.095,0.015-0.188
			c-0.022,0.015-0.05,0.039-0.078,0.07c-0.01,0.181-0.044,0.345-0.169,0.432c-0.097,0.079-0.194-0.016-0.272,0.023
			c-0.104,0.056-0.104,0.118-0.183,0.189c-0.217,0.204-0.481,0.344-0.693,0.548c-0.141,0.078-0.546,0.125-0.691,0.102
			c-0.014-0.086-0.039-0.093-0.097-0.117c-0.024,0.015-0.042,0.047-0.06,0.078c-0.03-0.023-0.051-0.047-0.078-0.062
			c0.027-0.015,0.048-0.039,0.078-0.071c-0.23-0.055-0.363-0.156-0.597-0.227c-0.039-0.071-0.079-0.148-0.117-0.22
			c0.038-0.086,0.078-0.125,0.051-0.227c0.039,0,0.066,0,0.104,0.007c0,0.041,0,0.079,0.008,0.118
			c0.02-0.009,0.031-0.015,0.04-0.023c0.039-0.063,0.1-0.016,0.17,0.039c-0.005-0.024-0.022-0.039-0.032-0.054
			c0.027-0.047,0.032-0.063,0.096-0.079v-0.007c-0.125,0.007-0.096,0.039-0.194-0.031c-0.009-0.048-0.025-0.031-0.009-0.087
			c0.078-0.039,0.157-0.071,0.234-0.125v-0.009c-0.1,0.009-0.117,0-0.183-0.039c0.056-0.062,0.088-0.078,0.131-0.157
			c-0.048,0.048-0.113,0.094-0.174,0.142h-0.009c0-0.078-0.019-0.093-0.07-0.133c0,0.047,0,0.11,0.02,0.148
			c-0.07,0.024-0.093,0.048-0.195,0.048c-0.009-0.015-0.027-0.039-0.035-0.063c-0.004,0.024-0.004,0.048-0.013,0.063
			c-0.019-0.009-0.043-0.023-0.058-0.039c-0.016-0.047-0.039-0.11-0.056-0.166c0.056-0.07,0.099-0.125,0.152-0.18
			c0.009,0.008,0.009,0.023,0.009,0.023c0.013,0.031,0.022,0.079,0.022,0.079l0.02,0.023c0,0,0-0.054,0-0.078
			c0.061,0.039,0.091,0.055,0.165,0.024c-0.031-0.04-0.012-0.017-0.012-0.017c0.117-0.031,0.186-0.062,0.245-0.141
			c-0.077,0.031-0.128,0.063-0.245,0.07c-0.032-0.031-0.065-0.054-0.093-0.078c0.011-0.023,0.03-0.039,0.053-0.07
			c0.091-0.031,0.118-0.094,0.13-0.204c-0.216-0.032-0.324,0.062-0.43-0.094c0.078-0.078,0.167-0.156,0.247-0.22
			c-0.025-0.031-0.039-0.055-0.061-0.078c-0.104,0.047-0.16,0.032-0.238-0.016c-0.018-0.032-0.018-0.054-0.027-0.071
			c0.051-0.164,0.118-0.188,0.224-0.273v-0.024c-0.121-0.047-0.145-0.125-0.214-0.203c0.073-0.119,0.03-0.275,0.073-0.425
			c0.141-0.007,0.266-0.007,0.387-0.023c0,0,0-0.023,0-0.054c-0.07-0.047-0.155-0.062-0.204-0.134
			c0.009-0.039,0.009-0.062,0.009-0.102c0.204-0.062,0.295-0.235,0.48-0.142c0.156-0.062,0.141-0.117,0.184-0.282
			c0.202,0.016,0.396,0.133,0.518-0.015c-0.138-0.016-0.275-0.079-0.315-0.22c0.029-0.022,0.044-0.046,0.072-0.062
			c0.249,0,0.481,0,0.652,0.062c0-0.203,0.289-0.579,0.438-0.478c0.045,0.023,0.075,0.055,0.105,0.079
			c0.022-0.016,0.03-0.016,0.042-0.023c0.066-0.156,0.234-0.197,0.316-0.322c0.013-0.07,0.023-0.141,0.035-0.203
			c0.096-0.189,0.426-0.464,0.606-0.549c0.144,0.023,0.195,0.085,0.316,0v-0.016c-0.015-0.039-0.027-0.079-0.031-0.102
			c0.156-0.149,0.246-0.321,0.391-0.472c0.078,0.025,0.142,0.009,0.234,0.009c0-0.087,0-0.173-0.008-0.259
			c-0.043-0.016-0.085-0.024-0.124-0.04c0.117-0.22,0.132-0.487,0.445-0.416c0.01-0.078,0.022-0.156,0.035-0.242
			c0.077-0.008,0.173-0.032,0.251-0.032v-0.024c-0.068-0.117-0.174-0.165-0.251-0.25c0.043-0.071,0.077-0.149,0.126-0.205
			c0.127,0.008,0.229-0.007,0.347-0.016v-0.016c-0.034-0.071-0.082-0.133-0.117-0.211c0,0,0.022-0.016,0.035-0.032
			c0.141-0.072,0.466-0.11,0.539-0.251c-0.081-0.023-0.093-0.055-0.125-0.125c0.125-0.04,0.157-0.118,0.247-0.181
			c0.102,0,0.16,0.039,0.241,0.047c0.05-0.078,0.094-0.102,0.196-0.133v-0.071c-0.051-0.039-0.095-0.093-0.083-0.156
			c0.13-0.04,0.135-0.188,0.266-0.196h0.012c0.052,0.095,0.083,0.117,0.174,0.173c0.011-0.009,0.018-0.017,0.018-0.017
			c0.064-0.062,0.099-0.117,0.133-0.165c-0.023-0.094-0.034-0.188-0.062-0.283c0.125,0.039,0.264,0.024,0.328-0.07v-0.007
			c-0.042-0.054-0.092-0.094-0.147-0.133c0.043-0.04,0.083-0.079,0.12-0.119c0.217-0.078,0.157-0.203,0.286-0.297
			c0.247-0.188,0.3,0.078,0.413-0.408c0.056,0.039,0.106,0.085,0.158,0.133c0.261-0.11,0.316,0.024,0.581,0.048
			c0.104-0.158,0.22-0.51,0.389-0.596l0.038,0.007c0.002,0.032,0.015,0.056,0.027,0.071c-0.06,0.11-0.073,0.244-0.105,0.376
			c0.146-0.118,0.243-0.25,0.301-0.447c0.228-0.023,0.299-0.117,0.403-0.265c0.007,0.007,0.029,0.022,0.029,0.022
			c0.086,0.063,0.164,0.141,0.255,0.204c0.192-0.697,0.38-0.353,0.747-0.164c0.047-0.173,0.192-0.447,0.341-0.533
			c0.077-0.056,0.167,0.023,0.229-0.032c0.281-0.274,0.372-0.44,0.923-0.393c-0.201,0.259-0.426,0.298-0.426,0.785
			c0.035,0,0.065,0.015,0.104,0.015c0.125-0.33,0.481-0.658,0.755-0.839c0.016,0.181,0.016,0.368,0.027,0.549
			c0.246-0.118,0.394-0.322,0.477-0.603c0.165-0.024,0.388-0.104,0.477,0.03c-0.131,0.196-0.164,0.298-0.247,0.55
			c0.083,0.015,0.161,0.03,0.238,0.039c0.038-0.221,0.164-0.393,0.303-0.511c0.237,0.064,0.372,0.22,0.575,0.314
			c0.108,0.04,0.251-0.007,0.382,0.04c0.052,0.024,0.107,0.056,0.157,0.102c0.011,0.032,0.011,0.08,0.011,0.126
			c-0.233,0.243-0.691,0.203-1.151,0.188c0.151,0.188,0.416,0.235,0.55,0.438c0.29-0.023,0.501-0.102,0.719,0.047
			c0.067-0.039,0.186-0.047,0.271-0.086c0.123-0.07,0.24-0.141,0.357-0.212c0.012,0.416,0.333,0.479,0.688,0.542
			c0.012,0.093,0.017,0.188,0.029,0.274c0.059-0.039,0.113-0.086,0.173-0.125c0.347,0.024,0.703,0.047,1.053,0.063
			c0.225,0.078,0.428,0.164,0.642,0.228c0.129,0.046,0.267,0.085,0.402,0.125c0.236,0.194,0.471,0.407,0.709,0.603
			c0.246,0.079,0.493,0.156,0.744,0.228c0.233,0.07,0.464,0.243,0.646,0.384c-0.012,0.274,0.021,0.344,0.147,0.47
			c0.004,0.362-0.238,0.518-0.455,0.675c-1.036,0.783-2.606,0.047-3.593-0.244c-0.13-0.023-0.277-0.046-0.403-0.069
			c-0.178-0.086-0.238-0.487-0.68-0.275c0.23,0.22,0.446,0.486,0.715,0.667c0.16,0.103,0.471,0.118,0.594,0.267
			c0.182,0.203,0.099,0.494-0.14,0.565c0.021,0.171,0.344,0.995,0.424,1.05c0.17,0.078,0.433,0.022,0.576,0.102
			c0.017,0.078,0.062,0.188,0.13,0.227c0.104,0.062,0.269,0.023,0.402,0.071c0.319,0.07,0.813,0.094,0.516-0.416
			c-0.101-0.017-0.266,0.031-0.374-0.017c-0.125-0.054-0.373-0.321-0.38-0.455c0.108-0.093,0.104-0.25,0.304-0.25
			c0.341,0.211,0.756,0.408,1.182,0.525c0.187,0.063,0.319-0.016,0.462-0.022c0.062,0.007,0.131,0.039,0.205,0.046
			c0.228-0.337-0.269-0.587-0.278-0.909c0.339-0.423,1.049-0.369,1.299-0.886c0.438-0.047,0.787,0.345,1.103,0.369v-0.032
			c0.011-0.071,0.027-0.132,0.036-0.211c0.125-0.384,0.223-0.329,0.065-0.8c-0.144-0.023-0.238-0.069-0.305-0.172
			c0,0,0.019-0.016,0.027-0.023c0.105-0.157,0.203-0.313,0.3-0.478c0.08-0.338-0.273-0.369-0.233-0.66
			c0.159-0.039,0.263,0.024,0.419,0.064c0.194-0.017,0.375-0.04,0.57-0.048c0.273,0.048,0.499,0.51,0.602,0.73
			c-0.445,0.016-0.914,0-0.994,0.399c0.393,0.307,0.566,0.627,1.237,0.487c0.108-0.023,0.216-0.032,0.331-0.062
			c0.184-0.126,0.105-0.55,0.274-0.683c0.104-0.031,0.195-0.054,0.3-0.087c0.402-0.173,0.843-0.369,1.291-0.541
			c0.262-0.102,0.522-0.211,0.79-0.321c0.018,0.07,0.039,0.126,0.058,0.196c0.012,0.008,0.024,0.016,0.024,0.016
			c0.512-0.094,0.093-0.486,0.836-0.486c-0.014,0.149-0.051,0.274-0.051,0.462c-0.078,0.008-0.145,0.024-0.224,0.047
			c-0.037,0.04-0.05,0.062-0.05,0.158c0.299,0.101,0.371-0.016,0.734-0.031c0.022,0.07,0.027,0.085,0.082,0.11
			c0.167-0.094,0.156-0.361,0.344-0.431c0.155-0.071,0.505-0.118,0.704-0.071c0.118,0.039,0.273,0.158,0.47,0.109
			c0.077-0.07,0.162-0.133,0.241-0.204c0.312-0.243,0.543-0.219,0.879-0.062c-0.051,0.079-0.104,0.149-0.168,0.228
			c0.051,0.141,0.234,0.273,0.431,0.172c0.027-0.063,0.05-0.219,0.089-0.283c0.341-0.054,0.553,0.032,0.575-0.406
			c-0.117-0.149-0.238-0.306-0.36-0.455c0.008-0.016,0.008-0.023,0.008-0.023c0.141-0.071,0.205-0.235,0.363-0.268
			c0.349-0.078,1.01,0.11,1.248,0.173c1.091,0.306,2.048,0.69,2.787,1.326c0.481,0.525,0.971,1.035,1.425,1.575
			c0.109,0.134,0.217,0.259,0.32,0.392c5.801,7.128,9.285,16.232,9.285,26.151c0,2.509-0.259,4.956-0.688,7.347
			C89.658,55.542,89.42,55.527,89.29,55.628z M46.554,29.98c-0.089,0.054-0.097,0.085-0.128,0.188
			c-0.313,0.032-0.575-0.023-0.809,0.008c-0.039,0.188-0.125,0.219-0.225,0.328c-0.053-0.054-0.1-0.109-0.16-0.172
			c0.044-0.085,0.1-0.204,0.195-0.251c0.15-0.023,0.298-0.032,0.45-0.047c0.146-0.054,0.184-0.258,0.302-0.337
			c0.097-0.032,0.219-0.062,0.325-0.094c0.01-0.016,0.019-0.039,0.033-0.062c0.016,0.008,0.045,0.023,0.045,0.023
			C46.505,29.72,46.527,29.759,46.554,29.98z M47.536,31.5c0.043,0.024,0.09,0.055,0.14,0.078c-0.022,0.023,0,0.017-0.032,0.023
			c-0.057,0.079-0.147,0.197-0.251,0.228c-0.034-0.062-0.061-0.118-0.095-0.172c-0.091,0.009-0.238,0.023-0.286-0.039
			c-0.203-0.337-0.008-0.337,0.16-0.525c0,0,0.004,0.008,0.008,0.015c0.04,0.134,0.11,0.173,0.226,0.22
			c0.005-0.078,0.04-0.259,0.091-0.321c0.061,0.008,0.118,0.008,0.18,0.008c0.035,0.227-0.02,0.352-0.152,0.462
			C47.523,31.477,47.528,31.5,47.536,31.5z"/>
	</g>
</g>
</svg>
