<?xml version="1.0" encoding="utf-8"?>
<!-- Generator: Adobe Illustrator 16.0.4, SVG Export Plug-In . SVG Version: 6.00 Build 0)  -->
<!DOCTYPE svg PUBLIC "-//W3C//DTD SVG 1.1//EN" "http://www.w3.org/Graphics/SVG/1.1/DTD/svg11.dtd">
<svg class="control-icon"  version="1.1" id="Layer_1" xmlns="http://www.w3.org/2000/svg" xmlns:xlink="http://www.w3.org/1999/xlink" x="0px" y="0px"
	 width="96px" height="96px" viewBox="0 0 96 96" enable-background="new 0 0 96 96" xml:space="preserve">
<g id="Shape_43">
	<g>
		<path d="M89.304,66.781L5.466,65.594c-1.708-0.024-3.11,1.164-3.128,2.653L2.091,86.939c-0.018,1.485,1.352,2.714,3.059,2.735
			c0,0,18.444,3.412,41.881,3.744c23.438,0.33,41.963-2.555,41.963-2.555c1.706,0.021,3.112-1.165,3.132-2.653l0.245-18.691
			C92.389,68.033,91.012,66.806,89.304,66.781z M28.113,86.806c-3.614,0-6.542-3.049-6.542-6.81c0-3.762,2.928-6.81,6.542-6.81
			c3.613,0,6.542,3.048,6.542,6.81C34.655,83.757,31.726,86.806,28.113,86.806z M46.973,86.806c-3.613,0-6.543-3.049-6.543-6.81
			c0-3.762,2.93-6.81,6.543-6.81c3.612,0,6.543,3.048,6.543,6.81C53.516,83.757,50.585,86.806,46.973,86.806z M65.832,86.806
			c-3.614,0-6.543-3.049-6.543-6.81c0-3.762,2.929-6.81,6.543-6.81c3.611,0,6.542,3.048,6.542,6.81
			C72.374,83.757,69.443,86.806,65.832,86.806z M6.094,26.255c0,0,18.443,3.412,41.878,3.743
			c23.439,0.331,41.963-2.554,41.963-2.554c1.708,0.021,3.114-1.165,3.133-2.653l0.246-18.69c0.017-1.488-1.359-2.715-3.068-2.741
			L6.408,2.177c-1.707-0.029-3.11,1.161-3.128,2.65L3.034,23.519C3.015,25.005,4.386,26.234,6.094,26.255z M66.775,9.765
			c3.612,0,6.541,3.053,6.541,6.811c0,3.761-2.929,6.812-6.541,6.812c-3.615,0-6.543-3.052-6.543-6.812
			C60.232,12.817,63.16,9.765,66.775,9.765z M47.916,9.765c3.612,0,6.542,3.053,6.542,6.811c0,3.761-2.93,6.812-6.542,6.812
			c-3.614,0-6.543-3.052-6.543-6.812C41.373,12.817,44.302,9.765,47.916,9.765z M29.057,9.765c3.612,0,6.541,3.053,6.541,6.811
			c0,3.761-2.928,6.812-6.541,6.812c-3.614,0-6.543-3.052-6.543-6.812C22.514,12.817,25.443,9.765,29.057,9.765z M90.246,35.333
			L6.408,34.146c-1.707-0.027-3.11,1.164-3.128,2.65L3.034,55.489c-0.019,1.487,1.352,2.715,3.06,2.739
			c0,0,18.443,3.409,41.878,3.739c23.439,0.333,41.963-2.554,41.963-2.554c1.708,0.022,3.114-1.162,3.133-2.652l0.246-18.689
			C93.331,36.585,91.955,35.355,90.246,35.333z M27.106,55.046c-3.469,0-6.28-2.925-6.28-6.536c0-3.609,2.811-6.536,6.28-6.536
			c3.467,0,6.278,2.927,6.278,6.536C33.384,52.121,30.574,55.046,27.106,55.046z M73.326,51.61
			c-0.183,0.438-0.604,0.672-1.059,0.672H40.585c-0.454,0-0.874-0.234-1.058-0.672c-0.917-2.203-0.306-3.911-0.01-4.576
			c0.174-0.457,0.602-0.642,1.068-0.642h31.682c0.468,0,0.895,0.185,1.069,0.642C73.631,47.699,74.244,49.407,73.326,51.61z"/>
	</g>
</g>
</svg>
