<?xml version="1.0" encoding="utf-8"?>
<!-- Generator: Adobe Illustrator 16.0.4, SVG Export Plug-In . SVG Version: 6.00 Build 0)  -->
<!DOCTYPE svg PUBLIC "-//W3C//DTD SVG 1.1//EN" "http://www.w3.org/Graphics/SVG/1.1/DTD/svg11.dtd">
<svg class="control-icon"  version="1.1" id="Layer_1" xmlns="http://www.w3.org/2000/svg" xmlns:xlink="http://www.w3.org/1999/xlink" x="0px" y="0px"
	 width="96px" height="96px" viewBox="0 0 96 96" enable-background="new 0 0 96 96" xml:space="preserve">
<g id="ico_x5F_help_x5F_rnd_x5F_sm">
	<path d="M47.187,11.249c20.161,0,36.564,16.403,36.564,36.564S67.348,84.378,47.187,84.378
		S10.622,67.975,10.622,47.813S27.025,11.249,47.187,11.249 M47.187,1.627C21.681,1.627,1,22.3,1,47.813
		C1,73.32,21.681,94,47.187,94s46.187-20.68,46.187-46.187C93.373,22.3,72.692,1.627,47.187,1.627L47.187,1.627z"/>
	<path d="M52.769,48.234c-3.545,2.278-4.146,3.548-4.146,7.758c0,2.067-1.132,3.135-3.676,3.135
		c-2.474,0-3.678-1.067-3.678-3.135c0-5.352,0.402-8.629,6.685-12.629c3.405-2.21,4.814-3.751,4.814-6.69
		c0-2.812-2.075-5.082-5.748-5.082c-2.947,0-4.946,1.271-6.483,2.676c-1.007,0.933-1.602,1.602-3.01,1.602
		c-1.736,0-3.342-1.669-3.342-3.474c0-1.067,0.401-1.939,1.605-3.074c2.266-2.142,5.881-4.345,11.162-4.345
		c8.353,0,13.234,4.413,13.234,11.366C60.188,41.552,57.576,45.167,52.769,48.234z M45.074,72.674c-2.8,0-4.676-1.94-4.676-4.677
		c0-2.811,1.876-4.743,4.676-4.743c2.812,0,4.751,2.067,4.751,4.743C49.825,70.606,47.886,72.674,45.074,72.674z"/>
</g>
</svg>
