<?xml version="1.0" standalone="no"?>
<!DOCTYPE svg PUBLIC "-//W3C//DTD SVG 20010904//EN"
 "http://www.w3.org/TR/2001/REC-SVG-20010904/DTD/svg10.dtd">
<svg version="1.0" xmlns="http://www.w3.org/2000/svg"
 width="30.000000pt" height="30.000000pt" viewBox="0 0 160.000000 170.000000"
 preserveAspectRatio="xMidYMid meet">

<g transform="translate(0.000000,100.000000) scale(0.100000,-0.100000)"
fill="#575757" stroke="none">
<path d="M420 971 c-74 -24 -140 -70 -177 -123 l-26 -39 -59 58 c-46 45 -60
55 -70 45 -10 -10 73 -98 400 -424 327 -328 414 -410 424 -400 10 10 -9 34
-94 120 l-105 107 34 74 c119 253 84 454 -97 550 -48 26 -76 33 -133 37 -40 2
-83 0 -97 -5z m164 -250 c26 -27 31 -39 31 -81 0 -40 -5 -54 -29 -79 -51 -53
-71 -51 -143 21 -54 53 -63 67 -58 88 7 29 41 68 70 81 37 16 96 3 129 -30z"/>
<path d="M184 706 c-11 -29 4 -148 29 -221 46 -134 158 -325 252 -431 l35 -39
35 39 c18 21 57 72 86 113 l52 75 -241 241 c-194 194 -242 238 -248 223z"/>
</g>
</svg>
