<?xml version="1.0" encoding="utf-8"?>
<!DOCTYPE svg PUBLIC "-//W3C//DTD SVG 1.1//EN" "http://www.w3.org/Graphics/SVG/1.1/DTD/svg11.dtd">

<svg
  class="control-icon"
   xmlns:dc="http://purl.org/dc/elements/1.1/"
   xmlns:cc="http://creativecommons.org/ns#"
   xmlns:rdf="http://www.w3.org/1999/02/22-rdf-syntax-ns#"
   xmlns:svg="http://www.w3.org/2000/svg"
   xmlns:xlink="http://www.w3.org/1999/xlink"
   xmlns="http://www.w3.org/2000/svg"
   version="1.1"
   id="Layer_1"
   x="4px"
   y="4px"
   width="24px"
   height="24px"
   viewBox="3 3 18 18"
   style="enable-background:new 0 0 24 24;fill:#575757"
   xml:space="preserve" >

	<path
   id="left"
   d="m 11.605,20.177 c 0,0.248 -0.135,0.396 -0.328,0.396 -0.066,0 -0.14,-0.018 -0.217,-0.056 L 4.307,17.23 C 4.007,17.084 3.762,16.692 3.762,16.358 l 0,-7.742 c 0,-0.25 0.139,-0.401 0.336,-0.401 0.065,0 0.138,0.017 0.213,0.052 l 6.746,3.152 c 0.303,0.141 0.549,0.529 0.549,0.863 l 0,7.895 z" />
   	<path
   id="top"
   d="M 11.445415,10.883986 4.6894155,7.6769857 c -0.347,-0.164 -0.351,-0.444 -0.011,-0.619 l 6.6049995,-3.412 c 0.342,-0.176 0.902,-0.182 1.248,-0.013 l 6.938,3.403 c 0.344,0.169 0.344,0.443 -0.004,0.609 l -6.758,3.2350003 c -0.348,0.167 -0.914,0.168 -1.262,0.004 z" />
	<path
   id="right"
   d="m 20.235704,8.665104 c 0,-0.248 -0.135,-0.396 -0.328,-0.396 -0.066,0 -0.14,0.018 -0.217,0.056 l -6.753,3.287 c -0.3,0.146 -0.545,0.538 -0.545,0.872 l 0,7.742 c 0,0.25 0.139,0.401 0.336,0.401 0.065,0 0.138,-0.017 0.213,-0.052 l 6.746,-3.152 c 0.303,-0.141 0.549,-0.529 0.549,-0.863 l 0,-7.895 z" />

   </svg>
