<?xml version="1.0" encoding="iso-8859-1"?>
<!-- Generator: Adobe Illustrator 15.0.2, SVG Export Plug-In . SVG Version: 6.00 Build 0)  -->
<!DOCTYPE svg PUBLIC "-//W3C//DTD SVG 1.1//EN" "http://www.w3.org/Graphics/SVG/1.1/DTD/svg11.dtd">
<svg version="1.1" id="Layer_1" xmlns="http://www.w3.org/2000/svg" xmlns:xlink="http://www.w3.org/1999/xlink" x="0px" y="0px"
	 width="20.688px" height="22.922px" viewBox="0 0 20.688 22.922" style="enable-background:new 0 0 20.688 22.922; fill: magenta"
	 xml:space="preserve">
<g id="ico_x5F_rotate_x5F_sm">
	<path d="M11.767,12.276c0.161-1.435-0.872-2.729-2.308-2.892C9.051,9.34,8.654,9.391,8.291,9.52
		c-0.912,0.325-1.607,1.146-1.724,2.172c-0.16,1.436,0.872,2.73,2.308,2.892c0.063,0.007,0.123,0.009,0.188,0.011
		c0.342,0.014,0.675-0.035,0.981-0.145c0.547-0.196,1.014-0.572,1.326-1.062C11.58,13.061,11.721,12.686,11.767,12.276z"/>
	<path d="M6.82,18.652l0.063-0.1C6.859,18.584,6.836,18.617,6.82,18.652z"/>
	<path d="M10.825,0.779c-2.146-0.242-4.216,0.149-6.03,1.02C4.461,1.18,4.246,0.693,4.215,0.621
		c0.029,0.068,0.018,0.014-0.016-0.074C4.18,0.477,4.146,0.41,4.107,0.346C4.094,0.32,4.078,0.297,4.062,0.277
		C4.024,0.229,3.979,0.188,3.93,0.152c-0.01-0.01-0.021-0.016-0.033-0.025C3.853,0.1,3.806,0.074,3.759,0.055
		C3.754,0.053,3.746,0.051,3.742,0.048C3.508-0.041,3.233-0.01,3.021,0.16C2.942,0.223,2.881,0.299,2.836,0.383L2.83,0.385v0.002
		c-0.043,0.07-0.086,0.148-0.122,0.24L1.151,4.594L0.662,5.84L0.23,6.938L0.094,7.291C-0.195,8.023,0.206,8.527,0.986,8.41
		l1.739-0.262L3.22,8.074l1.134-0.172L7.84,7.377l0.225-0.035C8.092,7.338,8.113,7.33,8.137,7.324l0.147-0.025L8.281,7.293
		C8.379,7.268,8.476,7.229,8.56,7.162C8.582,7.145,8.6,7.125,8.618,7.105C8.773,6.971,8.848,6.793,8.836,6.59
		c0.002-0.164-0.049-0.33-0.158-0.469c0,0-0.865-0.51-1.887-1.562c1.129-0.436,2.376-0.617,3.662-0.473
		c4.262,0.48,7.338,4.336,6.858,8.598c-0.481,4.262-4.336,7.34-8.599,6.859c-0.339-0.037-0.668-0.1-0.991-0.182
		c-0.095-0.021-0.188-0.047-0.28-0.072c-0.062,0-0.121,0.008-0.182,0.029c-0.098,0.035-0.18,0.097-0.24,0.172l-0.074,0.115
		l-1.17,1.812l-0.135,0.207c-0.045,0.117-0.049,0.248-0.004,0.377c0.039,0.107,0.107,0.195,0.193,0.26
		c0.102,0.035,0.204,0.072,0.307,0.105c0.703,0.232,1.439,0.398,2.205,0.484c6.085,0.684,11.593-3.709,12.276-9.795
		C21.304,6.971,16.91,1.463,10.825,0.779z"/>
</g>
</svg>
