<?xml version="1.0" encoding="iso-8859-1"?>
<!-- Generator: Adobe Illustrator 15.0.2, SVG Export Plug-In . SVG Version: 6.00 Build 0)  -->
<!DOCTYPE svg PUBLIC "-//W3C//DTD SVG 1.1//EN" "http://www.w3.org/Graphics/SVG/1.1/DTD/svg11.dtd">
<svg version="1.1" id="Layer_1" xmlns="http://www.w3.org/2000/svg" xmlns:xlink="http://www.w3.org/1999/xlink" x="0px" y="0px"
	 width="24px" height="24px" viewBox="0 0 24 24" style="enable-background:new 0 0 24 24; fill: magenta" xml:space="preserve">
<g id="ico_x5F_panarrow_x5F_sm">
	<path d="M24,11.995h-0.002c-0.013-0.211-0.156-0.419-0.433-0.578L19.39,8.374c-0.072-0.041-0.143-0.07-0.211-0.092l-0.001-0.001
		L19.176,8.28c-0.076-0.031-0.158-0.049-0.243-0.049c-0.229,0-0.429,0.125-0.538,0.309c-0.002,0.004-0.005,0.008-0.008,0.013
		c-0.021,0.038-0.038,0.078-0.052,0.122c-0.004,0.011-0.007,0.022-0.011,0.034c-0.012,0.049-0.021,0.099-0.021,0.153
		c0,0.02,0.003,0.044,0.007,0.068c0.008,0.064,0.021,0.125,0.046,0.182c0.024,0.077,0.045,0.119,0.027,0.06
		c0.021,0.074,0.174,0.654,0.291,1.395c0.002,0.011-0.001,0.022-0.005,0.035l0.003,0.017c0,0.138-0.112,0.25-0.25,0.25
		c-0.01,0-0.019-0.005-0.019-0.005l-4.769-0.001l-0.004-0.003c0,0-0.007,0.001-0.011,0.001c-0.207,0-0.375-0.168-0.375-0.375
		c0-0.008,0.002-0.015,0.002-0.021V5.597c0,0-0.002-0.007-0.002-0.011c0-0.138,0.112-0.25,0.25-0.25
		c0.016,0,0.029,0.007,0.045,0.009l0.01-0.001c0.684,0.114,1.207,0.253,1.277,0.272c-0.06-0.018-0.018,0.003,0.06,0.027
		c0.057,0.023,0.118,0.038,0.181,0.046c0.025,0.004,0.049,0.007,0.07,0.007c0.054,0,0.104-0.009,0.153-0.021
		c0.011-0.004,0.022-0.007,0.033-0.011c0.044-0.014,0.085-0.031,0.122-0.053c0.005-0.002,0.01-0.005,0.013-0.007
		c0.184-0.11,0.309-0.309,0.308-0.538c0-0.086-0.018-0.168-0.048-0.241c-0.001-0.002-0.001-0.003-0.001-0.003l-0.002-0.002
		c-0.02-0.068-0.051-0.139-0.091-0.211l-3.043-4.176c-0.159-0.277-0.368-0.42-0.579-0.434V0l-0.002,0.001L11.995,0v0.001
		c-0.21,0.014-0.419,0.156-0.578,0.434L8.375,4.61C8.334,4.683,8.303,4.753,8.283,4.821L8.282,4.822L8.281,4.826
		C8.25,4.899,8.232,4.981,8.232,5.067c0,0.229,0.124,0.428,0.308,0.538C8.544,5.607,8.549,5.61,8.553,5.612
		C8.59,5.634,8.631,5.651,8.675,5.665c0.011,0.004,0.022,0.007,0.034,0.011c0.049,0.012,0.099,0.021,0.152,0.021
		c0.021,0,0.045-0.003,0.07-0.007c0.062-0.008,0.124-0.022,0.182-0.046c0.076-0.024,0.119-0.045,0.059-0.027
		c0.072-0.021,0.609-0.162,1.308-0.277l0.003,0.001c0.006-0.001,0.012-0.004,0.018-0.004c0.135,0,0.242,0.107,0.248,0.24
		c0.001,0.002,0.004,0.005,0.004,0.005v4.883l-0.004,0.003c0,0.007,0.002,0.013,0.002,0.013c0,0.212-0.166,0.379-0.372,0.381
		l-0.003,0.002H5.563c0,0-0.004-0.003-0.007-0.005C5.426,10.851,5.32,10.743,5.32,10.61c0-0.013,0.006-0.022,0.007-0.034
		c0,0-0.002-0.008-0.001-0.011c0.116-0.74,0.27-1.319,0.289-1.394c-0.017,0.06,0.004,0.017,0.029-0.06
		c0.023-0.057,0.038-0.118,0.045-0.182c0.004-0.024,0.007-0.049,0.007-0.069c0-0.054-0.008-0.104-0.021-0.153
		C5.673,8.696,5.669,8.686,5.665,8.675C5.651,8.631,5.634,8.59,5.613,8.552C5.611,8.548,5.607,8.544,5.605,8.54
		c-0.11-0.184-0.309-0.309-0.538-0.309c-0.085,0-0.167,0.018-0.241,0.049c-0.002,0-0.002,0-0.002,0
		C4.822,8.282,4.822,8.281,4.821,8.282C4.753,8.303,4.683,8.333,4.61,8.374l-4.175,3.042c-0.277,0.16-0.422,0.368-0.434,0.579H0
		c0,0,0.001,0.003,0.001,0.004L0,12.003l0.002,0.001c0.012,0.211,0.156,0.419,0.434,0.579l4.175,3.042
		c0.072,0.041,0.143,0.071,0.211,0.092l0.001,0.001c0.002,0.001,0.002,0.001,0.002,0.001c0.076,0.031,0.158,0.049,0.243,0.049
		c0.229,0,0.428-0.125,0.538-0.309c0.002-0.003,0.006-0.007,0.008-0.013c0.021-0.037,0.038-0.078,0.052-0.121
		c0.004-0.012,0.008-0.022,0.011-0.034c0.013-0.05,0.021-0.1,0.021-0.153c0-0.021-0.003-0.045-0.007-0.069
		c-0.007-0.063-0.021-0.125-0.045-0.182c-0.025-0.076-0.046-0.119-0.029-0.06c-0.018-0.066-0.142-0.536-0.251-1.162
		c-0.001-0.007,0.002-0.014,0.003-0.021c-0.002-0.013-0.008-0.024-0.008-0.037c0-0.139,0.112-0.25,0.25-0.25l0.014,0.002h4.687
		c0.021-0.003,0.043-0.006,0.065-0.006c0.207,0,0.375,0.168,0.375,0.375v0.002l0.002,0.003v4.69c0,0-0.004,0.004-0.006,0.006
		c-0.009,0.13-0.114,0.232-0.246,0.232c-0.014,0-0.024-0.005-0.037-0.007c0,0-0.008,0.002-0.011,0.001
		c-0.685-0.113-1.21-0.252-1.28-0.271c0.06,0.018,0.018-0.003-0.06-0.028c-0.057-0.023-0.118-0.038-0.181-0.046
		c-0.025-0.004-0.05-0.006-0.07-0.006c-0.054,0-0.104,0.008-0.153,0.02c-0.012,0.004-0.022,0.008-0.033,0.011
		c-0.044,0.014-0.085,0.032-0.122,0.053c-0.005,0.002-0.01,0.005-0.013,0.007c-0.184,0.11-0.309,0.309-0.308,0.539
		c0,0.085,0.018,0.167,0.048,0.24c0.001,0.002,0.001,0.003,0.001,0.003s0,0.002,0.002,0.003c0.02,0.068,0.05,0.139,0.091,0.21
		l3.043,4.177c0.159,0.276,0.368,0.42,0.578,0.433V24L12,23.998L12.004,24v-0.002c0.211-0.013,0.42-0.156,0.579-0.433l3.042-4.177
		c0.041-0.071,0.072-0.142,0.092-0.21c0.001-0.001,0.001-0.002,0.001-0.002c0.001-0.001,0.001-0.002,0.001-0.002
		c0.031-0.075,0.049-0.157,0.049-0.242c0-0.23-0.124-0.429-0.308-0.539c-0.004-0.002-0.009-0.005-0.013-0.007
		c-0.037-0.021-0.078-0.039-0.122-0.053c-0.011-0.003-0.022-0.007-0.034-0.011c-0.049-0.012-0.099-0.02-0.152-0.02
		c-0.021,0-0.045,0.002-0.07,0.006c-0.062,0.008-0.124,0.022-0.182,0.046c-0.076,0.025-0.119,0.046-0.059,0.028
		c-0.071,0.02-0.602,0.159-1.291,0.273c-0.003,0.001-0.008-0.001-0.012-0.002c-0.01,0.002-0.02,0.006-0.029,0.006
		c-0.134,0-0.242-0.105-0.248-0.238V18.4v-4.651c0-0.008-0.002-0.015-0.002-0.021c0-0.207,0.168-0.375,0.375-0.375
		c0.022,0,0.044,0.003,0.065,0.006h4.69l0.014-0.002c0.138,0,0.25,0.111,0.25,0.25c0,0.006-0.003,0.012-0.004,0.018
		c0.001,0.007,0.004,0.014,0.003,0.02c-0.11,0.638-0.237,1.117-0.256,1.185c0.018-0.06-0.003-0.018-0.027,0.059
		c-0.024,0.058-0.038,0.118-0.046,0.183c-0.004,0.023-0.007,0.048-0.007,0.068c0,0.055,0.009,0.104,0.021,0.153
		c0.004,0.012,0.007,0.022,0.011,0.034c0.014,0.043,0.031,0.084,0.052,0.122c0.003,0.005,0.006,0.009,0.008,0.013
		c0.109,0.184,0.309,0.309,0.538,0.308c0.085,0,0.167-0.018,0.241-0.048c0.002-0.001,0.002-0.001,0.004-0.002h0.001
		c0.068-0.021,0.139-0.052,0.211-0.092l4.176-3.043c0.276-0.16,0.42-0.368,0.433-0.578H24L23.998,12L24,11.995z"/>
</g>
</svg>
