<?xml version="1.0" encoding="utf-8"?>
<!-- Generator: Adobe Illustrator 16.0.4, SVG Export Plug-In . SVG Version: 6.00 Build 0)  -->
<!DOCTYPE svg PUBLIC "-//W3C//DTD SVG 1.1//EN" "http://www.w3.org/Graphics/SVG/1.1/DTD/svg11.dtd">
<svg  class="control-icon" version="1.1" id="Layer_1" xmlns="http://www.w3.org/2000/svg" xmlns:xlink="http://www.w3.org/1999/xlink" x="0px" y="0px"
	 width="96px" height="96px" viewBox="0 0 96 96" enable-background="new 0 0 96 96" xml:space="preserve">
<g id="Shape_30">
	<g>
		<path style='fill:{{color}}; stroke:{{color}};stroke-dasharray:{{dashArray}}; stroke-width:{{strokeWidth}};' d="M94.368,1.836l0.004-0.008c-0.004-0.006-0.019-0.006-0.026-0.014c0,0-0.008-0.02-0.015-0.028l-0.009,0.007
			c-1.055-0.929-2.716-1.232-4.777-0.684L55.457,6.434c-0.532,0.146-1.009,0.409-1.428,0.635c-0.01,0-0.007,0.079-0.007,0.079
			c-0.016,0-0.017,0-0.017,0c-0.507,0-0.977,0.438-1.381,0.84c-1.084,1.075-1.431,2.558-1.085,3.937
			c0.007,0.027,0.013,0.041,0.025,0.074c0.081,0.274,0.188,0.541,0.332,0.809c0.031,0.07,0.067,0.135,0.105,0.208
			c0.179,0.286,0.373,0.559,0.629,0.813c0.098,0.093,0.222,0.192,0.357,0.29c0.337,0.262,0.691,0.485,1.075,0.637
			c0.412,0.211,0.688,0.314,0.521,0.212c0.747,0.428,4.037,2.365,7.848,5.119c0.059,0.04,0.102,0.111,0.143,0.19
			c0.027,0.024,0.065,0.034,0.093,0.062c0.651,0.647,0.651,1.702,0,2.35c-0.044,0.045-0.104,0.062-0.158,0.104L40.036,45.147
			L1.389,82.56L0.9,83.052l-0.115,0.684c-0.081,0.44-0.676,4.674,1.982,7.813c1.877,2.223,4.798,3.615,8.68,3.615h0.937
			l50.708-49.498l11.125-11.065c0.021-0.021,0.028-0.053,0.049-0.074c0.651-0.648,1.712-0.648,2.363,0
			c0.029,0.029,0.039,0.069,0.067,0.101c0.033,0.026,0.082,0.045,0.104,0.076c2.325,3.287,3.932,5.985,4.321,6.656
			c-0.101-0.162,0.003,0.111,0.213,0.52c0.154,0.38,0.381,0.735,0.641,1.069c0.098,0.133,0.198,0.256,0.296,0.356
			c0.256,0.254,0.531,0.448,0.818,0.625c0.075,0.036,0.142,0.072,0.215,0.104c0.268,0.143,0.548,0.25,0.821,0.33
			c0.032,0.011,0.064,0.02,0.093,0.026c1.386,0.344,2.915-0.001,3.996-1.082c0.403-0.401,0.707-0.867,0.912-1.361
			c0.009-0.011,0.011-0.014,0.013-0.023c-0.002-0.002,0,0,0-0.009c0.226-0.418,0.412-0.89,0.562-1.421l5.354-33.905
			C95.603,4.538,95.3,2.885,94.368,1.836z"/>
	</g>
</g>
</svg>
