<?xml version="1.0" encoding="utf-8"?>
<!-- Generator: Adobe Illustrator 16.0.4, SVG Export Plug-In . SVG Version: 6.00 Build 0)  -->
<!DOCTYPE svg PUBLIC "-//W3C//DTD SVG 1.1//EN" "http://www.w3.org/Graphics/SVG/1.1/DTD/svg11.dtd">
<svg  class="control-icon" version="1.1" id="Layer_1" xmlns="http://www.w3.org/2000/svg" xmlns:xlink="http://www.w3.org/1999/xlink" x="0px" y="0px"
	 width="96px" height="96px" viewBox="0 0 96 96" enable-background="new 0 0 96 96" xml:space="preserve">
<g id="Shape_16">
	<g>
		<path d="M88.149,67.465V28.669c0.512-0.388,1.003-0.801,1.465-1.26c5.696-5.655,5.696-14.863,0.003-20.523
			c-2.761-2.738-6.429-4.25-10.326-4.25c-3.905,0-7.571,1.512-10.331,4.252c-4.968,4.938-5.599,12.573-1.896,18.199L56.46,35.624
			c-2.401-1.638-5.243-2.523-8.225-2.523c-2.484,0-4.872,0.616-6.991,1.769L29.576,23.272c0.892-1.892,1.376-3.971,1.376-6.124
			c0-3.875-1.518-7.521-4.276-10.263c-2.76-2.738-6.426-4.25-10.331-4.25c-3.896,0-7.569,1.512-10.328,4.252
			c-5.691,5.658-5.691,14.861,0.007,20.521c1.257,1.253,2.715,2.235,4.29,2.944v34.931c-1.575,0.713-3.033,1.697-4.297,2.947
			c-5.691,5.659-5.691,14.866,0.007,20.523c2.76,2.741,6.426,4.25,10.326,4.25s7.566-1.505,10.326-4.248
			c0.603-0.601,1.138-1.252,1.621-1.932h38.707c0.561,0.857,1.205,1.67,1.956,2.421c2.76,2.741,6.426,4.252,10.331,4.252
			c3.901,0,7.569-1.511,10.323-4.252c5.696-5.657,5.696-14.864,0.003-20.521C89.152,68.264,88.661,67.853,88.149,67.465z
			 M43.293,42.702c1.32-1.312,3.075-2.036,4.942-2.036c1.866,0,3.621,0.725,4.944,2.034c2.724,2.711,2.724,7.114,0,9.822
			c-1.323,1.312-3.078,2.036-4.944,2.036c-1.867,0-3.622-0.725-4.938-2.038c-1.325-1.309-2.054-3.052-2.054-4.908
			C41.244,45.759,41.973,44.014,43.293,42.702z M11.4,12.238c1.324-1.311,3.079-2.035,4.944-2.035c1.868,0,3.623,0.721,4.945,2.035
			c1.316,1.309,2.047,3.053,2.047,4.907c0,1.858-0.73,3.603-2.05,4.913c-1.319,1.313-3.074,2.032-4.938,2.032
			c-1.87,0-3.625-0.719-4.942-2.032C8.679,19.352,8.679,14.943,11.4,12.238z M21.287,83.406c-1.319,1.311-3.074,2.035-4.938,2.035
			c-1.87,0-3.625-0.725-4.942-2.037c-2.729-2.708-2.729-7.111-0.007-9.822c1.324-1.309,3.079-2.034,4.944-2.034
			c1.868,0,3.623,0.726,4.945,2.034c1.316,1.314,2.047,3.057,2.047,4.912C23.337,80.349,22.606,82.094,21.287,83.406z
			 M64.707,79.259H30.914c0.015-0.255,0.038-0.507,0.038-0.765c0-3.877-1.518-7.52-4.276-10.263
			c-2.381-2.367-5.444-3.808-8.745-4.157V31.57c2.432-0.259,4.729-1.117,6.722-2.49l11.097,11.024
			c-1.369,2.245-2.119,4.813-2.119,7.508c0,3.876,1.524,7.519,4.284,10.261c2.756,2.742,6.424,4.252,10.321,4.252
			c3.903,0,7.57-1.51,10.329-4.252c4.477-4.447,5.414-11.088,2.855-16.472l11.348-11.276c2.002,0.994,4.219,1.532,6.523,1.532
			c0.416,0,0.833-0.02,1.243-0.058v32.935c-0.41-0.038-0.827-0.062-1.243-0.062c-3.905,0-7.571,1.513-10.331,4.253
			C66.045,71.621,64.633,75.448,64.707,79.259z M84.229,83.896c-1.316,1.311-3.072,2.036-4.938,2.036
			c-1.868,0-3.623-0.726-4.945-2.036c-2.723-2.709-2.723-7.112,0-9.82c1.322-1.312,3.077-2.035,4.945-2.035
			c1.865,0,3.621,0.723,4.941,2.035c1.321,1.311,2.049,3.056,2.049,4.91C86.281,80.841,85.554,82.583,84.229,83.896z M84.229,22.059
			c-1.316,1.313-3.072,2.032-4.938,2.032c-1.868,0-3.623-0.719-4.945-2.032c-2.723-2.707-2.723-7.115,0-9.82
			c1.322-1.314,3.077-2.035,4.945-2.035c1.865,0,3.621,0.721,4.941,2.035c1.321,1.309,2.049,3.053,2.049,4.907
			C86.281,19.004,85.554,20.748,84.229,22.059z"/>
	</g>
</g>
</svg>
