<?xml version="1.0" encoding="utf-8"?>
<!-- Generator: Adobe Illustrator 16.0.4, SVG Export Plug-In . SVG Version: 6.00 Build 0)  -->
<!DOCTYPE svg PUBLIC "-//W3C//DTD SVG 1.1//EN" "http://www.w3.org/Graphics/SVG/1.1/DTD/svg11.dtd">
<svg class="control-icon"  version="1.1" id="Layer_1" xmlns="http://www.w3.org/2000/svg" xmlns:xlink="http://www.w3.org/1999/xlink" x="0px" y="0px"
   width="96px" height="96px" viewBox="0 0 96 96" enable-background="new 0 0 96 96" xml:space="preserve">
<g id="Shape_35_copy_2">
  <g>
    <path
      style='fill:{{color}}; stroke:{{color}}; stroke-width:{{strokeWidth}}; stroke-linecap:round'
      d="M92.681,45.587H52.157c-1.724,0-3.136,1.418-3.136,3.146v4.145c0,1.734,1.412,3.152,3.136,3.152h40.523
      c1.732,0,3.148-1.418,3.148-3.152v-4.145C95.829,47.005,94.413,45.587,92.681,45.587z M92.681,21.71H52.157
      c-1.724,0-3.136,1.417-3.136,3.145V29c0,1.736,1.412,3.154,3.136,3.154h40.523c1.732,0,3.148-1.418,3.148-3.154v-4.145
      C95.829,23.128,94.413,21.71,92.681,21.71z M92.681,71H3.31c-1.726,0-3.139,1.418-3.139,3.146v4.143
      c0,1.736,1.413,3.154,3.139,3.154h89.371c1.732,0,3.148-1.418,3.148-3.154v-4.143C95.829,72.418,94.413,71,92.681,71z
       M5.908,60.521c1.848,0,2.517-0.494,2.977-2.348c0.858-2.975,1.716-7.625,3.036-9.619H28.47c0.858,1.994,1.98,6.183,2.839,9.619
      c0.46,1.781,1.052,2.348,2.769,2.348c2.043,0,4.558-0.727,4.558-3.039c0-0.922-0.47-2.578-0.932-4.358
      c-0.856-3.242-1.97-6.802-3.164-10.371c-2.903-8.916-6.327-18.023-9.701-24.836c-1.125-2.302-1.834-3.361-4.482-3.361
      c-2.567,0-3.491,0.926-4.486,2.9c-3.43,6.803-7.118,16.122-10.222,25.43c-1.114,3.364-2.242,6.603-3.097,9.708
      c-0.654,2.31-1.052,4.029-1.052,5.214C1.499,59.396,3.139,60.521,5.908,60.521z M20.224,24.472
      c1.982,4.357,4.556,10.122,6.203,17.103H13.963C15.672,34.594,18.309,28.83,20.224,24.472z"/>
  </g>
</g>
</svg>
