<?xml version="1.0" encoding="utf-8"?>
<!-- Generator: Adobe Illustrator 16.0.4, SVG Export Plug-In . SVG Version: 6.00 Build 0)  -->
<!DOCTYPE svg PUBLIC "-//W3C//DTD SVG 1.1//EN" "http://www.w3.org/Graphics/SVG/1.1/DTD/svg11.dtd">
<svg  class="control-icon" version="1.1" id="Layer_1" xmlns="http://www.w3.org/2000/svg" xmlns:xlink="http://www.w3.org/1999/xlink" x="0px" y="0px"
	 width="96px" height="96px" viewBox="0 0 96 96" enable-background="new 0 0 96 96" xml:space="preserve">
<g id="Shape_31">
	<g>
		<path d="M95.046,22.337c-0.138-0.601-1.313-4.822-8.828-12.3C79.8,3.645,75.788,1.874,74.372,1.403
			c-0.135-0.043-0.223-0.08-0.312-0.096c-0.068-0.024-0.165-0.053-0.204-0.062c-0.482-0.106-1.69-0.386-2.604,0.522
			c0,0-1.208,1.028-1.625,1.443c-0.419,0.422-0.712,0.799-1.015,1.186c-1.32,1.682-1.445,3.101,0.052,4.727
			c0.077,0.075,0.086,0.144,0.167,0.222l0.027-0.028l0.02,0.019c0.066,0.066,0.078,0.134,0.146,0.201l3.098,3.082
			c1.834,1.982,1.386,3.543-0.689,5.607c-2.099,2.089-3.75,2.6-5.866,0.496l-2.471-2.462l-0.412-0.411
			c-0.078-0.074-0.153-0.094-0.225-0.161l0.029-0.031c-2.114-2.103-3.867-1.49-6.165,0.798c-2.367,2.356-2.916,4.032-0.802,6.137
			l0.035-0.035c0.068,0.074,0.082,0.152,0.158,0.228l5.581,5.555c2.085,2.092,1.628,3.675-0.525,5.82
			c-2.108,2.097-3.75,2.597-5.863,0.494l-5.146-5.122l-0.004,0.003l-0.412-0.412c-0.074-0.073-0.148-0.093-0.225-0.162l0.03-0.03
			c-2.112-2.103-3.867-1.49-6.164,0.799c-2.367,2.356-2.916,4.03-0.801,6.136l0.03-0.031c0.072,0.07,0.089,0.151,0.163,0.224
			l2.907,2.895c2.083,2.091,1.63,3.676-0.526,5.821c-2.099,2.089-3.749,2.598-5.861,0.492l-2.473-2.462l-0.002,0.005l-0.414-0.412
			c-0.075-0.074-0.152-0.089-0.225-0.161l0.033-0.029C33.703,40.099,31.95,40.713,29.65,43c-2.366,2.356-2.913,4.032-0.8,6.138
			l0.031-0.031c0.072,0.072,0.089,0.149,0.163,0.221l5.582,5.556c2.078,2.096,1.627,3.677-0.527,5.82
			c-2.104,2.095-3.749,2.599-5.864,0.496l-5.146-5.121l-0.003,0.002l-0.413-0.411c-0.074-0.073-0.15-0.094-0.225-0.161l0.032-0.031
			c-2.115-2.104-3.869-1.491-6.168,0.796c-2.37,2.357-2.913,4.034-0.799,6.137l0.034-0.034c0.068,0.075,0.084,0.152,0.159,0.228
			l2.908,2.894c2.083,2.091,1.628,3.679-0.53,5.826c-2.096,2.085-3.748,2.597-5.86,0.492l-0.006-0.006l-2.88-2.865
			c-0.073-0.075-0.149-0.094-0.226-0.165l0.032-0.03c-1.735-1.727-3.242-1.553-4.996-0.191c-0.38,0.291-2.673,2.659-2.673,2.659
			c-0.91,0.907-0.633,2.111-0.52,2.583c0.132,0.608,1.314,4.83,8.831,12.31c7.513,7.477,11.751,8.65,12.361,8.782
			c0.475,0.111,1.689,0.394,2.6-0.517l1.484-1.474l63.198-62.898l5.095-5.072C95.438,24.021,95.154,22.814,95.046,22.337z
			 M43.415,69.998c-1.624,1.615-4.252,1.61-5.883-0.014c-1.627-1.617-1.634-4.237-0.01-5.854c1.617-1.61,4.25-1.604,5.874,0.017
			C45.028,65.771,45.033,68.388,43.415,69.998z M70.041,43.497c-1.626,1.62-4.253,1.611-5.883-0.013
			c-1.628-1.618-1.636-4.234-0.01-5.853c1.612-1.607,4.251-1.606,5.877,0.012C71.657,39.268,71.657,41.891,70.041,43.497z"/>
	</g>
</g>
</svg>
